<?xml version="1.0" encoding="utf-8"?>
<!-- Generator: Adobe Illustrator 22.1.0, SVG Export Plug-In . SVG Version: 6.00 Build 0)  -->
<svg version="1.1" id="Слой_1" width="36" xmlns="http://www.w3.org/2000/svg" xmlns:xlink="http://www.w3.org/1999/xlink" x="0px" y="0px"
	 viewBox="0 0 200 160" style="enable-background:new 0 0 200 160;" xml:space="preserve">
<style type="text/css">
	.st0{fill:#000000;}
</style>
<g>
	<path class="st0" d="M122.7,56.1v13.8c0,0.5-0.4,0.9-0.9,0.9h-3.5c-0.5,0-0.9-0.4-0.9-0.9V56.1c0-0.5,0.4-0.9,0.9-0.9h3.5
		C122.3,55.2,122.7,55.6,122.7,56.1z"/>
	<path class="st0" d="M112.6,122.7V150c0,0.5-0.4,0.9-0.9,0.9h-3.5c-0.5,0-0.9-0.4-0.9-0.9v-27.4c0-0.5,0.4-0.9,0.9-0.9h3.5
		C112.2,121.8,112.6,122.2,112.6,122.7z"/>
	<path class="st0" d="M102.6,61.7v10.8c0,0.5-0.4,0.9-0.9,0.9h-3.5c-0.5,0-0.9-0.4-0.9-0.9V61.7c0-0.5,0.4-0.9,0.9-0.9h3.5
		C102.2,60.8,102.6,61.2,102.6,61.7z"/>
	<path class="st0" d="M122.7,79v63.7c0,0.5-0.4,0.9-0.9,0.9h-3.5c-0.5,0-0.9-0.4-0.9-0.9V79c0-0.5,0.4-0.9,0.9-0.9h3.5
		C122.3,78.1,122.7,78.5,122.7,79z"/>
	<path class="st0" d="M102.6,81.5v63.7c0,0.5-0.4,0.9-0.9,0.9h-3.5c-0.5,0-0.9-0.4-0.9-0.9V81.5c0-0.5,0.4-0.9,0.9-0.9h3.5
		C102.2,80.6,102.6,81,102.6,81.5z"/>
	<path class="st0" d="M153.1,19.9C140.2,7.1,123.1,0,105,0C86.8,0,69.7,7.1,56.9,19.9C44.2,32.6,37.1,49.4,36.9,67.4L24.7,91.9
		c-0.6,1.3-0.2,2.8,1,3.5l11.2,6.7v36.1c0,1.5,1.2,2.7,2.7,2.7h22.4L62,159.1c0,0.5,0.4,0.9,0.9,0.9h3.5c0.5,0,0.9-0.4,0.9-0.9
		l0.2-20.8c0-1.5-1.2-2.7-2.7-2.7H42.4v-35c0-0.9-0.5-1.8-1.3-2.3l-10.4-6.2l11.4-22.9c0.2-0.4,0.3-0.8,0.3-1.2
		c0-34.5,28.1-62.6,62.6-62.6s62.6,28.1,62.6,62.6c0,19.4-8.8,37.4-24.1,49.3c-0.7,0.5-1,1.3-1,2.1l0.1,39.6c0,0.5,0.4,0.9,0.9,0.9
		h3.5c0.5,0,0.9-0.4,0.9-0.9l0-38.3c16-13,25.1-32.2,25.1-52.8C173,49.8,165.9,32.8,153.1,19.9z"/>
	<path class="st0" d="M135.1,22.6c-4.3,0-7.7,3.5-7.7,7.7c0,1.1,0.2,2.2,0.7,3.2l-20,20c-0.5,0.5-0.8,1.2-0.8,1.9l0.1,59.6
		c0,0.5,0.4,0.9,0.9,0.9h3.5c0.5,0,0.9-0.4,0.9-0.9l0.1-58.5l19.2-19.2c1,0.5,2.1,0.7,3.2,0.7c4.3,0,7.7-3.5,7.7-7.7
		S139.4,22.6,135.1,22.6z M135.1,32.6c-1.3,0-2.3-1-2.3-2.3c0-1.3,1-2.3,2.3-2.3s2.3,1,2.3,2.3C137.4,31.6,136.4,32.6,135.1,32.6z"
		/>
	<path class="st0" d="M152.7,75.3c-3.2,0-6.1,2-7.2,5h-12.6V66.6l9.1-9.1c1,0.5,2.1,0.7,3.2,0.7c4.3,0,7.7-3.5,7.7-7.7
		s-3.5-7.7-7.7-7.7s-7.7,3.5-7.7,7.7c0,1.1,0.2,2.2,0.7,3.2l-9.9,9.9c-0.5,0.5-0.8,1.2-0.8,1.9v59.6c0,0.5,0.4,0.9,0.9,0.9h3.5
		c0.5,0,0.9-0.4,0.9-0.9l0.1-39.3h12.6c1.1,3,4,5,7.2,5c4.3,0,7.7-3.5,7.7-7.7S156.9,75.3,152.7,75.3z M145.1,48.1
		c1.3,0,2.3,1,2.3,2.3s-1,2.3-2.3,2.3s-2.3-1-2.3-2.3S143.9,48.1,145.1,48.1z M152.7,85.4c-1.3,0-2.3-1-2.3-2.3s1-2.3,2.3-2.3
		s2.3,1,2.3,2.3S153.9,85.4,152.7,85.4z"/>
	<path class="st0" d="M116.9,28.4l-7.4-7.4c0.5-1,0.7-2.1,0.7-3.2c0-4.3-3.5-7.7-7.7-7.7s-7.7,3.5-7.7,7.7s3.5,7.7,7.7,7.7
		c1.1,0,2.2-0.2,3.2-0.7l5.5,5.5L88,53.5c-0.5,0.5-0.8,1.2-0.8,1.9v62.3v27.4c0,0.5,0.4,0.9,0.9,0.9h3.5c0.5,0,0.9-0.4,0.9-0.9
		l0.1-88.6l24.3-24.3c0.5-0.5,0.8-1.2,0.8-1.9C117.7,29.6,117.4,28.9,116.9,28.4z M102.4,20.1c-1.3,0-2.3-1-2.3-2.3s1-2.3,2.3-2.3
		s2.3,1,2.3,2.3S103.7,20.1,102.4,20.1z"/>
	<path class="st0" d="M79.1,78.5l-9.5-7.9c0.3-0.8,0.4-1.7,0.4-2.6c0-4.3-3.5-7.7-7.7-7.7s-7.7,3.5-7.7,7.7s3.5,7.7,7.7,7.7
		c1.3,0,2.7-0.4,3.8-1l8.5,7.1l0.1,50.8c0,0.5,0.4,0.9,0.9,0.9h3.5c0.5,0,0.9-0.4,0.9-0.9v-52C80.1,79.8,79.7,79,79.1,78.5z
		 M62.3,70.3c-1.3,0-2.3-1-2.3-2.3s1-2.3,2.3-2.3s2.3,1,2.3,2.3S63.5,70.3,62.3,70.3z"/>
	<path class="st0" d="M90.4,37.2c-0.5-0.5-2-1.8-2.5-1.3L70.4,53.5c-0.5,0.5-0.8,1.2-0.8,1.9c0,0.7,0.3,1.4,0.8,1.9l10,10
		c0.5,0.5,1.6,0.1,2.8-1.1c1-1,1.8-2,1-2.8l-8.1-8.1l15.7-15.7C92.3,39.3,91,37.7,90.4,37.2z"/>
</g>
</svg>
