<?xml version="1.0" encoding="utf-8"?>
<!-- Generator: Adobe Illustrator 22.1.0, SVG Export Plug-In . SVG Version: 6.00 Build 0)  -->
<svg version="1.1" id="Слой_1" width="36" xmlns="http://www.w3.org/2000/svg" xmlns:xlink="http://www.w3.org/1999/xlink" x="0px" y="0px"
	 viewBox="0 0 200 160" style="enable-background:new 0 0 200 160;" xml:space="preserve">
<style type="text/css">
	.st0{fill:#000000;}
</style>
<g id="Page-1">
	<g id="_x30_42---Big-Data">
		<path id="Shape" class="st0" d="M172,112h-24v-2.7c0-4.4-3.6-8-8-8h-37.3v-8h40.7c17.5-0.3,31.5-14.6,31.3-32.2
			c0.2-14.9-9.9-27.9-24.4-31.4C147,12.7,132.1,0.3,114.7,0C103,0,91.9,5.8,85.3,15.5c-2-0.4-4-0.6-6-0.6c-14,0.2-26,10-28.9,23.7
			c-14.5,1.3-25.4,13.7-25,28.2C25.8,81.3,37.5,93,52,93.3h45.3v8H60c-4.4,0-8,3.6-8,8v2.7H28c-4.4,0-8,3.6-8,8v5.3
			c0,3.4,2.1,6.4,5.3,7.5v6.3c-3.2,1.1-5.3,4.1-5.3,7.5v5.3c0,4.4,3.6,8,8,8h53.3c4.4,0,8-3.6,8-8v-5.3c0-3.4-2.1-6.4-5.3-7.5v-6.3
			c3.2-1.1,5.3-4.1,5.3-7.5V120c0-4.4-3.6-8-8-8h-24v-2.7c0-1.5,1.2-2.7,2.7-2.7h80c1.5,0,2.7,1.2,2.7,2.7v2.7h-24c-4.4,0-8,3.6-8,8
			v5.3c0,3.4,2.1,6.4,5.3,7.5v6.3c-3.2,1.1-5.3,4.1-5.3,7.5v5.3c0,4.4,3.6,8,8,8H172c4.4,0,8-3.6,8-8v-5.3c0-3.4-2.1-6.4-5.3-7.5
			v-6.3c3.2-1.1,5.3-4.1,5.3-7.5V120C180,115.6,176.4,112,172,112z M52,88c-11.9-0.4-21.4-10.2-21.4-22.1S40.1,44.2,52,43.9h0.4
			c1.4,0.1,2.5-0.9,2.7-2.3c1.7-12.1,11.9-21.2,24.1-21.4c2.2,0,4.4,0.3,6.5,0.9c1.1,0.3,2.4-0.1,3-1.2c5.5-9.1,15.4-14.6,26-14.6
			c15.5,0.3,28.5,11.8,30.6,27.1c0.2,1.1,1.1,2,2.2,2.2c12.8,2.3,22,13.5,21.8,26.5c0.2,14.6-11.4,26.6-26,26.8h-40.7v-8h18.7
			c4.4,0,8-3.6,8-8v-3c5.2-1.3,8.6-6.3,7.9-11.7S132,48,126.7,48c-5.4,0-9.9,4-10.6,9.3s2.7,10.3,7.9,11.7v3c0,1.5-1.2,2.7-2.7,2.7
			h-18.7V50.3c5.2-1.3,8.6-6.3,7.9-11.7c-0.7-5.3-5.2-9.3-10.6-9.3s-9.9,4-10.6,9.3c-0.7,5.3,2.7,10.3,7.9,11.7v24.4H78.7
			c-1.5,0-2.7-1.2-2.7-2.7v-3c5.2-1.3,8.6-6.3,7.9-11.7S78.7,48,73.3,48s-9.9,4-10.6,9.3s2.7,10.3,7.9,11.7v3c0,4.4,3.6,8,8,8h18.7
			v8H52z M126.7,64c-2.9,0-5.3-2.4-5.3-5.3c0-2.9,2.4-5.3,5.3-5.3c2.9,0,5.3,2.4,5.3,5.3C132,61.6,129.6,64,126.7,64z M100,45.3
			c-2.9,0-5.3-2.4-5.3-5.3c0-2.9,2.4-5.3,5.3-5.3s5.3,2.4,5.3,5.3S102.9,45.3,100,45.3z M73.3,64c-2.9,0-5.3-2.4-5.3-5.3
			c0-2.9,2.4-5.3,5.3-5.3c2.9,0,5.3,2.4,5.3,5.3C78.7,61.6,76.3,64,73.3,64z M78.7,133.3v5.3h-48v-5.3H78.7z M84,152
			c0,1.5-1.2,2.7-2.7,2.7H46.7V150c0-1.5-1.2-1.4-2.7-1.4c-1.5,0-2.7-0.1-2.7,1.4v4.6H36V150c0-1.5-1.2-1.4-2.7-1.4
			s-2.7-0.1-2.7,1.4v4.6H28c-1.5,0-2.7-1.2-2.7-2.7v-5.3c0-1.5,1.2-2.7,2.7-2.7h53.3c1.5,0,2.7,1.2,2.7,2.7V152z M84,120v5.3
			c0,1.5-1.2,2.7-2.7,2.7H46.7v-3.9c0-1.5-1.2-1.4-2.7-1.4c-1.5,0-2.7-0.1-2.7,1.4v3.9H36v-3.9c0-1.5-1.2-1.4-2.7-1.4
			s-2.7-0.1-2.7,1.4v3.9H28c-1.5,0-2.7-1.2-2.7-2.7V120c0-1.5,1.2-2.7,2.7-2.7h53.3C82.8,117.3,84,118.5,84,120z M169.3,133.3v5.3
			h-48v-5.3H169.3z M174.7,152c0,1.5-1.2,2.7-2.7,2.7h-34.7V150c0-1.5-1.2-1.4-2.7-1.4c-1.5,0-2.7-0.1-2.7,1.4v4.6h-5.3V150
			c0-1.5-1.2-1.4-2.7-1.4s-2.7-0.1-2.7,1.4v4.6h-2.7c-1.5,0-2.7-1.2-2.7-2.7v-5.3c0-1.5,1.2-2.7,2.7-2.7H172c1.5,0,2.7,1.2,2.7,2.7
			V152z M174.7,125.3c0,1.5-1.2,2.7-2.7,2.7h-34.7v-3.9c0-1.5-1.2-1.4-2.7-1.4c-1.5,0-2.7-0.1-2.7,1.4v3.9h-5.3v-3.9
			c0-1.5-1.2-1.4-2.7-1.4s-2.7-0.1-2.7,1.4v3.9h-2.7c-1.5,0-2.7-1.2-2.7-2.7V120c0-1.5,1.2-2.7,2.7-2.7H172c1.5,0,2.7,1.2,2.7,2.7
			V125.3z"/>
	</g>
</g>
</svg>
