<?xml version="1.0" encoding="utf-8"?>
<!-- Generator: Adobe Illustrator 22.1.0, SVG Export Plug-In . SVG Version: 6.00 Build 0)  -->
<svg version="1.1" id="Слой_1" xmlns="http://www.w3.org/2000/svg" xmlns:xlink="http://www.w3.org/1999/xlink" x="0px" y="0px"
	 viewBox="0 0 200 160" style="enable-background:new 0 0 200 160;" xml:space="preserve">
<style type="text/css">
	.st0{fill:#000000;}
</style>
<g>
	<g>
		<path class="st0" d="M31.6,10.5h3.9c0.5,0,0.9,0.4,0.9,0.9v3.9c0,0.5-0.4,0.9-0.9,0.9h-3.9c-0.5,0-0.9-0.4-0.9-0.9v-3.9
			C30.7,10.9,31.1,10.5,31.6,10.5z"/>
		<path class="st0" d="M42.1,10.5h3.9c0.5,0,0.9,0.4,0.9,0.9v3.9c0,0.5-0.4,0.9-0.9,0.9h-3.9c-0.5,0-0.9-0.4-0.9-0.9v-3.9
			C41.2,10.9,41.6,10.5,42.1,10.5z"/>
		<path class="st0" d="M52.6,10.5h3.9c0.5,0,0.9,0.4,0.9,0.9v3.9c0,0.5-0.4,0.9-0.9,0.9h-3.9c-0.5,0-0.9-0.4-0.9-0.9v-3.9
			C51.7,10.9,52.1,10.5,52.6,10.5z"/>
		<path class="st0" d="M172,0H28c-4.4,0-8,3.6-8,8v128c0,4.4,3.6,8,8,8h125.9l5.5,11.5c1.9,4,6.7,5.6,10.7,3.7
			c4-1.9,5.6-6.7,3.7-10.7l-2.2-4.5h0.3c4.4,0,8-3.6,8-8V8C180,3.6,176.4,0,172,0z M169.2,152.9c-0.5,1.4-2,2.1-3.4,1.7
			c-0.7-0.2-1.2-0.7-1.5-1.3l-11.4-23.7l4.8-2.3l11.4,23.7C169.4,151.5,169.4,152.2,169.2,152.9z M150.6,124.7l-2.3-4.8l4.8-2.3
			l2.3,4.8L150.6,124.7z M174.7,136c0,1.5-1.2,2.7-2.7,2.7h-2.9l-7.6-15.8c0-0.2-0.1-0.3-0.2-0.5c-0.1-0.2-0.2-0.3-0.3-0.4l-4.4-9.1
			c-0.6-1.3-2.2-1.9-3.6-1.2c0,0,0,0,0,0l-2.4,1.2l-2.2-4.4c18.5-9.1,26.1-31.5,16.9-50c-9.1-18.5-31.5-26-50-16.9
			c-19.6,9.5-20.4,28-20.4,28c-3,20.4,11,39.4,31.4,42.4c5.7,0.9,11.6,0.4,17.1-1.4l2.3,4.7l-2.4,1.2c-1.3,0.6-1.9,2.2-1.2,3.6
			l9.1,18.9H28c-1.5,0-2.7-1.2-2.7-2.7V26.7h79.3c0.8,0,1.5,0,2.2-0.1c0.2,0,0.4,0,0.6,0.1h67.3V136z M132,106.9
			c-17.7,0-32-14.3-32-32c0-17.7,14.3-32,32-32c17.7,0,32,14.3,32,32C164,92.5,149.7,106.9,132,106.9z M174.7,21.3H25.3V8
			c0-1.5,1.2-2.7,2.7-2.7h144c1.5,0,2.7,1.2,2.7,2.7V21.3z"/>
		<path class="st0" d="M132,101.5c14.7,0,26.7-11.9,26.7-26.7S146.7,48.2,132,48.2s-26.7,11.9-26.7,26.7
			C105.3,89.6,117.3,101.5,132,101.5z M132,53.5c11.8,0,21.3,9.6,21.3,21.3s-9.6,21.3-21.3,21.3c-11.8,0-21.3-9.6-21.3-21.3
			C110.7,63.1,120.2,53.5,132,53.5L132,53.5z"/>
	</g>
	<path class="st0" d="M48,41.8h19.9c0.5,0,0.9,0.4,0.9,0.9v3.6c0,0.5-0.4,0.9-0.9,0.9H48c-0.5,0-0.9-0.4-0.9-0.9v-3.6
		C47.1,42.2,47.5,41.8,48,41.8z"/>
	<path class="st0" d="M48,34.2h33.8c0.5,0,0.9,0.4,0.9,0.9v3.6c0,0.5-0.4,0.9-0.9,0.9H48c-0.5,0-0.9-0.4-0.9-0.9v-3.6
		C47.1,34.6,47.5,34.2,48,34.2z"/>
	<path class="st0" d="M92.1,125.1h16.2c0.5,0,0.9,0.4,0.9,0.9v3.6c0,0.5-0.4,0.9-0.9,0.9H92.1c-0.5,0-0.9-0.4-0.9-0.9V126
		C91.2,125.5,91.6,125.1,92.1,125.1z"/>
	<path class="st0" d="M92.1,117.5h26.5c0.5,0,0.9,0.4,0.9,0.9v3.6c0,0.5-0.4,0.9-0.9,0.9H92.1c-0.5,0-0.9-0.4-0.9-0.9v-3.6
		C91.2,117.9,91.6,117.5,92.1,117.5z"/>
	<path class="st0" d="M168.1,29.1h-10.3c-1.4,0-1.4,1-1.4,2.4c0,1.4,0,2.7,1.4,2.7h4.1l-34.3,34.3l-2-2c-1-1-2.6-1-3.6,0l-40.8,40.8
		l-5.9-5.9c-1-1-2.6-1-3.6,0L43.9,129c-1,1-0.1,1.8,0.9,2.8c1,1,1.7,1.9,2.7,0.9l25.9-25.9l5.9,5.9c1,1,2.6,1,3.6,0L123.7,72l2,2
		c1,1,2.6,1,3.6,0l36.1-36.1V42c0,1.4,1.2,1.5,2.6,1.5c1.4,0,2.6-0.1,2.6-1.5V31.7C170.6,30.3,169.5,29.1,168.1,29.1z"/>
	<path class="st0" d="M50.6,85.8l4.4,8.9c0.4,0.9,1.3,1.4,2.3,1.4h10.3c1.4,0,1.2-1.2,1.2-2.6c0-1.4,0.3-2.6-1.2-2.6h-8.7l-4.4-8.9
		c-0.4-0.9-1.3-1.4-2.3-1.4H32.9c-1.4,0-1.3,1.1-1.3,2.5c0,1.4-0.1,2.7,1.3,2.7H50.6z"/>
	<path class="st0" d="M34.2,78.1h7.7c1.4,0,2.6-1.2,2.6-2.6V36.9c0-1.4-1.2-2.6-2.6-2.6h-7.7c-1.4,0-2.6,1.2-2.6,2.6v38.6
		C31.6,76.9,32.7,78.1,34.2,78.1z M36.7,39.4h2.6v33.5h-2.6V39.4z"/>
	<path class="st0" d="M49.6,78.1h7.7c1.4,0,2.6-1.2,2.6-2.6V52.3c0-1.4-1.2-2.6-2.6-2.6h-7.7c-1.4,0-2.6,1.2-2.6,2.6v23.2
		C47,76.9,48.2,78.1,49.6,78.1z M52.2,54.9h2.6v18h-2.6V54.9z"/>
</g>
</svg>
