<?xml version="1.0" encoding="utf-8"?>
<!-- Generator: Adobe Illustrator 22.1.0, SVG Export Plug-In . SVG Version: 6.00 Build 0)  -->
<svg version="1.1" id="Слой_1" width="36" xmlns="http://www.w3.org/2000/svg" xmlns:xlink="http://www.w3.org/1999/xlink" x="0px" y="0px"
	 viewBox="0 0 200 160" style="enable-background:new 0 0 200 160;" xml:space="preserve">
<style type="text/css">
	.st0{fill:#000000;}
</style>
<g>
	<path class="st0" d="M119,59.3c-16.7,0-30.3,13.6-30.3,30.3s13.6,30.3,30.3,30.3s30.3-13.6,30.3-30.3S135.7,59.3,119,59.3z
		 M119,114.3c-13.6,0-24.7-11.1-24.7-24.7s11.1-24.7,24.7-24.7s24.7,11.1,24.7,24.7S132.7,114.3,119,114.3z"/>
	<path class="st0" d="M119,74.5c-1.5,0-1.7,1.2-1.7,2.7c0,1.5,0.1,2.9,1.7,2.9c5.3,0,9.6,4.3,9.6,9.6c0,1.5,1.2,1.5,2.8,1.5
		c1.5,0,2.8,0.1,2.8-1.5C134.1,81.2,127.4,74.5,119,74.5z"/>
	<path class="st0" d="M58.7,47.1l8.8-18.3c0.3-0.7,0.4-1.4,0.1-2.1c-0.2-0.7-0.7-1.3-1.4-1.6c-0.7-0.3-1.4-0.4-2.1-0.1
		c-0.7,0.2-1.3,0.7-1.6,1.4l-6.4,13.3l-6.9-13.4c-0.5-0.9-1.4-1.5-2.5-1.5c0,0,0,0,0,0c-1.1,0-2,0.6-2.5,1.6l-6.4,13.3l-6.9-13.4
		c-0.5-1-1.5-1.5-2.5-1.5c-0.4,0-0.9,0.1-1.3,0.3c-0.7,0.3-1.1,0.9-1.4,1.6c-0.2,0.7-0.2,1.5,0.2,2.1l9.5,18.3
		c0.5,0.9,1.4,1.5,2.5,1.5c0,0,0,0,0,0c1,0,2-0.6,2.5-1.6l6.4-13.3l6.9,13.4c0.5,0.9,1.4,1.5,2.5,1.5C57.3,48.6,58.2,48,58.7,47.1z"
		/>
	<path class="st0" d="M74,89.6c0,24.8,20.2,45.1,45.1,45.1c7.9,0,15.6-2.1,22.4-6l0.5-0.3l28.4,28.4c2.1,2.1,4.9,3.3,7.9,3.3
		s5.8-1.2,7.9-3.3c4.4-4.4,4.4-11.5,0-15.8L174,128.7c-1.1-1.1-2.1-0.3-3.2,0.8c-1.1,1.1-1.8,2-0.7,3.1l12.2,12.2
		c2.2,2.2,2.2,5.8,0,8c-2.2,2.2-5.8,2.2-8,0l-27.6-27.6l0.7-0.5c10.7-8.6,16.8-21.4,16.8-35.1c0-5.2-0.9-10.4-2.7-15.2l-0.4-1h15
		c7.4,0,13.3-6,13.3-13.3V13.5c0-7.4-6-13.3-13.3-13.3H67.2c-1.5,0-1.5,1.2-1.5,2.8c0,1.5,0,2.8,1.5,2.8h108.9
		c4.3,0,7.8,3.5,7.8,7.8V60c0,4.3-3.5,7.8-7.8,7.8h-16.9c-0.1,0-0.2,0-0.2,0l-0.5,0l-0.2-0.4c-5.4-9.5-14.1-16.8-24.4-20.4l-0.8-0.3
		l6.2-13l6.9,13.4c0.5,0.9,1.4,1.5,2.5,1.5c1.1,0,2-0.6,2.5-1.6l8.8-18.3c0.3-0.7,0.4-1.4,0.1-2.1c-0.2-0.7-0.7-1.3-1.4-1.6
		c-0.7-0.3-1.4-0.4-2.1-0.1c-0.7,0.2-1.3,0.7-1.6,1.4l-6.4,13.3l-6.9-13.4c-0.5-0.9-1.5-1.5-2.5-1.5c-1.1,0-2,0.6-2.5,1.6l-6.4,13.3
		l-6.9-13.4c-0.7-1.4-2.4-1.9-3.7-1.2c-1.4,0.7-1.9,2.4-1.2,3.7l8.5,16.4l-1.4-0.2c-6.3-0.9-12.7-0.5-18.8,1.2l-1.6,0.5l8.6-17.9
		c0.3-0.7,0.4-1.4,0.1-2.1c-0.2-0.7-0.7-1.3-1.4-1.6c-0.7-0.3-1.4-0.4-2.1-0.1c-0.7,0.2-1.3,0.7-1.6,1.4l-6.4,13.3l-6.9-13.4
		c-0.5-0.9-1.4-1.5-2.5-1.5c-1.1,0-2,0.6-2.5,1.6l-6.4,13.3l-6.9-13.4c-0.7-1.4-2.4-1.9-3.7-1.2c-1.4,0.7-1.9,2.4-1.2,3.7l9.5,18.3
		c0.5,0.9,1.5,1.5,2.5,1.5c1,0,2-0.6,2.4-1.6L93,33.8l6.9,13.4c0.1,0.2,0.2,0.3,0.3,0.4l0.6,0.7l-0.9,0.4
		c-8.4,3.9-15.6,10.6-20.2,18.6l-0.2,0.4H23.9c-4.3,0-7.8-3.5-7.8-7.8V13.5c0-4.3,3.5-7.8,7.8-7.8h15.9c1.5,0,1.2-1.2,1.2-2.8
		c0-1.5,0.3-2.8-1.2-2.8H23.9c-7.4,0-13.3,6-13.3,13.3V60c0,7.4,6,13.3,13.3,13.3H77l-0.4,1C74.9,79.2,74,84.3,74,89.6z M119,50.1
		c21.8,0,39.5,17.7,39.5,39.5s-17.7,39.5-39.5,39.5c-21.8,0-39.5-17.7-39.5-39.5S97.2,50.1,119,50.1z"/>
	<path class="st0" d="M51.7,0h3.9c0.5,0,0.9,0.4,0.9,0.9v3.9c0,0.5-0.4,0.9-0.9,0.9h-3.9c-0.5,0-0.9-0.4-0.9-0.9V0.9
		C50.8,0.4,51.2,0,51.7,0z"/>
	<path class="st0" d="M164.8,119.4l2.8,2.8c0.4,0.4,0.4,0.9,0,1.3l-2.8,2.8c-0.4,0.4-0.9,0.4-1.3,0l-2.8-2.8c-0.4-0.4-0.4-0.9,0-1.3
		l2.8-2.8C163.9,119.1,164.5,119,164.8,119.4z"/>
</g>
</svg>
