<?xml version="1.0" encoding="utf-8"?>
<!-- Generator: Adobe Illustrator 22.1.0, SVG Export Plug-In . SVG Version: 6.00 Build 0)  -->
<svg version="1.1" id="Слой_1" xmlns="http://www.w3.org/2000/svg" xmlns:xlink="http://www.w3.org/1999/xlink" x="0px" y="0px"
	 viewBox="0 0 200 160" style="enable-background:new 0 0 200 160;" xml:space="preserve">
<style type="text/css">
	.st0{fill:#000000;}
</style>
<g>
	<path class="st0" d="M124.2,21.5h4c0.5,0,0.9,0.4,0.9,0.9v4c0,0.5-0.4,0.9-0.9,0.9h-4c-0.5,0-0.9-0.4-0.9-0.9v-4
		C123.3,21.9,123.7,21.5,124.2,21.5z"/>
	<path class="st0" d="M138.6,21.5h50.5c0.5,0,0.9,0.4,0.9,0.9V26c0,0.5-0.4,0.9-0.9,0.9h-50.5c-0.5,0-0.9-0.4-0.9-0.9v-3.6
		C137.7,21.9,138.1,21.5,138.6,21.5z"/>
	<path class="st0" d="M124.2,36h11.1c0.5,0,0.9,0.4,0.9,0.9v3.6c0,0.5-0.4,0.9-0.9,0.9h-11.1c-0.5,0-0.9-0.4-0.9-0.9v-3.6
		C123.3,36.4,123.7,36,124.2,36z"/>
	<path class="st0" d="M145.8,36h25.4c0.5,0,0.9,0.4,0.9,0.9v3.6c0,0.5-0.4,0.9-0.9,0.9h-25.4c-0.5,0-0.9-0.4-0.9-0.9v-3.6
		C144.8,36.4,145.3,36,145.8,36z"/>
	<path class="st0" d="M124.2,50.4h11.1c0.5,0,0.9,0.4,0.9,0.9v3.6c0,0.5-0.4,0.9-0.9,0.9h-11.1c-0.5,0-0.9-0.4-0.9-0.9v-3.6
		C123.3,50.8,123.7,50.4,124.2,50.4z"/>
	<g>
		<path class="st0" d="M201.5,0H22.1c-5.5,0-10,4.5-10,10v119.2H7.8c-1.6,0-2.8,1.3-2.8,2.8V150c0,5.5,4.5,10,10,10h193.8
			c5.5,0,10-4.5,10-10V132c0-1.6-1.3-2.8-2.8-2.8h-4.3V10C211.5,4.5,207.1,0,201.5,0z M17.8,10c0-2.4,1.9-4.3,4.3-4.3h179.4
			c2.4,0,4.3,1.9,4.3,4.3v119.2H17.8V10z M137.7,134.9v4.3c0,2.4-1.9,4.3-4.3,4.3H90.3c-2.4,0-4.3-1.9-4.3-4.3v-4.3H137.7z
			 M213,134.9V150c0,2.4-1.9,4.3-4.3,4.3H14.9c-2.4,0-4.3-1.9-4.3-4.3v-15.1h69.7v4.3c0,5.5,4.5,10,10,10h43.1c5.5,0,10-4.5,10-10
			v-4.3H213z"/>
		<path class="st0" d="M43.6,43.1H29.3c-1.6,0-2.8,1.3-2.8,2.8v22.3h-3.6v5.7h84.6v-5.7h-3.6v-51c0-1.6-1.3-2.8-2.8-2.8H86.7
			c-1.6,0-2.8,1.3-2.8,2.8v51h-8.7V28c0-1.6-1.3-2.8-2.8-2.8H58c-1.6,0-2.8,1.3-2.8,2.8v40.2h-8.7V45.9
			C46.5,44.3,45.2,43.1,43.6,43.1z M40.8,68.2h-8.7V48.8h8.7V68.2z M89.5,20.1h8.7v48.1h-8.7V20.1z M60.8,30.8h8.7v37.4h-8.7V30.8z"
			/>
		<path class="st0" d="M162.1,68.2c-15.4,0-28,12.5-28,28s12.5,28,28,28s28-12.5,28-28c0-1.6-1.3-2.8-2.8-2.8h-22.3V71
			C164.9,69.5,163.6,68.2,162.1,68.2z M184.2,99l-0.1,0.9c-1.8,10.7-11.1,18.5-22,18.6c0,0,0,0,0,0c-11.5,0-21.2-9-22.2-20.4
			c-1-11.5,7.2-21.9,18.5-23.8l0.9-0.1v22.1c0,1.6,1.3,2.8,2.8,2.8H184.2z"/>
		<path class="st0" d="M172.8,57.4c-1.6,0-2.8,1.3-2.8,2.8v25.1c0,1.6,1.3,2.8,2.8,2.8h25.1c1.6,0,2.8-1.3,2.8-2.8
			C200.8,70,188.2,57.4,172.8,57.4z M194.9,82.5h-19.3V63.3l0.9,0.1c9.3,1.6,16.7,8.9,18.2,18.2L194.9,82.5z"/>
		<path class="st0" d="M106.2,92.8c1.5-2,1.7-4.5,0.6-6.7c-1.1-2.2-3.3-3.6-5.7-3.6c-3.6,0-6.4,2.9-6.4,6.4c0,0.7,0.1,1.4,0.4,2.1
			l0.1,0.4l-14,16.4l-0.4-0.1c-1.3-0.2-2.6-0.1-3.8,0.5l-0.4,0.2L60.7,97.2l0.1-0.7c0-0.1,0-0.2,0-0.3c0-2.5-1.3-4.7-3.6-5.8
			c-2.2-1.1-4.8-0.9-6.8,0.6c-2,1.5-2.9,3.9-2.4,6.4l0.1,0.4l-16.4,14l-0.4-0.1c-0.7-0.2-1.4-0.4-2.1-0.4c0,0,0,0-0.1,0
			c-2.7,0-5.2,1.7-6.1,4.3c-0.9,2.6-0.2,5.5,1.9,7.2c2.1,1.8,5.1,2,7.5,0.6c2.4-1.4,3.6-4.1,3.1-6.8l-0.1-0.4l16.4-14l0.4,0.2
			c1.5,0.6,3.3,0.5,4.7-0.2l0.4-0.2l15.8,11.3l-0.1,0.7c0,0.1,0,0.2,0,0.3c0,3.6,2.9,6.4,6.4,6.4s6.4-2.9,6.4-6.4
			c0-0.7-0.1-1.4-0.4-2.1l-0.1-0.4l14-16.4l0.4,0.1C102.3,95.8,104.7,94.8,106.2,92.8z"/>
	</g>
</g>
</svg>
