<?xml version="1.0" encoding="utf-8"?>
<!-- Generator: Adobe Illustrator 22.1.0, SVG Export Plug-In . SVG Version: 6.00 Build 0)  -->
<svg version="1.1" id="Слой_1" xmlns="http://www.w3.org/2000/svg" xmlns:xlink="http://www.w3.org/1999/xlink" x="0px" y="0px"
	 viewBox="0 0 200 160" style="enable-background:new 0 0 200 160;" xml:space="preserve">
<style type="text/css">
	.st0{fill:#000000;}
</style>
<g>
	<path class="st0" d="M188.1,44.8V32.7c0-0.6-0.4-1.1-0.9-1.3l-5.6-2c-0.7-2.4-1.6-4.6-2.8-6.8l2.8-5.7c0.1-0.3,0.1-0.6-0.1-0.9
		L172.3,7c-0.4-0.4-0.9-0.5-1.4-0.2l-5.4,2.6c-2.2-1.2-4.4-2.1-6.8-2.8l-2-5.6C156.5,0.3,156,0,155.5,0H143c-0.5,0-1,0.3-1.1,0.8
		l-2,5.7c-2.3,0.7-4.6,1.6-6.8,2.8l-5.3-2.5c-0.6-0.3-1.2-0.2-1.7,0.3l-8.6,8.6c-0.5,0.5-0.6,1.2-0.3,1.8l2.5,5.2
		c-1.2,2.1-2.1,4.4-2.8,6.8l-5.8,2c-0.4,0.2-0.7,0.6-0.7,1.1V36H54.3V18.5c0-1.7-1.4-3.1-3.1-3.1h-10c-7.2,0-13.1,5.9-13.1,13.1
		v118.4c0,7.2,5.9,13.1,13.1,13.1h113.7c1.3,0,2.3-1,2.3-2.3V75.3l1.5-4.2c2.3-0.7,4.6-1.6,6.8-2.8l5.1,2.4c0.7,0.3,1.5,0.2,2-0.3
		l8.2-8.2c0.6-0.6,0.7-1.5,0.4-2.2l-2.4-5c1.2-2.1,2.1-4.4,2.8-6.8l5.4-1.9C187.6,46.1,188.1,45.5,188.1,44.8z M172.4,54.7l2.6,5.4
		l-4.5,4.5l-5.2-2.5l-0.1-0.1l-1.3,0.8c-2.5,1.5-5.2,2.6-8,3.3l-1.5,0.4l-2,5.6h-6.3l-2-5.6l-1.5-0.4c-2.8-0.7-5.5-1.8-8-3.3
		l-1.3-0.8l-5.4,2.6l-4.5-4.5l2.5-5.3l0.1-0.1l-0.8-1.3c-1.5-2.5-2.6-5.2-3.3-8l-0.4-1.5l-5.6-2v-6.3l5.5-1.9l0.1,0l0.4-1.5
		c0.7-2.8,1.8-5.5,3.3-8l0.8-1.3l-2.6-5.4l4.5-4.5l5.3,2.5l0.1,0.1l1.3-0.8c2.5-1.5,5.2-2.6,8-3.3l1.5-0.4l2-5.6h6.3l2,5.6l1.5,0.4
		c2.8,0.7,5.5,1.8,8,3.3l1.3,0.8l5.4-2.6l4.5,4.5l-2.5,5.3l-0.1,0.1l0.8,1.3c1.5,2.5,2.6,5.2,3.3,8l0.4,1.5l5.6,2V42l-5.5,1.9
		l-0.1,0l-0.4,1.5c-0.7,2.8-1.8,5.5-3.3,8L172.4,54.7z M116.9,48.2c0.7,2.4,1.6,4.6,2.8,6.8l-0.8,1.6h-8.1v-3.2
		c0-1.1-0.9-1.9-1.9-1.9H96.9c-1.1,0-1.9,0.9-1.9,1.9v3.2H74.8v-3.2c0-1.1-0.9-1.9-1.9-1.9H60.9c-1.1,0-1.9,0.9-1.9,1.9v12.1
		c0,1.1,0.9,1.9,1.9,1.9h3.2v22.7h-3.2c-1.1,0-1.9,0.9-1.9,1.9v12c0,1.1,0.9,1.9,1.9,1.9h3.2v22.7h-3.2c-1.1,0-1.9,0.9-1.9,1.9v12.1
		c0,1.1,0.9,1.9,1.9,1.9h12.1c1.1,0,1.9-0.9,1.9-1.9v-3.2H95v3.2c0,1.1,0.9,1.9,1.9,1.9h12.1c1.1,0,1.9-0.9,1.9-1.9v-3.2H131v3.2
		c0,1.1,0.9,1.9,1.9,1.9H145c1.1,0,1.9-0.9,1.9-1.9v-12.1c0-1.1-0.9-1.9-1.9-1.9h-3.2V106h3.2c1.1,0,1.9-0.9,1.9-1.9V92
		c0-1.1-0.9-1.9-1.9-1.9h-3.2V76.6l0.4,1.1h9.5v76.8l-110,0c-3.9,0-7.5-2.8-7.9-6.7c-0.5-4.5,3.1-8.3,7.5-8.3h9.2
		c2.2,0,3.9-1.8,3.9-3.9V41.6h56.2V46L116.9,48.2z M136.6,100.4v-4.7h4.7v4.7H136.6z M105.3,134.3v4.7h-4.7v-4.7H105.3z M69.2,134.3
		v4.7h-4.7v-4.7H69.2z M100.6,61.8v-4.7h4.7v4.7H100.6z M69.2,57.1v4.7h-4.7v-4.7H69.2z M69.2,95.7v4.7h-4.7v-4.7H69.2z M136.6,139
		v-4.7h4.7v4.7H136.6z M136.2,90.1h-3.2c-1.1,0-1.9,0.9-1.9,1.9v12c0,1.1,0.9,1.9,1.9,1.9h3.2v22.7h-3.2c-1.1,0-1.9,0.9-1.9,1.9v3.2
		h-20.1v-3.2c0-1.1-0.9-1.9-1.9-1.9H96.9c-1.1,0-1.9,0.9-1.9,1.9v3.2H74.8v-3.2c0-1.1-0.9-1.9-1.9-1.9h-3.2V106h3.2
		c1.1,0,1.9-0.9,1.9-1.9V92c0-1.1-0.9-1.9-1.9-1.9h-3.2V67.4h3.2c1.1,0,1.9-0.9,1.9-1.9v-3.2H95v3.2c0,1.1,0.9,1.9,1.9,1.9h12.1
		c1.1,0,1.9-0.9,1.9-1.9v-3.2h6.9l8.4,8.4c0.4,0.4,1.1,0.6,1.7,0.3l5.3-2.5c1,0.5,2,1.1,3.1,1.5V90.1z M33.7,136.2V28.5
		c0-4.1,3.4-7.5,7.5-7.5h7.5v112.8h-7.5C38.5,133.8,35.9,134.6,33.7,136.2z"/>
	<path class="st0" d="M153.8,15.9c-16.4-3.1-30.7,11.1-27.5,27.5c1.8,9.2,9.2,16.6,18.4,18.4c16.4,3.1,30.7-11.1,27.5-27.5
		C170.4,25.1,163,17.6,153.8,15.9z M131.7,36c1.7-10.7,13-18.1,24.2-13.7c3.5,1.4,6.5,4,8.5,7.2c5.7,9.6,1.6,20.8-7.2,25.2V39.7
		c0-2-1.6-3.6-3.6-3.6H131.7z M151.6,41.6v14.8c-0.9,0.1-1.6,0.2-2.4,0.2c-8.7,0-16.2-6.4-17.5-15H151.6z"/>
</g>
</svg>
