<?xml version="1.0" encoding="utf-8"?>
<!-- Generator: Adobe Illustrator 22.1.0, SVG Export Plug-In . SVG Version: 6.00 Build 0)  -->
<svg version="1.1" id="Слой_1" xmlns="http://www.w3.org/2000/svg" xmlns:xlink="http://www.w3.org/1999/xlink" x="0px" y="0px"
	 viewBox="0 0 200 160" style="enable-background:new 0 0 200 160;" xml:space="preserve">
<style type="text/css">
	.st0{fill:#000000;}
</style>
<path class="st0" d="M115.4,142.9l7.1,13.8c0.9,2.1,2.9,3.3,5.4,3.3c0.9,0,1.9-0.3,2.8-0.6l49.7-25.9c1.5-0.7,2.5-2,3-3.5
	c0.5-1.5,0.4-3.2-0.3-4.6l-7.1-13.8c-1.5-2.7-4.8-3.9-7.4-2.7l-0.9,0.4l-0.2-0.9c-0.3-1.9-1-3.9-1.9-5.8l-16.1-31.3
	c-1-1.6-1.9-2.8-3.4-3.7l-0.4-0.2V52.1c0-1.4-0.8-2.4-2.1-2.6l-15.9-3.8l-0.1-0.4c-0.1-0.4-0.3-0.8-0.5-1.2
	c-0.3-0.6-0.6-1.4-0.9-2.3l-0.1-0.3l8.6-13.7c0.4-0.9,0.6-2.3-0.2-3.1c0,0-13.6-14-13.9-14.1c-0.5-0.2-1.1,0-1.6,0.4L105,19.7
	l-4-1.6L97.2,2.1C97,0.8,95.9,0,94.6,0H76.1c-1.4,0-2.4,0.8-2.6,2.1L69.6,18l-3.7,1.6L52.1,11c-1-0.5-2.3-0.3-3.1,0.6L35.9,24.7
	c-0.8,0.8-1,2.4-0.6,3.1l8.6,14.1L42.4,46l-15.9,3.8c-1,0.3-2.1,1.3-2.1,2.6v18.8c0.2,0.8,1,2,2.4,2.3l0,0l15.9,3.8l1.6,4.1
	l-8.6,13.7c-0.4,0.9-0.6,2.3,0.2,3.1L49,111.4c0.7,0.7,2,1.1,3.1,0.3l13.8-8.6l3.7,1.6l3.8,15.9c0.3,1.3,1.3,2.1,2.6,2.1h18.5
	c0.8,0,1.3-0.2,1.8-0.8l0.4-0.4c0,0,17.8,12.1,19.9,13.1l1.1,0.5l-0.9,0.8C114.9,137.5,114.2,140.5,115.4,142.9z M172,113.3
	l7.7,15.5L128.6,155l-8.1-15.4L172,113.3z M78.9,118.4L75.4,103c-0.3-1-0.9-1.6-1.8-1.8c-2.1-0.7-4.2-1.4-5.9-2.4
	c-0.8-0.5-1.9-0.2-2.7,0.1l-13.1,8.3L41.5,96.9l8-13.3c0.5-0.8,0.5-1.8,0-2.6c-1.1-2.1-1.8-3.9-2.4-5.5c-0.3-1-0.9-1.6-1.9-1.9
	l-15.3-3.5v-16l15-3.5c1-0.3,1.6-0.9,1.8-1.8c0.7-2.1,1.4-4.2,2.4-5.9c0.5-0.8,0.2-1.9-0.1-2.7l-8-13.1l10.3-10.3l13.3,8.4
	c0.8,0.5,1.8,0.5,2.6,0c2-1,3.7-1.7,5.8-2.4c0.8-0.5,1.3-1.3,1.6-2.3l3.5-15.3h14.3l3.5,15.2c0.6,0.9,1.2,1.7,2.2,1.9
	c2.2,0.7,3.9,1.4,5.9,2.4c0.8,0.5,1.9,0.3,2.8,0l13.1-8.3l10.3,10.3L121.8,40c-0.5,0.8-0.5,1.8,0,2.6c0.8,1.6,1.4,3.1,1.9,4.4
	c0.2,0.5,0.4,1,0.6,1.4c0.3,0.8,1.1,1.7,1.9,1.9l15.3,3.8v11.9c0,0-5.3,0.6-7.2,5.2l-0.4,0.6c0,0-2.1-0.6-2.6-0.6
	c-6.1-0.4-8.7,6-8.7,6s-6.3-1.9-10,1.9l-0.7,0.7l-2-4l0.2-0.3c2.4-4.5,3.6-9.1,3.6-13.8c0-15.5-12.5-28.2-27.9-28.2S58,46.3,58,61.8
	S70.5,90,85.8,90c3,0,6.3-0.6,9.5-1.6l0.6-0.2l5.7,10.9l-4.4-2.9c-4.9-3.3-11.4-2-14.8,2.8c-3.3,4.9-2,11.4,2.8,14.8l6.6,4.7H78.9z
	 M85.8,68.9l7.1,14.2l-0.8,0.3c-2,0.7-4.4,1-6.6,1c-12.5,0-22.6-10.3-22.6-22.9c0-12.7,10.1-22.9,22.6-22.9
	c12.5,0,22.6,10.3,22.6,22.9c0,2.3-0.3,4.4-1,6.9l-0.5,1.8l-4.9-9.4c-1.1-2.1-3-3.8-5.3-4.5c-2.3-0.7-4.7-0.4-6.8,0.7
	c-1.9,0.9-3.4,2.6-4.1,4.7C84.6,64.2,84.8,66.8,85.8,68.9z M88.1,109.2c-1.1-0.7-1.9-2-2.2-3.4c-0.3-1.4-0.1-2.9,0.7-4
	c1.6-2.4,5.1-3.1,7.4-1.6l13.1,9.1c1.1,0.7,2.3,0.3,3-0.2c0.7-0.6,1.4-1.7,0.9-3l0-0.4L90.9,66.5c-0.5-1-0.5-2.1-0.2-3.1
	c0.3-0.9,1-1.6,1.9-1.9c0.9-0.5,2.1-0.5,3.1-0.1c0.9,0.3,1.6,1,1.9,1.9l16.8,32.6c0.3,0.7,0.7,1.1,1.3,1.3c0.7,0.2,1.4,0.1,2-0.3
	c0.7-0.4,1.3-1.2,1.4-1.9c0.1-0.4,0.1-0.9-0.3-1.4l-3.4-6.5c-0.4-0.8-0.5-1.9-0.1-2.9c0.3-1,1-1.8,1.8-2.2c1-0.5,2.1-0.5,3.1-0.2
	c0.9,0.3,1.6,1,1.9,1.9c0.8,1.6,1.9,3.9,2.6,5.2l0.7,1.1c0.4,0.7,1.2,1.3,1.9,1.4c0.4,0.1,0.9,0.1,1.4-0.3c0.8-0.5,1.3-1.2,1.5-1.9
	c0.1-0.4,0.1-0.9-0.3-1.4l-2.8-5.5c-0.8-1.2-0.8-2.5,0-3.8c1.2-2.2,4.3-1.6,4.3-1.6c0.7,0.4,1.5,0.8,2.3,1.9l3.4,6.4
	c0.2,0.2,0.3,0.4,0.4,0.6c0.1,0.2,0.1,0.2,0.2,0.3c0.8,0.8,2.2,0.7,2.9,0.5c0.6-0.4,1.1-1.1,1.3-1.8c0.1-0.4,0.1-0.9-0.3-1.4L139,78
	c-0.9-2.2-0.3-4.1,1.4-4.9c1.5-0.8,4.1-1.1,5.3,0.7l16.1,31.2c1,2,1.4,4,1.4,6.7v0.5l-0.4,0.2l-35.2,18.2c-1,0.2-2,0.3-2.9,0.3
	C117.6,130.8,88.1,109.2,88.1,109.2z"/>
</svg>
