<?xml version="1.0" encoding="utf-8"?>
<!-- Generator: Adobe Illustrator 22.1.0, SVG Export Plug-In . SVG Version: 6.00 Build 0)  -->
<svg version="1.1" id="Слой_1" width="36" xmlns="http://www.w3.org/2000/svg" xmlns:xlink="http://www.w3.org/1999/xlink" x="0px" y="0px"
	 viewBox="0 0 200 160" style="enable-background:new 0 0 200 160;" xml:space="preserve">
<style type="text/css">
	.st0{fill:#000000;}
</style>
<g>
	<path class="st0" d="M166.8,12.5h3.9c0.5,0,0.9,0.4,0.9,0.9v3.9c0,0.5-0.4,0.9-0.9,0.9h-3.9c-0.5,0-0.9-0.4-0.9-0.9v-3.9
		C165.9,12.9,166.3,12.5,166.8,12.5z"/>
	<path class="st0" d="M180.1,78.4h3.9c0.5,0,0.9,0.4,0.9,0.9v3.9c0,0.5-0.4,0.9-0.9,0.9h-3.9c-0.5,0-0.9-0.4-0.9-0.9v-3.9
		C179.2,78.8,179.6,78.4,180.1,78.4z"/>
	<path class="st0" d="M152.7,12.5h3.9c0.5,0,0.9,0.4,0.9,0.9v3.9c0,0.5-0.4,0.9-0.9,0.9h-3.9c-0.5,0-0.9-0.4-0.9-0.9v-3.9
		C151.8,12.9,152.2,12.5,152.7,12.5z"/>
	<path class="st0" d="M138.6,12.5h3.9c0.5,0,0.9,0.4,0.9,0.9v3.9c0,0.5-0.4,0.9-0.9,0.9h-3.9c-0.5,0-0.9-0.4-0.9-0.9v-3.9
		C137.6,12.9,138.1,12.5,138.6,12.5z"/>
	<g>
		<path class="st0" d="M169.4,0H40c-8.5,0-15.3,6.9-15.3,15.3v101.1c0,8.5,6.9,15.3,15.3,15.3h43.1v5.1c0,1.5,0,5.1-8.2,5.1
			c-7.6,0-13.8,6.2-13.8,13.8v1.6c0,1.5,1.2,2.8,2.8,2.8h81.6c1.5,0,2.8-1.2,2.8-2.8v-1.6c0-7.6-6.2-13.8-13.8-13.8
			c-8.2,0-8.2-3.6-8.2-5.1v-5.1h43.1c8.5,0,15.3-6.9,15.3-15.3V95.7V93c0-0.5-0.4-0.9-0.9-0.9h-3.8c-0.5,0-0.9,0.4-0.9,0.9v2.7v11.7
			H30.3V30.7h148.9v36.8v2.1c0,0.5,0.4,0.9,0.9,0.9h3.8c0.5,0,0.9-0.4,0.9-0.9v-2.1V15.3C184.7,6.9,177.8,0,169.4,0z M134.5,147.4
			c3.9,0,7.3,2.8,8.1,6.6l0.1,0.4H66.7l0.1-0.4c0.8-3.8,4.2-6.6,8.1-6.6h19.5c1.5,0,2.8-1.2,2.8-2.8s-1.2-2.8-2.8-2.8h-6.9l0.2-0.5
			c0.6-1.3,0.9-2.9,0.9-4.6v-5.1h32.1v5.1c0,1.7,0.3,3.2,0.9,4.6l0.2,0.5h-6.7c-1.5,0-2.8,1.2-2.8,2.8s1.2,2.8,2.8,2.8H134.5z
			 M179.2,112.9v1.4v2.1c0,5.4-4.4,9.8-9.8,9.8H40c-5.4,0-9.8-4.4-9.8-9.8v-3.5H179.2z M30.3,25.1v-9.8c0-5.4,4.4-9.8,9.8-9.8h15.7
			l9.6,19.6H30.3z M71.4,25.1L61.9,5.5h107.5c5.4,0,9.8,4.4,9.8,9.8v9.8H71.4z"/>
	</g>
	<g>
		<path class="st0" d="M74.1,90c-5.6,0-10.3-1.9-14-5.6c-3.7-3.7-5.6-8.3-5.6-13.8c0-5.5,1.9-10.1,5.6-13.8c3.7-3.7,8.4-5.6,14-5.6
			c3.4,0,6.5,0.8,9.4,2.4c2.5,1.4,4.5,3.2,6.1,5.5c0.4,0.5,0.2,1.3-0.4,1.6l-3.3,1.9c-0.5,0.3-1.2,0.1-1.5-0.4
			c-1-1.4-2.2-2.6-3.8-3.5c-1.9-1.1-4-1.6-6.4-1.6c-4,0-7.2,1.3-9.7,3.8c-2.5,2.5-3.7,5.7-3.7,9.6c0,3.9,1.2,7.1,3.7,9.6
			c2.5,2.5,5.7,3.8,9.7,3.8c2.4,0,4.5-0.5,6.4-1.6c1.5-0.9,2.8-2,3.7-3.3c0.4-0.6,1.1-0.8,1.7-0.5l3.1,1.8c0.6,0.4,0.9,1.2,0.5,1.8
			c-1.5,2.2-3.5,4-5.9,5.4C80.7,89.2,77.5,90,74.1,90z"/>
		<path class="st0" d="M118.3,68.9v3.4c0,0.6-0.5,1-1,1h-8v8c0,0.6-0.5,1-1,1h-3.4c-0.6,0-1-0.5-1-1v-8h-8c-0.6,0-1-0.5-1-1v-3.4
			c0-0.6,0.5-1,1-1h8v-8c0-0.6,0.5-1,1-1h3.4c0.6,0,1,0.5,1,1v8h8C117.8,67.8,118.3,68.3,118.3,68.9z"/>
		<path class="st0" d="M147.7,68.9v3.4c0,0.6-0.5,1-1,1h-8v8c0,0.6-0.5,1-1,1h-3.4c-0.6,0-1-0.5-1-1v-8h-8c-0.6,0-1-0.5-1-1v-3.4
			c0-0.6,0.5-1,1-1h8v-8c0-0.6,0.5-1,1-1h3.4c0.6,0,1,0.5,1,1v8h8C147.2,67.8,147.7,68.3,147.7,68.9z"/>
	</g>
</g>
</svg>
