<?xml version="1.0" encoding="utf-8"?>
<!-- Generator: Adobe Illustrator 22.1.0, SVG Export Plug-In . SVG Version: 6.00 Build 0)  -->
<svg version="1.1" id="Слой_1" xmlns="http://www.w3.org/2000/svg" xmlns:xlink="http://www.w3.org/1999/xlink" x="0px" y="0px"
	 viewBox="0 0 200 160" style="enable-background:new 0 0 200 160;" xml:space="preserve">
<style type="text/css">
	.st0{fill:#000000;}
</style>
<g>
	<path class="st0" d="M158,52.3c-3.3,0-6.2,2.2-7.2,5.1h-3c-4.2,0-7.7,3.4-7.7,7.7v4.5c0,3.9,0.9,7.8,2.6,11.4v20h-39l-1.4-5.6
		c4.5-2.7,7.8-7.1,9.2-12.4h0.1c5.5,0,10.5-4.1,10.8-9.6c0.1-2.3-0.5-4.4-1.6-6.1c1.1-4.2,1.6-8.5,1.6-12.9v-9.8
		c0-3.3-1.6-6.2-4-8.1l0.6-1.9c1.2-3.5,3.9-6.2,7.2-7.3c-1.3,6,0.5,12.5,5,17l0.9,0.9c1.3,1.3,2.4,3,2.8,4.8c1,4.6-1.2,9.1-5.2,11.1
		l-3.4,1.7l2,4.1c0.1,0.3,0.5,0.4,0.7,0.2l2.3-1.2c4.7-2.4,8.2-6.9,8.8-12.1c0.5-4.6-1.1-9-4.3-12.2l-1.1-1.1
		c-4.1-4.1-5.1-10.3-2.5-15.4l1.9-3.7H130c-7.2,0-13.6,4.6-15.9,11.5l-0.5,1.5c-0.5-0.1-1-0.2-1.5-0.2h-1c0.7-1.6,1-3.4,1-5.2
		c0-5.6-3.5-10.8-8.8-12.7l-3.5-1.3c-4.4-1.7-6.9-6.4-5.7-10.9L95,0L84.9,2.5c-3.4,0.9-6.4,2.9-8.3,5.9c-2.1,3.2-2.9,7.1-2,10.8
		c0.8,3.6-1.2,7.2-4.5,8.8l-0.9,0.5c-3.8-4.4-9.3-7-15.1-7h-5.2l1.9,3.7c2.6,5.1,1.6,11.3-2.5,15.4l-0.7,0.7
		c-2.3,2.3-4.1,5.3-4.6,8.6c-1,6.6,2.3,12.9,8.1,15.8l3.4,1.7l1.9-3.9c0.2-0.4,0-0.9-0.4-1.1l-2.3-1.1c-3-1.5-5.4-4.4-5.8-7.8
		c-0.4-3.1,0.7-6.1,2.8-8.2l1.1-1.1c4.6-4.6,6.4-11.2,4.9-17.4c3.9,0.7,7.3,3,9.5,6.3l1.3,1.9l4.4-2.2c5.5-2.7,9-8.7,7.7-14.7
		c-0.5-2.4,0-4.9,1.3-6.9C82.1,9.4,84,8,86.2,7.5l2.4-0.6c0.2,5.7,3.8,10.9,9.3,13l3.5,1.3c3.3,1.2,5.5,4.4,5.5,7.9
		c0,1.3-0.3,2.6-0.9,3.8l-0.7,1.4H81.5c-11.5,0-20.8,9.3-20.8,20.8c0,1.7,0.2,3.4,0.6,5.1l1.6,6.3c-1.9,2.4-2.8,5.5-1.8,9
		C62.3,80,66.6,83,71.3,83h0.3c1.3,5.1,4.6,9.5,9,12.3l-1.4,5.7h-39V81c1.7-3.6,2.6-7.5,2.6-11.4v-4.5c0-4.2-3.4-7.7-7.7-7.7h-3
		c-1.1-3-3.9-5.1-7.2-5.1C17.7,52.3,12,58,12,65.1v4.5c0,3.9,0.9,7.9,2.6,11.5v32.8c0,7.1,5.7,12.8,12.8,12.8h35.9V160h56.4v-33.3
		h35.7c7.1,0,12.8-5.7,12.8-12.8V81.1c1.7-3.6,2.6-7.5,2.6-11.5v-4.5C170.8,58,165.1,52.3,158,52.3L158,52.3z M103.9,106.1
		l-1.6,11.2l-6.7-4l7.2-7.2L103.9,106.1z M91.5,153.2l-4.9-6.6l4.4-19.9h1l4.4,19.9L91.5,153.2z M92.9,121.5h-2.9l-2.3-2.5l3.7-2.2
		l3.7,2.2L92.9,121.5z M112,77.9V67.7c2.8,0,5.1,2.3,5.1,5.1C117.1,75.6,114.8,77.9,112,77.9z M116.3,63.5c-1.3-0.6-2.7-0.9-4.2-0.9
		v-0.2c1.9-1.1,3.5-2.4,5-4C116.8,60,116.6,61.8,116.3,63.5L116.3,63.5z M65.8,72.8c0-2.8,2.3-5.1,5.1-5.1v10.3
		C68.1,77.9,65.8,75.6,65.8,72.8z M71.5,62.5H71c-1.3,0-2.5,0.3-3.6,0.7L66.3,59c-0.3-1.2-0.5-2.5-0.5-3.8c0-8.7,7-15.7,15.7-15.7
		l30.5,0c2.7,0,5.1,2.1,5.1,4.9c0.1,8.6-6.8,15.6-15.4,15.6l-10,0c-2.6,0-4.9-1.7-5.3-4.3c-0.5-2.9,1.5-5.5,4.3-5.9
		c0.4-0.1,0.8-0.4,0.8-0.9v-3.4c0-0.5-0.4-0.9-0.9-0.9c-4.7,0.4-8.4,4-9.2,8.5l-3.3,1.7C74.9,56.4,72.6,59.2,71.5,62.5L71.5,62.5z
		 M76.1,77.9V66.3c0-2.9,1.6-5.6,4.3-6.9l1.6-0.8c1.5,3.8,5.2,6.5,9.5,6.5h10.3c1.8,0,3.5-0.2,5.1-0.7v13.5
		c0,8.5-6.9,15.4-15.4,15.4S76.1,86.4,76.1,77.9z M91.5,98.4c2.1,0,4-0.3,5.9-0.9l1.3,5.4l-7.3,7.3l-7.4-7.4l1.3-5.3
		C87.3,98.1,89.4,98.4,91.5,98.4z M80.2,106.1l7.2,7.2l-6.7,4l-1.6-11.2L80.2,106.1z M17.1,65.1c0-4.2,3.5-7.7,7.7-7.7
		c0.7,0,1.4,0.3,1.8,0.8c-2.9,1.4-4.9,4.6-4.3,8.2c0.6,3.8,4.1,6.4,7.9,6.4h0.9c0.7,0,1.3-0.6,1.3-1.3v-3.9h-2.6
		c-1.4,0-2.6-1.1-2.6-2.6c0-1.4,1.2-2.6,2.6-2.6h5.1c1.4,0,2.6,1.1,2.6,2.6v4.5c0,2.8-0.6,5.7-1.6,8.3H18.8
		c-1.1-2.6-1.7-5.5-1.7-8.3V65.1z M62.1,115.5l-2.7,1.8c-0.4,0.3-0.5,0.9-0.3,1.3l2,2.9H27.4c-4.2,0-7.7-3.4-7.7-7.7V83h15.4v26.8
		c0,0.8,0.6,1.4,1.4,1.4h2.3c0.8,0,1.4-0.6,1.4-1.4v-3.7h33.7l2.6,18.3c0.1,0.6,0.8,0.9,1.3,0.6l5.5-3.3l2.8,3.1L81,147.8l5.3,7.1
		h-18v-31.6l-5-7.6C63.1,115.3,62.5,115.2,62.1,115.5z M155.4,121.5h-33.5l1.9-2.9c0.3-0.4,0.2-1-0.3-1.3l-2.7-1.8
		c-0.4-0.3-1-0.2-1.3,0.3l-5,7.5v31.6h-18l5.3-7.1l-5.1-22.9l2.8-3.1l5.6,3.4c0.5,0.3,1.1,0,1.2-0.6l2.6-18.4h33.5v3.6
		c0,0.8,0.7,1.5,1.5,1.5h2.1c0.8,0,1.5-0.7,1.5-1.5V83h15.4v30.8C163.1,118.1,159.7,121.5,155.4,121.5L155.4,121.5z M165.7,69.6
		c0,2.8-0.6,5.7-1.7,8.3h-17.2c-1.1-2.6-1.6-5.5-1.6-8.3v-4.5c0-1.4,1.1-2.6,2.6-2.6h5.1c1.4,0,2.6,1.1,2.6,2.6
		c0,1.4-1.2,2.6-2.6,2.6h-2.6v3.9c0,0.7,0.6,1.3,1.3,1.3h0.9c3.8,0,7.3-2.6,7.9-6.4c0.6-3.6-1.3-6.8-4.3-8.2
		c0.5-0.5,1.1-0.8,1.8-0.8c4.2,0,7.7,3.5,7.7,7.7V69.6z"/>
	<path class="st0" d="M36.5,140.9l2.3,2.3c0.4,0.4,0.9,0.4,1.3,0l2.7-2.7v18.5c0,0.5,0.4,0.9,0.9,0.9H47c0.5,0,0.9-0.4,0.9-0.9
		v-18.5l2.7,2.7c0.4,0.4,0.9,0.4,1.3,0l2.3-2.3c0.4-0.4,0.4-0.9,0-1.3l-8.2-8.2c-0.4-0.4-0.9-0.4-1.3,0l-8.2,8.2
		C36.1,139.9,36.1,140.5,36.5,140.9z"/>
	<path class="st0" d="M128.8,140.9l2.3,2.3c0.4,0.4,1,0.4,1.3,0l2.6-2.6v18.5c0,0.5,0.4,0.9,0.9,0.9h3.2c0.5,0,0.9-0.4,0.9-0.9
		v-18.5l2.6,2.6c0.4,0.4,1,0.4,1.3,0l2.3-2.3c0.4-0.4,0.4-1,0-1.3l-8.2-8.2c-0.4-0.4-1-0.4-1.3,0l-8.2,8.2
		C128.5,139.9,128.5,140.5,128.8,140.9z"/>
</g>
</svg>
