<?xml version="1.0" encoding="utf-8"?>
<!-- Generator: Adobe Illustrator 22.1.0, SVG Export Plug-In . SVG Version: 6.00 Build 0)  -->
<svg version="1.1" id="Слой_1" xmlns="http://www.w3.org/2000/svg" xmlns:xlink="http://www.w3.org/1999/xlink" x="0px" y="0px"
	 viewBox="0 0 200 160" style="enable-background:new 0 0 200 160;" xml:space="preserve">
<style type="text/css">
	.st0{fill:#000000;}
</style>
<g>
	<path class="st0" d="M66.5,122.7h3.9c0.5,0,0.9,0.4,0.9,0.9v3.9c0,0.5-0.4,0.9-0.9,0.9h-3.9c-0.5,0-0.9-0.4-0.9-0.9v-3.9
		C65.6,123.2,66,122.7,66.5,122.7z"/>
	<path class="st0" d="M66.5,88h59c0.5,0,0.9,0.4,0.9,0.9v3.6c0,0.5-0.4,0.9-0.9,0.9h-59c-0.5,0-0.9-0.4-0.9-0.9v-3.6
		C65.6,88.4,66,88,66.5,88z"/>
	<path class="st0" d="M40.6,88h14.8c0.5,0,0.9,0.4,0.9,0.9v3.6c0,0.5-0.4,0.9-0.9,0.9H40.6c-0.5,0-0.9-0.4-0.9-0.9v-3.6
		C39.7,88.4,40.1,88,40.6,88z"/>
	<path class="st0" d="M40.6,105.6h14.8c0.5,0,0.9,0.4,0.9,0.9v3.6c0,0.5-0.4,0.9-0.9,0.9H40.6c-0.5,0-0.9-0.4-0.9-0.9v-3.6
		C39.7,106,40.1,105.6,40.6,105.6z"/>
	<path class="st0" d="M40.6,123.1h14.8c0.5,0,0.9,0.4,0.9,0.9v3.6c0,0.5-0.4,0.9-0.9,0.9H40.6c-0.5,0-0.9-0.4-0.9-0.9V124
		C39.7,123.5,40.1,123.1,40.6,123.1z"/>
	<path class="st0" d="M69.7,47.8h26.6c0.5,0,0.9,0.4,0.9,0.9v3.6c0,0.5-0.4,0.9-0.9,0.9H69.7c-0.5,0-0.9-0.4-0.9-0.9v-3.6
		C68.8,48.2,69.2,47.8,69.7,47.8z"/>
	<path class="st0" d="M85.7,37.2v26.6c0,0.5-0.4,0.9-0.9,0.9h-3.6c-0.5,0-0.9-0.4-0.9-0.9V37.2c0-0.5,0.4-0.9,0.9-0.9h3.6
		C85.3,36.3,85.7,36.7,85.7,37.2z"/>
	<path class="st0" d="M66.5,105.5h35.4c0.5,0,0.9,0.4,0.9,0.9v3.6c0,0.5-0.4,0.9-0.9,0.9H66.5c-0.5,0-0.9-0.4-0.9-0.9v-3.6
		C65.6,105.9,66,105.5,66.5,105.5z"/>
	<path class="st0" d="M83,23.2c-15,0-27.3,12.2-27.3,27.3S68,77.8,83,77.8s27.3-12.2,27.3-27.3S98.1,23.2,83,23.2z M83,72.2
		c-12,0-21.7-9.7-21.7-21.7c0-12,9.7-21.7,21.7-21.7s21.7,9.7,21.7,21.7C104.8,62.5,95,72.2,83,72.2z"/>
	<path class="st0" d="M143.3,92.5c1.5,0,2.8-1.2,2.8-2.8v-59c0-0.7-0.3-1.4-0.8-2L117.3,0.8c-0.5-0.5-1.2-0.8-2-0.8H29
		c-5,0-9,4.1-9,9v141.9c0,5,4.1,9.1,9,9.1h60c1.5,0,2.8-1.2,2.8-2.8c0-1.5-1.2-2.8-2.8-2.8H29c-1.9,0-3.5-1.6-3.5-3.5V9
		c0-1.9,1.6-3.5,3.5-3.5h83.6v18.9c0,5,4.1,9,9,9h18.9v56.2C140.5,91.3,141.8,92.5,143.3,92.5z M121.7,27.9c-1.9,0-3.5-1.6-3.5-3.5
		v-15l0.6,0.6l17.8,17.9H121.7z"/>
	<path class="st0" d="M160.9,160c10.5,0,19.1-8.6,19.1-19.1c0-10.5-8.6-19.1-19.1-19.1c-0.9,0-1.8,0.1-2.7,0.2l-0.6,0.1l0.2-0.5
		c2-6.7,0.2-14-4.8-19c-3.6-3.6-8.4-5.6-13.5-5.6c-5.1,0-9.9,2-13.5,5.6l-24.9,24.9c-3.6,3.6-5.6,8.4-5.6,13.5c0,5.1,2,9.9,5.6,13.5
		c3.6,3.6,8.4,5.6,13.5,5.6s9.9-2,13.5-5.6l13.6-13.6l0,0.8C142.2,151.9,150.6,160,160.9,160z M163.7,127.6l0.5,0.1
		c6.1,1.5,10.3,6.9,10.3,13.2c0,6.3-4.2,11.7-10.3,13.2l-0.5,0.1V127.6z M134.5,140.3l-10.2,10.2c-2.6,2.6-6.1,4-9.6,4
		s-6.9-1.3-9.6-4c-2.6-2.6-4-6-4-9.6c0-3.6,1.4-7,4-9.6l10.5-10.5l0.3,0.3l18.9,18.9L134.5,140.3z M138.7,136.1l-0.3-0.3l-18.9-18.9
		l10.5-10.5c2.6-2.6,6-4,9.6-4c3.6,0,7,1.4,9.6,4c2.6,2.6,4,6,4,9.6c0,3.6-1.4,7-4,9.6L138.7,136.1z M157.7,127.7l0.5-0.1v26.5
		l-0.5-0.1c-6.1-1.5-10.3-6.9-10.3-13.2C147.4,134.6,151.6,129.2,157.7,127.7z"/>
</g>
</svg>
