<?xml version="1.0" encoding="utf-8"?>
<!-- Generator: Adobe Illustrator 22.1.0, SVG Export Plug-In . SVG Version: 6.00 Build 0)  -->
<svg version="1.1" id="Слой_1" width="36" xmlns="http://www.w3.org/2000/svg" xmlns:xlink="http://www.w3.org/1999/xlink" x="0px" y="0px"
	 viewBox="0 0 200 160" style="enable-background:new 0 0 200 160;" xml:space="preserve">
<style type="text/css">
	.st0{fill:#000000;}
</style>
<g>
	<path class="st0" d="M123.8,0h3.9c0.5,0,0.9,0.4,0.9,0.9v3.9c0,0.5-0.4,0.9-0.9,0.9h-3.9c-0.5,0-0.9-0.4-0.9-0.9V0.9
		C122.8,0.4,123.2,0,123.8,0z"/>
	<path class="st0" d="M123.7,12.2h16.5c0.5,0,0.9,0.4,0.9,0.9v3.5c0,0.5-0.4,0.9-0.9,0.9h-16.5c-0.5,0-0.9-0.4-0.9-0.9v-3.5
		C122.8,12.6,123.2,12.2,123.7,12.2z"/>
	<path class="st0" d="M123.7,20.7h16.5c0.5,0,0.9,0.4,0.9,0.9v3.5c0,0.5-0.4,0.9-0.9,0.9h-16.5c-0.5,0-0.9-0.4-0.9-0.9v-3.5
		C122.8,21.1,123.2,20.7,123.7,20.7z"/>
	<path class="st0" d="M10.1,134H14c0.5,0,0.9,0.4,0.9,0.9v3.9c0,0.5-0.4,0.9-0.9,0.9h-3.9c-0.5,0-0.9-0.4-0.9-0.9v-3.9
		C9.2,134.4,9.6,134,10.1,134z"/>
	<path class="st0" d="M10.1,146.2h16.5c0.5,0,0.9,0.4,0.9,0.9v3.5c0,0.5-0.4,0.9-0.9,0.9H10.1c-0.5,0-0.9-0.4-0.9-0.9v-3.5
		C9.2,146.6,9.6,146.2,10.1,146.2z"/>
	<path class="st0" d="M115.1,77.2h9.4c0.5,0,0.9,0.4,0.9,0.9v3.5c0,0.5-0.4,0.9-0.9,0.9h-9.4c-0.5,0-0.9-0.4-0.9-0.9v-3.5
		C114.2,77.6,114.6,77.2,115.1,77.2z"/>
	<path class="st0" d="M83.2,51.3v-9.4c0-0.5,0.4-0.9,0.9-0.9h3.5c0.5,0,0.9,0.4,0.9,0.9v9.4c0,0.5-0.4,0.9-0.9,0.9h-3.5
		C83.6,52.2,83.2,51.8,83.2,51.3z"/>
	<path class="st0" d="M83.2,119.4V110c0-0.5,0.4-0.9,0.9-0.9h3.5c0.5,0,0.9,0.4,0.9,0.9v9.4c0,0.5-0.4,0.9-0.9,0.9h-3.5
		C83.6,120.3,83.2,119.9,83.2,119.4z"/>
	<path class="st0" d="M47.3,77.2h9.4c0.5,0,0.9,0.4,0.9,0.9v3.5c0,0.5-0.4,0.9-0.9,0.9h-9.4c-0.5,0-0.9-0.4-0.9-0.9v-3.5
		C46.4,77.6,46.8,77.2,47.3,77.2z"/>
	<path class="st0" d="M22.5,16.1h9.4c0.5,0,0.9,0.4,0.9,0.9v3.5c0,0.5-0.4,0.9-0.9,0.9h-9.4c-0.5,0-0.9-0.4-0.9-0.9V17
		C21.6,16.5,22,16.1,22.5,16.1z"/>
	<path class="st0" d="M39.9,37.9h12.6c0.5,0,0.9,0.4,0.9,0.9v3.5c0,0.5-0.4,0.9-0.9,0.9H39.9c-0.5,0-0.9-0.4-0.9-0.9v-3.5
		C39,38.3,39.4,37.9,39.9,37.9z"/>
	<path class="st0" d="M48.9,34.2v12.6c0,0.5-0.4,0.9-0.9,0.9h-3.5c-0.5,0-0.9-0.4-0.9-0.9V34.2c0-0.5,0.4-0.9,0.9-0.9H48
		C48.5,33.3,48.9,33.8,48.9,34.2z"/>
	<path class="st0" d="M10.1,154.7h16.5c0.5,0,0.9,0.4,0.9,0.9v3.5c0,0.5-0.4,0.9-0.9,0.9H10.1c-0.5,0-0.9-0.4-0.9-0.9v-3.5
		C9.2,155.1,9.6,154.7,10.1,154.7z"/>
	<path class="st0" d="M169.7,77.8c-3.5-7.1-7.7-13.7-12.5-19.7V2.8c0-1.4-1.1-2.5-2.5-2.5h-19c-0.9,0-0.9,1.1-0.9,2.5
		c0,1.4-0.1,2.5,0.9,2.5h16.5v47.1c-4.5-4.8-9.4-9.2-14.6-13c-1.1-0.8-1.6-0.2-2.4,0.9c-0.8,1.1-1.6,2.3-0.5,3.1
		c6.4,4.6,12.3,10.2,17.5,16.5v15.4c0,1.2,1.2,1.4,2.6,1.4c1.4,0,2.4-0.2,2.4-1.4v-8.9c3,4.3,5.7,8.8,8.1,13.6
		c0.2,0.4,0.2,0.8,0,1.2c-4.4,8.9-9.9,17.1-16.5,24.2c-3.9-3.2-8.9-5.1-14.4-5.1c-3.9,0-7.8,1-11.3,3c-1.2,0.7-1,1.6-0.4,2.8
		c0.7,1.2,1.6,2.2,2.8,1.5c2.7-1.5,5.7-2.3,8.8-2.3c9.9,0,18,8.1,18,18c0,9.9-8.1,18-18,18s-18-8.1-18-18c0-3,0.8-6,2.2-8.6
		c0.7-1.2-0.4-2.1-1.6-2.7c-1.2-0.7-2.1-0.8-2.8,0.4c-1.8,3.3-2.8,7.1-2.8,10.9c0,2.2,0.3,4.3,0.9,6.3c-8.5,2.9-17.3,4.4-26.3,4.4
		c-16.4,0-32.6-5-46.6-14.5c-3.3-2.3-6.5-4.8-9.6-7.5h18.7c1,0,1-1.1,1-2.5s-0.1-2.5-1-2.5H24.6c-7.2-7.4-13.3-16.1-18-25.7
		c-0.2-0.4-0.2-0.8,0-1.2c5.4-11,12.5-20.7,21-28.7C31.3,57.7,38.2,62,46.1,62c11.8,0,21.4-9.6,21.4-21.4c0-3.8-1-7.4-2.7-10.4
		c6.9-1.8,14-2.8,21.1-2.8c13.7,0,26.9,3.4,39.2,10.1c0.8,0.4,1.8-0.1,2.6-1.3c0.7-1.2,1-2.4-0.2-3.1c-13-7.1-27-10.6-41.6-10.6
		c-8.2,0-16.4,1.2-24.2,3.5c-3.9-4.1-9.4-6.7-15.5-6.7c-0.7,0-1.5,0-2.2,0.1c0-0.2,0-0.3,0-0.5C44,9.5,36.4,2,27.2,2
		C18,2,10.4,9.5,10.4,18.7c0,8.6,6.5,15.7,14.9,16.7c-0.4,1.7-0.6,3.4-0.6,5.2c0,2,0.3,4,0.8,5.9C16,55.2,8.1,65.7,2.2,77.8
		c-0.9,1.8-0.9,3.8,0,5.6c4.3,8.7,9.6,16.6,15.7,23.6h-6.2c-1.4,0-2.5,1.1-2.5,2.5v18.5c0,1,1.1,1,2.5,1c1.4,0,2.5,0.2,2.5-1v-16
		h8.4c17.2,17.1,39.7,26.9,63.4,26.9c9.6,0,19.1-1.6,28.2-4.7c3.9,7.2,11.5,12.1,20.3,12.1c12.7,0,23-10.3,23-23
		c0-5.4-1.9-10.5-5.1-14.4c6.9-7.5,12.8-16,17.4-25.5C170.5,81.7,170.5,79.6,169.7,77.8z M46.1,24.1c9.1,0,16.5,7.4,16.5,16.5
		S55.2,57,46.1,57c-9.1,0-16.5-7.4-16.5-16.5c0-1.9,0.3-3.7,0.9-5.4C36.3,34,41,29.8,43,24.4C44,24.2,45.1,24.1,46.1,24.1z
		 M15.4,18.7c0-6.5,5.3-11.8,11.8-11.8c6.5,0,11.8,5.3,11.8,11.8s-5.3,11.8-11.8,11.8C20.7,30.6,15.4,25.3,15.4,18.7z"/>
	<path class="st0" d="M131.6,132.6c0.8,0,1.6-0.2,2.3-0.6l7.9-4.7c1.4-0.8,2.2-2.3,2.2-3.9c0-1.6-0.8-3.1-2.2-3.9l-7.9-4.7
		c-1.4-0.8-3.2-0.9-4.6,0c-1.4,0.8-2.3,2.3-2.3,4v9.4c0,1.6,0.9,3.2,2.3,4C130,132.4,130.8,132.6,131.6,132.6z M131.9,119.2l6.9,4.1
		l-6.9,4.1V119.2z"/>
	<path class="st0" d="M90.9,99c-1.3,0.4-1.5,1.5-1.1,2.8c0.3,1.1,0.7,2.1,1.8,2.1c0.2,0,0.4,0,0.7-0.1c10.4-2.8,17.7-12.4,17.7-23.2
		c0-13.2-10.8-24-24-24s-24,10.8-24,24c0,10.8,7.3,20.3,17.7,23.2c1.3,0.4,1.9-0.7,2.3-2c0.4-1.3,0.4-2.4-1-2.8
		c-8.3-2.3-14-9.8-14-18.4c0-10.5,8.5-19.1,19.1-19.1c4.4,0,8.4,1.5,11.6,4L92,71.1c-1.8-1.1-3.8-1.8-6.1-1.8
		c-6.3,0-11.3,5.1-11.3,11.3c0,6.3,5.1,11.3,11.3,11.3c6.3,0,11.3-5.1,11.3-11.3c0-2.2-0.7-4.3-1.8-6.1L101,69c2.5,3.2,4,7.2,4,11.6
		C105,89.2,99.2,96.8,90.9,99z M85.9,87c-3.5,0-6.4-2.9-6.4-6.4c0-3.5,2.9-6.4,6.4-6.4c3.5,0,6.4,2.9,6.4,6.4
		C92.3,84.2,89.4,87,85.9,87z"/>
</g>
</svg>
