<?xml version="1.0" encoding="utf-8"?>
<!-- Generator: Adobe Illustrator 22.1.0, SVG Export Plug-In . SVG Version: 6.00 Build 0)  -->
<svg version="1.1" id="Слой_1" xmlns="http://www.w3.org/2000/svg" xmlns:xlink="http://www.w3.org/1999/xlink" x="0px" y="0px"
	 viewBox="0 0 200 160" style="enable-background:new 0 0 200 160;" xml:space="preserve">
<style type="text/css">
	.st0{fill:#000000;}
</style>
<g>
	<path class="st0" d="M137.3,60c-0.6-1.7-1.8-3.1-3.5-3.8V33c0-0.1,0-0.1,0-0.3c0-1-0.6-1.9-1.6-2.2l-30.8-11.3
		c-0.5-0.2-1.1-0.2-1.6,0L68.9,30.6c-0.9,0.3-1.5,1.2-1.6,2.2c0,1,0.6,1.9,1.5,2.2l8.5,3.3v21.9c0,1,0.6,1.9,1.5,2.2
		c13.9,5.2,29.3,5.2,43.3,0c0.9-0.4,1.5-1.3,1.5-2.2V38.3l5.4-2.1v20c-1.3,0.6-2.4,1.6-3.1,2.9c-0.7,1.5-0.9,3.1-0.4,4.7
		c0.5,1.6,1.6,2.8,3.1,3.6c0.9,0.4,1.8,0.7,2.8,0.7c0.6,0,1.3-0.1,1.9-0.3c1.6-0.5,2.8-1.6,3.6-3.1C137.7,63.2,137.8,61.6,137.3,60z
		 M133.1,61.9c0,1-0.7,1.6-1.7,1.6c-1.1,0-1.6-0.6-1.6-1.6c0-1,0.8-1.6,1.6-1.6C132.4,60.4,133.1,61,133.1,61.9z M124.8,32.8l-4,1.6
		c-0.1,0-0.2,0.1-0.3,0.1l-19.9,7.7l-19.8-7.7c-0.1-0.1-0.2-0.1-0.3-0.1l-4-1.6l24.1-8.9L124.8,32.8z M99.8,47
		c0.5,0.2,1.2,0.2,1.7,0l17.6-6.9v8.4c-11.9,4.1-24.9,4.1-36.8,0v-8.4L99.8,47z M82.2,53.6c11.9,3.7,24.9,3.7,36.8,0v5
		c-11.9,4.1-24.9,4.1-36.8,0V53.6z"/>
	<path class="st0" d="M33.1,116H37c0.5,0,0.9,0.4,0.9,0.9v3.9c0,0.5-0.4,0.9-0.9,0.9h-3.9c-0.5,0-0.9-0.4-0.9-0.9v-3.9
		C32.2,116.4,32.6,116,33.1,116z"/>
	<path class="st0" d="M44.8,116h3.9c0.5,0,0.9,0.4,0.9,0.9v3.9c0,0.5-0.4,0.9-0.9,0.9h-3.9c-0.5,0-0.9-0.4-0.9-0.9v-3.9
		C43.9,116.4,44.3,116,44.8,116z"/>
	<path class="st0" d="M58.7,116h20c0.5,0,0.9,0.4,0.9,0.9v3.9c0,0.5-0.4,0.9-0.9,0.9h-20c-0.5,0-0.9-0.4-0.9-0.9v-3.9
		C57.8,116.4,58.2,116,58.7,116z"/>
	<path class="st0" d="M33.1,141.6H37c0.5,0,0.9,0.4,0.9,0.9v3.9c0,0.5-0.4,0.9-0.9,0.9h-3.9c-0.5,0-0.9-0.4-0.9-0.9v-3.9
		C32.2,142,32.6,141.6,33.1,141.6z"/>
	<path class="st0" d="M44.8,141.6h3.9c0.5,0,0.9,0.4,0.9,0.9v3.9c0,0.5-0.4,0.9-0.9,0.9h-3.9c-0.5,0-0.9-0.4-0.9-0.9v-3.9
		C43.9,142,44.3,141.6,44.8,141.6z"/>
	<path class="st0" d="M58.7,141.6h20c0.5,0,0.9,0.4,0.9,0.9v3.9c0,0.5-0.4,0.9-0.9,0.9h-20c-0.5,0-0.9-0.4-0.9-0.9v-3.9
		C57.8,142,58.2,141.6,58.7,141.6z"/>
	<path class="st0" d="M121.3,116h3.9c0.5,0,0.9,0.4,0.9,0.9v3.9c0,0.5-0.4,0.9-0.9,0.9h-3.9c-0.5,0-0.9-0.4-0.9-0.9v-3.9
		C120.4,116.4,120.8,116,121.3,116z"/>
	<path class="st0" d="M99.8-0.1h3.9c0.5,0,0.9,0.4,0.9,0.9v3.9c0,0.5-0.4,0.9-0.9,0.9h-3.9c-0.5,0-0.9-0.4-0.9-0.9V0.8
		C98.8,0.3,99.3-0.1,99.8-0.1z"/>
	<path class="st0" d="M133,116h3.9c0.5,0,0.9,0.4,0.9,0.9v3.9c0,0.5-0.4,0.9-0.9,0.9H133c-0.5,0-0.9-0.4-0.9-0.9v-3.9
		C132.1,116.4,132.5,116,133,116z"/>
	<path class="st0" d="M146.9,116h20c0.5,0,0.9,0.4,0.9,0.9v3.9c0,0.5-0.4,0.9-0.9,0.9h-20c-0.5,0-0.9-0.4-0.9-0.9v-3.9
		C146,116.4,146.4,116,146.9,116z"/>
	<path class="st0" d="M121.3,141.6h3.9c0.5,0,0.9,0.4,0.9,0.9v3.9c0,0.5-0.4,0.9-0.9,0.9h-3.9c-0.5,0-0.9-0.4-0.9-0.9v-3.9
		C120.4,142,120.8,141.6,121.3,141.6z"/>
	<path class="st0" d="M133,141.6h3.9c0.5,0,0.9,0.4,0.9,0.9v3.9c0,0.5-0.4,0.9-0.9,0.9H133c-0.5,0-0.9-0.4-0.9-0.9v-3.9
		C132.1,142,132.5,141.6,133,141.6z"/>
	<path class="st0" d="M146.9,141.6h20c0.5,0,0.9,0.4,0.9,0.9v3.9c0,0.5-0.4,0.9-0.9,0.9h-20c-0.5,0-0.9-0.4-0.9-0.9v-3.9
		C146,142,146.4,141.6,146.9,141.6z"/>
	<path class="st0" d="M117.4,159.9h54.9c5.1,0,9.2-4.1,9.2-9.2V138c0-2.3-0.8-4.4-2.4-6.1l-0.2-0.2l0.2-0.2c1.5-1.7,2.4-3.9,2.4-6.1
		v-12.8c0-5.1-4.1-9.2-9.2-9.2h-24.6V90.8c0-1.6-1.3-2.8-2.8-2.8H103v-8.4h38.5c13.9,0,25.3-11.3,25.3-25.2
		c0-13.5-10.6-24.6-24.1-25.2l-0.3,0l-0.1-0.3c-1.6-6.1-4.7-11.8-8.8-16.6c-4.7-5.4-10.6-9.6-17.3-12.1c-1.5-0.6-3.1,0.2-3.6,1.6
		c-0.6,1.5,0.2,3.1,1.6,3.6c11.7,4.5,20.6,14.8,23.1,27.1c0.3,1.4,1.5,2.3,2.9,2.3c0.4,0,0.8,0,1.1,0c10.8,0,19.6,8.8,19.6,19.6
		c0,10.8-8.8,19.6-19.6,19.6H52.4c-7.3,0-13.2-5.9-13.2-13.2c0-5.4,3.2-10.2,8.3-12.3c1.3-0.5,2-1.9,1.7-3.2c-0.2-1-0.3-1.9-0.3-2.9
		C48.8,35,54.7,29,62,29c0.5,0,0.9,0,1.4,0.1c1.3,0.2,2.5-0.6,3-1.8C70.1,17.2,78,9.2,88.1,5.4c1.5-0.6,2.2-2.2,1.6-3.6
		c-0.3-0.7-0.8-1.3-1.5-1.6c-0.7-0.3-1.5-0.3-2.2-0.1C75.3,4.2,66.5,12.6,62,23.2l-0.1,0.2l-0.2,0c-10.2,0.2-18.5,8.7-18.5,18.9
		c0,0.5,0,1.1,0.1,1.7l0,0.2L43,44.3c-5.9,3.3-9.5,9.6-9.5,16.4c0,10.4,8.5,18.9,18.9,18.9h44.9v8.4H55.6c-1.6,0-2.8,1.3-2.8,2.8
		v12.5H28c-5.1,0-9.2,4.1-9.2,9.2v12.8c0,2.3,0.8,4.4,2.4,6.1l0.2,0.2l-0.2,0.2c-1.5,1.7-2.4,3.9-2.4,6.1v12.8
		c0,5.1,4.1,9.2,9.2,9.2h54.9c5.1,0,9.2-4.1,9.2-9.2V138c0-2.3-0.8-4.4-2.4-6.1l-0.2-0.2l0.2-0.2c1.5-1.7,2.4-3.9,2.4-6.1v-12.8
		c0-5.1-4.1-9.2-9.2-9.2H58.4v-9.7H142v9.7h-24.6c-5.1,0-9.2,4.1-9.2,9.2v12.8c0,2.3,0.8,4.4,2.4,6.1l0.2,0.2l-0.2,0.2
		c-1.5,1.7-2.4,3.9-2.4,6.1v12.8C108.2,155.8,112.3,159.9,117.4,159.9z M86.5,150.7c0,2-1.6,3.5-3.5,3.5H28c-2,0-3.5-1.6-3.5-3.5
		V138c0-2,1.6-3.5,3.5-3.5h54.9c2,0,3.5,1.6,3.5,3.5V150.7z M82.9,108.9c2,0,3.5,1.6,3.5,3.6v12.8c0,2-1.6,3.6-3.5,3.6H28
		c-2,0-3.5-1.6-3.5-3.6v-12.8c0-2,1.6-3.6,3.5-3.6H82.9z M113.8,112.5c0-2,1.6-3.6,3.5-3.6h54.9c2,0,3.5,1.6,3.5,3.6v12.8
		c0,2-1.6,3.6-3.5,3.6h-54.9c-2,0-3.5-1.6-3.5-3.6V112.5z M113.8,138c0-2,1.6-3.5,3.5-3.5h54.9c2,0,3.5,1.6,3.5,3.5v12.8
		c0,2-1.6,3.5-3.5,3.5h-54.9c-2,0-3.5-1.6-3.5-3.5V138z"/>
</g>
</svg>
