<?xml version="1.0" encoding="utf-8"?>
<!-- Generator: Adobe Illustrator 22.1.0, SVG Export Plug-In . SVG Version: 6.00 Build 0)  -->
<svg version="1.1" id="Слой_1" xmlns="http://www.w3.org/2000/svg" xmlns:xlink="http://www.w3.org/1999/xlink" x="0px" y="0px"
	 viewBox="0 0 200 160" style="enable-background:new 0 0 200 160;" xml:space="preserve">
<style type="text/css">
	.st0{fill:#000000;}
</style>
<path class="st0" d="M168.6,151.4l-7-41.3c-0.8-4.6-4-8.3-8.5-9.6l-18.8-5.7c-0.5-4.7-2.4-9-5.5-12.5c-2.4-2.7-5.5-4.7-8.9-5.8
	c0.5-0.5,0.9-1.1,1.3-1.6c4.6-5.9,6.9-12.2,7.6-16.3h1.2c4,0,7.3-3.3,7.3-7.3v-3.5c0-2.6-1.4-4.9-3.6-6.3v-9.9
	c0-1.5-1.2-1.6-2.7-1.6c-1.5,0-2.7,0.2-2.7,1.6v10.8c-1,0.2-2,0.5-2.9,0.9c-0.1,0-0.3,0.1-0.4,0.2c-0.1,0-0.2,0.1-0.2,0.1V25.5
	c0-5.4-4.4-9.8-9.8-9.8h-6.4c-2.3,0-4.6,0.8-6.3,2.3l-0.6,0.5c-1.1,0.9-2.5,1.4-3.9,1.4s-2.8-0.5-3.9-1.4L93.2,18
	c-1.8-1.5-4-2.3-6.3-2.3h-6.4c-5.4,0-9.8,4.4-9.8,9.8v18.2c-0.1,0-0.1-0.1-0.2-0.1c-0.1-0.1-0.2-0.1-0.4-0.2
	c-0.9-0.4-1.9-0.7-2.9-0.9V18.7c0-7.4,6-13.3,13.3-13.3h34.4c7.4,0,13.3,6,13.3,13.3v3.7c0,1.5,1.2,1.4,2.7,1.4
	c1.5,0,2.7,0.1,2.7-1.4v-3.7c0-10.3-8.4-18.7-18.7-18.7H80.5C70.2,0,61.8,8.4,61.8,18.7v22.9c-2.2,1.3-3.6,3.7-3.6,6.3v3.5
	c0,4,3.3,7.3,7.3,7.3h1.2c0.6,4.1,3,10.4,7.6,16.3c0.4,0.5,0.9,1.1,1.3,1.6c-8,2.8-13.6,9.9-14.4,18.3l-18.8,5.7
	c-4.4,1.3-7.7,5-8.5,9.6l-3.1,18.5c-0.2,1.5,1,1.4,2.4,1.6c1.5,0.2,2.6,0.8,2.9-0.7l3.1-18.5c0.4-2.6,2.2-4.6,4.7-5.3l17.1-5.2v3.8
	c-4.1,0.9-7.4,3.7-8.8,7.5c-0.4,1-0.6,2.1-0.7,3.3L49.8,137c-0.1,1.7,0.5,3.5,1.7,4.8c1.2,1.3,2.9,2,4.6,2h3.3
	c1.5,0,1.5-1.2,1.5-2.7c0-1.5,0-2.7-1.5-2.7h-3.3c-0.2,0-0.5-0.1-0.7-0.3c-0.2-0.2-0.3-0.4-0.2-0.7l1.7-21.8
	c0.1-0.6,0.2-1.2,0.4-1.8c0.9-2.5,3.5-4.2,6.3-4.3l0.4,0c2.7,0,5.2,1.6,6.2,4c0.3,0.7,0.5,1.4,0.5,2.1l1.7,21.8
	c0,0.2-0.1,0.5-0.2,0.7c-0.2,0.2-0.4,0.3-0.7,0.3h-4.2c-1.5,0-1.7,1.3-1.7,2.7c0,1.5,0.2,2.7,1.7,2.7h4.2c1.7,0,3.4-0.7,4.6-2
	c1.2-1.3,1.8-3,1.7-4.8L76,115.2c-0.1-1.3-0.4-2.6-0.9-3.8c-1.5-3.6-4.8-6.2-8.7-7v-5.4l7.5-2.3c0.7,1.6,2.1,4.8,4.9,11.7
	c2.6,6.4,6,15.3,9.9,25.5c0,0.1,0.1,0.2,0.1,0.2c2.3,6,4.5,11.9,6.4,17c0.4,1,1.4,1.7,2.5,1.7c1.1,0,2.1-0.7,2.5-1.7
	c1.9-5.1,4.1-11,6.4-16.9c0-0.1,0.1-0.2,0.1-0.2c2.7-7,6.6-17.1,9.9-25.5c2.8-6.9,4.2-10.2,4.9-11.7l7.5,2.2v13.2
	c-5.7,1.2-9.8,6.3-9.8,12.1c0,6.9,5.6,12.4,12.4,12.4c6.9,0,12.4-5.6,12.4-12.4c0-5.8-4.1-10.9-9.7-12.1v-11.6l17.1,5.2
	c2.5,0.7,4.3,2.8,4.7,5.3l7,41.3c0.1,0.6-0.1,1.1-0.4,1.6c-0.4,0.4-0.9,0.7-1.5,0.7H34.1c-0.6,0-1.1-0.2-1.5-0.7
	c-0.4-0.4-0.5-1-0.4-1.6l2.5-14.5c0.2-1.5-1.1-1.5-2.6-1.7c-1.8-0.3-2.6,0.1-2.7,0.8l-2.5,14.5c-0.4,2.1,0.2,4.3,1.6,6
	c1.4,1.7,3.4,2.6,5.6,2.6h127.3c2.2,0,4.2-1,5.6-2.6C168.4,155.7,169,153.6,168.6,151.4z M111,109.1L111,109.1l-0.4,0l-0.6,1.5
	l-6.9-2.9l11.6-8.6l0,0c0,0,0,0.1-0.1,0.1l-2.6,6.3c-0.3,0.8-0.6,1.6-1,2.6l-0.3,0.8L111,109.1L111,109.1z M96.2,121.2h3.2l2.1,11.5
	c-1.4,3.7-2.7,7-3.7,9.7c-1-2.7-2.3-6-3.7-9.7L96.2,121.2z M92.4,107.7l-6.9,2.9l-3.9-9.6c-0.3-0.6-0.5-1.2-0.7-1.8l0-0.1l0,0l0,0
	L92.4,107.7z M79.8,81.1v6.4c0,1.2-0.5,2.6-1.3,3.6c-1.3-0.4-2.6-0.5-3.9-0.1c-0.1,0-0.1,0-0.2,0l-7.5,2.3
	C68.4,86.9,73.5,82.2,79.8,81.1z M105.7,22.2c0.8-0.7,1.9-1,2.9-1h6.4c2.4,0,4.4,2,4.4,4.4v21.5c0,1.5,0.9,2.8,2.2,3.4
	c0.6,0.3,1.3,0.3,2,0.2v5.7c0,3.3-2.3,9.9-6.6,15.3c-1.7,2.1-3.5,4-5.5,5.5c-0.1,0.1-0.2,0.1-0.2,0.2c-4.1,3-8.6,4.6-13.5,4.6
	s-9.4-1.5-13.5-4.5c-0.1-0.1-0.2-0.1-0.2-0.2c-2-1.5-3.8-3.3-5.5-5.5c-4.3-5.5-6.6-12-6.6-15.3v-5.7c0.7,0.1,1.3,0,2-0.2
	c1.4-0.6,2.2-1.9,2.2-3.4V25.5c0-2.4,2-4.4,4.4-4.4h6.4c1.1,0,2.1,0.4,2.9,1l0.6,0.5c2.1,1.7,4.7,2.6,7.3,2.6s5.3-0.9,7.3-2.6
	L105.7,22.2z M85.2,87.4v-3.2c3.9,2,8.1,3,12.6,3c4.4,0,8.7-1,12.6-3v3.2c0,2.2,0.8,4.6,2.2,6.5l-14.8,11L83,94
	C84.4,92,85.2,89.6,85.2,87.4z M95.1,115.8l-2.2-2.5l4.8-2l4.8,2l-2.2,2.5H95.1z M115.7,81c6.3,1.1,11.4,5.9,12.9,12.1l-7.4-2.2
	l-0.1,0c-1.3-0.4-2.7-0.4-4,0.1c-0.8-1-1.3-2.3-1.3-3.6V81z M87.8,115.5l3.3,3.8l-0.7,3.8l-0.9-2.4c-0.7-1.8-1.3-3.4-2-5L87.8,115.5
	z M108,115.7l-2.9,7.4l-0.7-3.8l3.3-3.8L108,115.7z M110.9,109.2C110.9,109.2,110.9,109.2,110.9,109.2L110.9,109.2L110.9,109.2
	L110.9,109.2z M138.8,124.3c0,3.9-3.2,7-7,7c-3.9,0-7-3.2-7-7c0-3.9,3.2-7,7-7C135.6,117.2,138.8,120.4,138.8,124.3z M129,53.4V48
	c1.1-0.2,1.9-0.2,1.9-0.2c0.3,0,0.6,0,0.9-0.1c0,0.1,0,0.2,0,0.3v3.5c0,1-0.8,1.9-1.9,1.9H129z M66.5,48v5.4h-0.9
	c-1,0-1.9-0.8-1.9-1.9v-3.5c0-0.1,0-0.2,0-0.3c0.3,0.1,0.6,0.2,0.9,0.1C64.9,47.7,65.6,47.8,66.5,48z"/>
</svg>
