<?xml version="1.0" encoding="utf-8"?>
<!-- Generator: Adobe Illustrator 22.1.0, SVG Export Plug-In . SVG Version: 6.00 Build 0)  -->
<svg version="1.1" id="Слой_1" xmlns="http://www.w3.org/2000/svg" xmlns:xlink="http://www.w3.org/1999/xlink" x="0px" y="0px"
	 viewBox="0 0 200 160" style="enable-background:new 0 0 200 160;" xml:space="preserve">
<style type="text/css">
	.st0{fill:#000000;}
</style>
<g id="surface1">
	<path class="st0" d="M25.7,137.1h4.7c0.6,0,1.1-0.5,1.1-1.1v-3.6c0-0.6-0.5-1.1-1.1-1.1h-4.7c-3.2,0-5.7-2.6-5.7-5.7V11.4
		c0-3.2,2.6-5.7,5.7-5.7h125.7c3.2,0,5.7,2.6,5.7,5.7v4.7c0,0.6,0.5,1.1,1.1,1.1h3.6c0.6,0,1.1-0.5,1.1-1.1v-4.7
		c0-6.3-5.1-11.4-11.4-11.4H25.7c-6.3,0-11.4,5.1-11.4,11.4v114.3C14.3,132,19.4,137.1,25.7,137.1z"/>
	<path class="st0" d="M27.1,11.4h3c0.7,0,1.3,0.6,1.3,1.3v3c0,0.7-0.6,1.3-1.3,1.3h-3c-0.7,0-1.3-0.6-1.3-1.3v-3
		C25.7,12,26.3,11.4,27.1,11.4z"/>
	<path class="st0" d="M38.5,11.4h3c0.7,0,1.3,0.6,1.3,1.3v3c0,0.7-0.6,1.3-1.3,1.3h-3c-0.7,0-1.3-0.6-1.3-1.3v-3
		C37.1,12,37.7,11.4,38.5,11.4z"/>
	<path class="st0" d="M49.9,11.4h3c0.7,0,1.3,0.6,1.3,1.3v3c0,0.7-0.6,1.3-1.3,1.3h-3c-0.7,0-1.3-0.6-1.3-1.3v-3
		C48.6,12,49.2,11.4,49.9,11.4z"/>
	<path class="st0" d="M37.1,148.6c0,6.3,5.1,11.4,11.4,11.4h125.7c6.3,0,11.4-5.1,11.4-11.4V34.3c0-6.3-5.1-11.4-11.4-11.4H48.6
		c-6.3,0-11.4,5.1-11.4,11.4V148.6z M42.9,34.3c0-3.2,2.6-5.7,5.7-5.7h125.7c3.2,0,5.7,2.6,5.7,5.7v114.3c0,3.2-2.6,5.7-5.7,5.7
		H48.6c-3.2,0-5.7-2.6-5.7-5.7V34.3z"/>
	<path class="st0" d="M49.9,34.3h3c0.7,0,1.3,0.6,1.3,1.3v3c0,0.7-0.6,1.3-1.3,1.3h-3c-0.7,0-1.3-0.6-1.3-1.3v-3
		C48.6,34.9,49.2,34.3,49.9,34.3z"/>
	<path class="st0" d="M61.3,34.3h3c0.7,0,1.3,0.6,1.3,1.3v3c0,0.7-0.6,1.3-1.3,1.3h-3c-0.7,0-1.3-0.6-1.3-1.3v-3
		C60,34.9,60.6,34.3,61.3,34.3z"/>
	<path class="st0" d="M72.8,34.3h3c0.7,0,1.3,0.6,1.3,1.3v3c0,0.7-0.6,1.3-1.3,1.3h-3c-0.7,0-1.3-0.6-1.3-1.3v-3
		C71.4,34.9,72,34.3,72.8,34.3z"/>
	<path class="st0" d="M49.9,45.7h123c0.7,0,1.3,0.6,1.3,1.3v3c0,0.7-0.6,1.3-1.3,1.3h-123c-0.7,0-1.3-0.6-1.3-1.3v-3
		C48.6,46.3,49.2,45.7,49.9,45.7z"/>
	<path class="st0" d="M49.9,60h20.2c0.7,0,1.3,0.6,1.3,1.3v3c0,0.7-0.6,1.3-1.3,1.3H49.9c-0.7,0-1.3-0.6-1.3-1.3v-3
		C48.6,60.6,49.2,60,49.9,60z"/>
	<path class="st0" d="M49.9,71.4h14.4c0.7,0,1.3,0.6,1.3,1.3v3c0,0.7-0.6,1.3-1.3,1.3H49.9c-0.7,0-1.3-0.6-1.3-1.3v-3
		C48.6,72,49.2,71.4,49.9,71.4z"/>
	<path class="st0" d="M111.4,82.9c-11,0-20,9-20,20s9,20,20,20s20-9,20-20C131.4,91.8,122.5,82.9,111.4,82.9z M111.4,117.1
		c-7.9,0-14.3-6.4-14.3-14.3s6.4-14.3,14.3-14.3s14.3,6.4,14.3,14.3C125.7,110.7,119.3,117.1,111.4,117.1z"/>
	<path class="st0" d="M157.1,94.3c0-1.6-1.3-2.9-2.9-2.9h-7.6c-0.6-1.9-1.4-3.7-2.3-5.5l5.3-5.3c1.1-1.1,1.1-2.9,0-4l-12.1-12.1
		c-1.1-1.1-2.9-1.1-4,0l-5.3,5.3c-1.8-0.9-3.6-1.7-5.5-2.3V60c0-1.6-1.3-2.9-2.9-2.9h-17.1c-1.6,0-2.9,1.3-2.9,2.9v7.6
		c-1.9,0.6-3.7,1.4-5.5,2.3l-5.3-5.3c-1.1-1.1-2.9-1.1-4,0L73,76.6c-1.1,1.1-1.1,2.9,0,4l5.3,5.3c-0.2,0.5-0.5,0.9-0.7,1.4
		c-0.6,1.3-1.1,2.7-1.6,4h-7.6c-1.6,0-2.9,1.3-2.9,2.9v17.1c0,1.6,1.3,2.9,2.9,2.9h7.6c0.6,1.9,1.4,3.7,2.3,5.5l-5.3,5.3
		c-1.1,1.1-1.1,2.9,0,4l12.1,12.1c1.1,1.1,2.9,1.1,4,0l5.3-5.3c1.8,0.9,3.6,1.7,5.5,2.3v7.6c0,1.6,1.3,2.9,2.9,2.9H120
		c1.6,0,2.9-1.3,2.9-2.9v-7.6c1.9-0.6,3.7-1.4,5.5-2.3l5.3,5.3c1.1,1.1,2.9,1.1,4,0l12.1-12.1c1.1-1.1,1.1-2.9,0-4l-5.3-5.3
		c0.9-1.8,1.7-3.6,2.3-5.5h7.6c1.6,0,2.9-1.3,2.9-2.9V94.3z M151.4,108.6h-6.8c-1.3,0-2.4,0.9-2.8,2.1c-0.7,2.8-1.9,5.6-3.3,8.1
		c-0.7,1.1-0.5,2.5,0.4,3.5l4.8,4.8l-8.1,8.1l-4.8-4.8c-0.9-0.9-2.4-1.1-3.5-0.4c-2.5,1.5-5.2,2.6-8.1,3.3c-1.3,0.3-2.1,1.5-2.1,2.8
		v6.8h-11.4V136c0-1.3-0.9-2.4-2.1-2.8c-2.8-0.7-5.6-1.9-8.1-3.3c-1.1-0.7-2.6-0.5-3.5,0.4l-4.8,4.8l-8.1-8.1l4.8-4.8
		c0.9-0.9,1.1-2.3,0.4-3.5c-1.5-2.5-2.6-5.2-3.3-8.1c-0.3-1.3-1.5-2.1-2.8-2.1h-6.8V97.1h6.8c1.3,0,2.4-0.9,2.8-2.1
		c0.5-1.8,1.1-3.6,1.9-5.2c0.4-1,0.9-1.9,1.5-2.9c0.7-1.1,0.5-2.5-0.4-3.5l-4.8-4.8l8.1-8.1l4.8,4.8c0.9,0.9,2.4,1.1,3.5,0.4
		c2.5-1.5,5.2-2.6,8.1-3.3c1.3-0.3,2.1-1.5,2.1-2.8v-6.8h11.4v6.8c0,1.3,0.9,2.4,2.1,2.8c2.8,0.7,5.6,1.9,8.1,3.3
		c1.1,0.7,2.6,0.5,3.5-0.4l4.8-4.8l8.1,8.1l-4.8,4.8c-0.9,0.9-1.1,2.3-0.4,3.5c1.5,2.5,2.6,5.2,3.3,8.1c0.3,1.3,1.5,2.1,2.8,2.1h6.8
		V108.6z"/>
	<path class="st0" d="M158.5,142.9h14.4c0.7,0,1.3,0.6,1.3,1.3v3c0,0.7-0.6,1.3-1.3,1.3h-14.4c-0.7,0-1.3-0.6-1.3-1.3v-3
		C157.1,143.5,157.7,142.9,158.5,142.9z"/>
</g>
</svg>
