<?xml version="1.0" encoding="utf-8"?>
<!-- Generator: Adobe Illustrator 22.1.0, SVG Export Plug-In . SVG Version: 6.00 Build 0)  -->
<svg version="1.1" id="Слой_1" xmlns="http://www.w3.org/2000/svg" xmlns:xlink="http://www.w3.org/1999/xlink" x="0px" y="0px"
	 viewBox="0 0 200 160" style="enable-background:new 0 0 200 160;" xml:space="preserve">
<style type="text/css">
	.st0{fill:#000000;}
</style>
<g>
	<path class="st0" d="M141.2,74.6c-4.7-2.4-9-3.6-9.5-3.8L120.4,68l-2.3-5.7c-0.3-0.7-0.9-1.3-1.6-1.6c-0.7-0.2-1.5-0.2-2.2,0.2
		v-0.3c4.8-3.1,8.1-7.8,9.4-13.3c0.9,0,1.8,0,2.7-0.2c4.4-1,7.4-4.9,7.4-9.4c0-4.5-3-8.3-7.3-9.4c-0.3-0.1-0.6-0.1-1-0.2
		c4.5-13,3.5-25.3,3.4-25.8c-0.1-1.4-1.3-2.5-2.7-2.5H94c-5.5,0-7.9,4-8.6,5.4c-8.4,4.1-6.8,17-5.6,22.8c-0.5,0-1,0.1-1.5,0.2
		c-4.3,1.1-7.3,4.9-7.3,9.4c0,4.5,3.1,8.4,7.4,9.4c0.9,0.2,1.8,0.3,2.7,0.2c1.3,5.5,4.6,10.2,9.4,13.3V61c-0.7-0.4-1.5-0.5-2.2-0.2
		c-0.7,0.3-1.3,0.8-1.6,1.6L84.4,68l-14.3,3.5c-8.6,2.1-14.6,9.8-14.6,18.7v16.2c0,1.5,1.2,2.7,2.7,2.7h88.3c1.5,0,2.7-1.2,2.7-2.7
		V90.2C149.2,84,146.7,77.4,141.2,74.6z M124.3,33.6c0.3,0,0.6,0,0.9,0.1c1.9,0.5,3.2,2.2,3.2,4.1c0,2-1.3,3.7-3.3,4.1
		c-0.3,0.1-0.6,0.1-0.9,0.1V33.6z M80.5,42c-0.3,0-0.6,0-0.9-0.1c-1.9-0.5-3.3-2.1-3.3-4.1c0-2,1.3-3.7,3.2-4.1
		c0.3-0.1,0.6-0.1,0.9-0.1V42z M85.2,27.8L85.2,27.8c-0.7-3.3-3-15.6,3.2-17.8c0.8-0.3,1.5-1,1.7-1.8C90.2,7.9,91,5.4,94,5.4h29.7
		c0.1,4-0.3,13.3-3.7,22.5l0,0v-3c0-1.3-0.9-2.4-2.2-2.6c-0.5-0.1-11.8-2.2-29.8-2.2c-1.5,0-2.7,1.2-2.7,2.7V27.8z M85.9,43.9
		c0-0.1-0.1-1.1-0.1-1.6v-9.1l2.5-0.4c1.3-0.2,2.3-1.3,2.3-2.7v-4.7c11.8,0.1,20.4,1.2,23.9,1.7v3c0,1.3,0.9,2.4,2.3,2.7l2.1,0.4
		v9.2c0,0.6,0,1.1-0.1,1.6c-0.5,5.4-3.7,10.2-8.5,12.9c-4.8,2.6-11,2.6-15.8,0C89.7,54.2,86.5,49.4,85.9,43.9z M108.9,63.2v1
		l-6.5,3.9l-6.5-3.9v-1c0.1,0,0.2,0.1,0.4,0.1c4,1.2,8.2,1.2,12.3,0C108.7,63.3,108.8,63.3,108.9,63.2z M94.2,103.7H75v-6
		c0-1.5-1.1-1.8-2.6-1.8s-2.8,0.3-2.8,1.8v6h-8.7V90.2c0-6.4,4.3-11.9,10.5-13.4l13.3-3.3l7.9,8.1c0,0.1,0.1,0.1,0.1,0.2l3.6,6.3
		c0,0.1,0.1,0.2,0.2,0.2L94.2,103.7z M96.3,77.6l-7-7.2l1.2-3.1l8.4,5.1L96.3,77.6z M99.7,103.7l2.1-14.3h1.1l2.1,14.3H99.7z
		 M104.5,84h-4.2L99.7,83l2.7-5.5l2.7,5.5L104.5,84z M114.3,67.3l1.2,3.1l-7,7.2l-2.6-5.3L114.3,67.3z M143.8,103.7h-8.7v-6
		c0-1.5-1.1-1.5-2.6-1.5c-1.5,0-2.8,0-2.8,1.5v6h-19.2l-2.3-15.4c0.1-0.1,0.1-0.2,0.2-0.2l3.6-6.3c0-0.1,0.1-0.1,0.1-0.2l7.9-8.1
		c0,0,13.9,3.3,18.1,5.5c3.9,2.1,5.8,6.8,5.8,11.2V103.7z"/>
	<path class="st0" d="M63.9,136.4h-16v-7.1h12.4c1.5,0,1.6-1.5,1.6-3s-0.1-2.4-1.6-2.4H45.2c-1.5,0-2.7,1.2-2.7,2.7v9.8h-16
		c-1.5,0-2.7,1.2-2.7,2.7v18.2c0,1.5,1.2,2.7,2.7,2.7h37.4c1.5,0,2.7-1.2,2.7-2.7v-18.2C66.6,137.6,65.4,136.4,63.9,136.4z
		 M61.2,141.8v12.9h-32v-12.9H61.2z"/>
	<path class="st0" d="M178.2,136.4h-16v-9.8c0-1.5-1.2-2.7-2.7-2.7h-54.5v-10.5c0-1.5-1.2-1.6-2.7-1.6s-2.7,0.1-2.7,1.6v10.5H70.2
		c-1.5,0-2,1.2-2,2.7s0.5,2.7,2,2.7h29.4v7.1h-16c-1.5,0-2.7,1.2-2.7,2.7v18.2c0,1.5,1.2,2.7,2.7,2.7H105c1.5,0,1.2-1.3,1.2-2.8
		s0.3-2.6-1.2-2.6H86.3v-12.9h32v12.9h-5.2c-1.5,0-1.4,1.1-1.4,2.6s-0.1,2.8,1.4,2.8h7.9c1.5,0,2.7-1.2,2.7-2.7v-18.2
		c0-1.5-1.2-2.7-2.7-2.7h-16v-7.1h51.8v7.1h-16c-1.5,0-2.7,1.2-2.7,2.7v18.2c0,1.5,1.2,2.7,2.7,2.7h37.4c1.5,0,2.7-1.2,2.7-2.7
		v-18.2C180.9,137.6,179.7,136.4,178.2,136.4z M175.5,141.8v12.9h-32v-12.9H175.5z"/>
</g>
</svg>
