<?xml version="1.0" encoding="utf-8"?>
<!-- Generator: Adobe Illustrator 22.1.0, SVG Export Plug-In . SVG Version: 6.00 Build 0)  -->
<svg version="1.1" id="Слой_1" xmlns="http://www.w3.org/2000/svg" xmlns:xlink="http://www.w3.org/1999/xlink" x="0px" y="0px"
	 viewBox="0 0 200 160" style="enable-background:new 0 0 200 160;" xml:space="preserve">
<style type="text/css">
	.st0{fill:#000000;}
</style>
<g>
	<path class="st0" d="M162.4,16h-104V2.7c0-1.5-1.2-2.7-2.7-2.7H45c-5.9,0-10.7,4.8-10.7,10.7v88c0,5.9,4.8,10.7,10.7,10.7h0.1
		c0.3,4.4,2.6,8.5,6.3,11l7.3,4.9c1.5,1,2.4,2.7,2.4,4.4v3.7h-2.7c-1.5,0-2.7,1.2-2.7,2.7v21.3c0,1.5,1.2,2.7,2.7,2.7H101
		c1.5,0,2.7-1.2,2.7-2.7V136c0-1.5-1.2-2.7-2.7-2.7h-2.7V126c2.5-5.2,4.2-10.8,4.9-16.6H149v13.3c0,1.5,1.2,2.7,2.7,2.7h10.7
		c5.9,0,10.7-4.8,10.7-10.7v-88C173,20.8,168.3,16,162.4,16z M45.3,5.3l7.8,0V16h-8c-3.5,0-6.2-3.4-5.1-7.1
		C40.7,6.7,42.9,5.3,45.3,5.3z M98.4,154.7H61v-16h37.3V154.7z M98.4,102.7c0,7.4-1.7,14.7-5,21.4c-0.2,0.4-0.3,0.8-0.3,1.2l0,8
		H66.4v-3.7c0-3.6-1.8-6.9-4.8-8.9l-7-4.7c-2.6-1.7-4.4-4.7-4.3-7.8c0.1-3.5,2.1-6.3,4.9-7.8l0.4-0.2v5.3c0,0.6,0.5,1.1,1.1,1.1H60
		c0.6,0,1.1-0.5,1.1-1.1V69.3c0-1.5,1.2-2.7,2.7-2.7s2.7,1.2,2.7,2.7v25.6c0,0.6,0.5,1.1,1.1,1.1h3.1c0.6,0,1.1-0.5,1.1-1.1V82.7
		c0-1.5,1.2-2.7,2.7-2.7c1.5,0,2.7,1.2,2.7,2.7v6.8c0,0.4,0.4,1,1,1c0.7,0,2.6,0,3.7,0c0.3,0,0.6-0.4,0.6-0.8c0-1,0-1.7,0-1.7
		c0-1.5,1.2-2.7,2.7-2.7s2.7,1.2,2.7,2.7v6.9c0,0.6,0.5,1.1,1.1,1.1h3c0.6,0,1.1-0.5,1.1-1.1v-4.2c0-1.5,1.2-2.7,2.7-2.7
		c1.5,0,2.7,1.2,2.7,2.7V102.7z M103.7,104c0-0.4,0-0.8,0-1.3l0-12c0-2.2-0.8-4.4-2.4-5.9c-2.9-2.6-6.6-2.8-9.5-1.1
		c-2-3.3-6.1-4.6-9.7-3.1c-1.1-4.2-5.4-6.7-9.6-5.7c-0.3,0.1-0.5,0.2-0.8,0.2l0-5.4c0-3.9-2.6-7.6-6.5-8.3c-5.1-0.9-9.5,3-9.5,7.9
		v25l-2.8,1.4c-3.4,1.7-5.9,4.7-7.1,8.2H45c-2.9,0-5.3-2.4-5.3-5.3V19.9c1.6,1,3.5,1.5,5.3,1.5h117.3c2.9,0,5.3,2.4,5.3,5.3v78.8
		c-1.6-1-3.5-1.5-5.3-1.5H103.7z M162.1,120l-7.8,0v-10.7h8c3.5,0,6.2,3.4,5.1,7.1C166.7,118.6,164.5,120,162.1,120z"/>
	<path class="st0" d="M153.1,66.7h-2.9c-0.7,0-1.2,0.6-1.2,1.2v21.9c0,0.5-0.4,0.9-0.9,0.9h-3.6c-0.5,0-0.9-0.4-0.9-0.9V73.2
		c0-0.7-0.6-1.2-1.2-1.2h-2.9c-0.7,0-1.2,0.6-1.2,1.2v16.6c0,0.5-0.4,0.9-0.9,0.9h-3.6c-0.5,0-0.9-0.4-0.9-0.9V78.2
		c0-0.5-0.4-0.9-0.9-0.9h-3.6c-0.5,0-0.9,0.4-0.9,0.9v11.6c0,0.5-0.4,0.9-0.9,0.9h-3.6c-0.5,0-0.9-0.4-0.9-0.9v-6.3
		c0-0.5-0.4-0.9-0.9-0.9h-3.6c-0.5,0-0.9,0.4-0.9,0.9v6.3c0,0.5-0.4,0.9-0.9,0.9h-4.5V96h47.1c0.5,0,0.9-0.4,0.9-0.9v-3.6
		c0-0.5-0.4-0.9-0.9-0.9h-3.6c-0.5,0-0.9-0.4-0.9-0.9V67.9C154.4,67.2,153.8,66.7,153.1,66.7z"/>
	<path class="st0" d="M147.4,29.7c-11.7-2.6-21.8,7.6-19.3,19.3c1.3,5.9,6.1,10.6,11.9,11.9c11.7,2.6,21.8-7.6,19.3-19.3
		C158,35.8,153.2,31,147.4,29.7z M141,35v9.2l-6.5,6.5c-1-1.6-1.5-3.5-1.5-5.4C133,40.5,136.3,36.3,141,35z M143.7,56
		c-1.9,0-3.8-0.5-5.4-1.5l7.3-7.3c0.5-0.5,0.8-1.2,0.8-1.9V35c5.7,1.5,9.1,7.3,7.7,13C152.8,52.7,148.6,56,143.7,56z"/>
	<path class="st0" d="M69.9,29.3h46.3c0.5,0,0.9,0.4,0.9,0.9v3.6c0,0.5-0.4,0.9-0.9,0.9H69.9c-0.5,0-0.9-0.4-0.9-0.9v-3.6
		C69,29.7,69.4,29.3,69.9,29.3z"/>
	<path class="st0" d="M48.5,40h67.6c0.5,0,0.9,0.4,0.9,0.9v3.6c0,0.5-0.4,0.9-0.9,0.9H48.5c-0.5,0-0.9-0.4-0.9-0.9v-3.6
		C47.7,40.4,48.1,40,48.5,40z"/>
	<path class="st0" d="M48.5,50.7h57c0.5,0,0.9,0.4,0.9,0.9v3.6c0,0.5-0.4,0.9-0.9,0.9h-57c-0.5,0-0.9-0.4-0.9-0.9v-3.6
		C47.7,51,48.1,50.7,48.5,50.7z"/>
	<path class="st0" d="M112.5,64h3.6c0.5,0,0.9,0.4,0.9,0.9v3.6c0,0.5-0.4,0.9-0.9,0.9h-3.6c-0.5,0-0.9-0.4-0.9-0.9v-3.6
		C111.7,64.4,112.1,64,112.5,64z"/>
	<path class="st0" d="M101.9,64h3.6c0.5,0,0.9,0.4,0.9,0.9v3.6c0,0.5-0.4,0.9-0.9,0.9h-3.6c-0.5,0-0.9-0.4-0.9-0.9v-3.6
		C101,64.4,101.4,64,101.9,64z"/>
	<path class="st0" d="M91.2,64h3.6c0.5,0,0.9,0.4,0.9,0.9v3.6c0,0.5-0.4,0.9-0.9,0.9h-3.6c-0.5,0-0.9-0.4-0.9-0.9v-3.6
		C90.4,64.4,90.7,64,91.2,64z"/>
	<path class="st0" d="M113.5,114.7h25.8c1,0,1.8,0.8,1.8,1.8v1.8c0,1-0.8,1.8-1.8,1.8h-25.8c-1,0-1.8-0.8-1.8-1.8v-1.8
		C111.7,115.5,112.5,114.7,113.5,114.7z"/>
	<path class="st0" d="M89.1,5.3h53.2c0.8,0,1.4,0.6,1.4,1.4v2.6c0,0.8-0.6,1.4-1.4,1.4H89.1c-0.8,0-1.4-0.6-1.4-1.4V6.7
		C87.7,5.9,88.3,5.3,89.1,5.3z"/>
	<path class="st0" d="M150.4,5.3h2.6c0.8,0,1.4,0.6,1.4,1.4v2.6c0,0.8-0.6,1.4-1.4,1.4h-2.6c-0.8,0-1.4-0.6-1.4-1.4V6.7
		C149,6,149.6,5.3,150.4,5.3z"/>
</g>
</svg>
