<?xml version="1.0" encoding="utf-8"?>
<!-- Generator: Adobe Illustrator 22.1.0, SVG Export Plug-In . SVG Version: 6.00 Build 0)  -->
<svg version="1.1" id="Слой_1" width="36" xmlns="http://www.w3.org/2000/svg" xmlns:xlink="http://www.w3.org/1999/xlink" x="0px" y="0px"
	 viewBox="0 0 200 160" style="enable-background:new 0 0 200 160;" xml:space="preserve">
<style type="text/css">
	.st0{fill:#000000;}
</style>
<g>
	<path class="st0" d="M162,12.5h3.9c0.5,0,0.9,0.4,0.9,0.9v3.9c0,0.5-0.4,0.9-0.9,0.9H162c-0.5,0-0.9-0.4-0.9-0.9v-3.9
		C161.1,12.9,161.5,12.5,162,12.5z"/>
	<path class="st0" d="M175.3,78.4h3.9c0.5,0,0.9,0.4,0.9,0.9v3.9c0,0.5-0.4,0.9-0.9,0.9h-3.9c-0.5,0-0.9-0.4-0.9-0.9v-3.9
		C174.4,78.8,174.8,78.4,175.3,78.4z"/>
	<path class="st0" d="M147.9,12.5h3.9c0.5,0,0.9,0.4,0.9,0.9v3.9c0,0.5-0.4,0.9-0.9,0.9h-3.9c-0.5,0-0.9-0.4-0.9-0.9v-3.9
		C147,12.9,147.4,12.5,147.9,12.5z"/>
	<path class="st0" d="M133.8,12.5h3.9c0.5,0,0.9,0.4,0.9,0.9v3.9c0,0.5-0.4,0.9-0.9,0.9h-3.9c-0.5,0-0.9-0.4-0.9-0.9v-3.9
		C132.8,12.9,133.3,12.5,133.8,12.5z"/>
	<path class="st0" d="M164.6,0H35.2c-8.5,0-15.3,6.9-15.3,15.3v101.1c0,8.5,6.9,15.3,15.3,15.3h43.1v5.1c0,1.5,0,5-8.1,5.1
		c-7.6,0-13.9,6.1-13.9,13.8l0,1.6c0,1.5,1.2,2.8,2.8,2.8h81.6c1.5,0,2.8-1.2,2.8-2.8v-1.6c0-7.6-6.3-13.7-13.9-13.8
		c-8.1,0-8.1-3.6-8.1-5.1v-5.1h43.1c8.5,0,15.3-6.9,15.3-15.3V95.7V93c0-0.5-0.4-0.9-0.9-0.9h-3.8c-0.5,0-0.9,0.4-0.9,0.9v2.7v11.7
		c0,0-28.3,0-28.3,0h-0.7v-66c0-1.5-1.2-2.6-2.6-2.6h-21.1c-1.5,0-2.6,1.2-2.6,2.6v22.7c0,0.6,0.5,1,1,1h3.2c0.6,0,1-0.5,1-1V44
		h15.8v10.6h-9.5c-0.6,0-1,0.5-1,1v3.2c0,0.6,0.5,1,1,1h9.5V73h-9.5c-0.6,0-1,0.5-1,1v3.2c0,0.6,0.5,1,1,1h9.5v13.2h-9.5
		c-0.6,0-1,0.5-1,1v3.2c0,0.6,0.5,1,1,1h9.5v10.6h-15.8V87.3c0-0.6-0.5-1-1-1H120c-0.6,0-1,0.5-1,1v20.1h-10.6V94.1
		c0-10.8,13.1-13.1,13.6-13.2c0.3-0.1,0.6-0.2,0.9-0.3c1.3-0.7,1.7-2.4,0.9-3.6l-23.8-39.6c-0.2-0.3-0.4-0.5-0.7-0.7
		c-1.2-0.9-3-0.5-3.8,0.7L71.9,77c-0.2,0.3-0.3,0.6-0.3,0.9c-0.2,1.4,0.7,2.8,2.2,3c0.6,0.1,13.6,2.5,13.6,13.2v13.2H76.8V87.3
		c0-0.6-0.5-1-1-1h-3.2c-0.6,0-1,0.5-1,1v20.1h-2.6V59.8h2.6v4.2c0,0.6,0.5,1,1,1h3.2c0.6,0,1-0.5,1-1v-6.9c-0.1-0.3-0.1-0.7-0.2-1
		l-7.9-18.5c-0.3-0.6-0.8-1.1-1.4-1.4c-1.3-0.6-2.9,0-3.5,1.4l-7.9,18.5c-0.1,0.4-0.1,0.7-0.2,1v50.2h-0.6c0,0,0,0,0,0H25.4V30.7
		h148.9v36.8v2.1c0,0.5,0.4,0.9,0.9,0.9h3.8c0.5,0,0.9-0.4,0.9-0.9v-2.1V15.3C179.9,6.9,173,0,164.6,0z M103.2,104.7v2.6H92.6v-2.6
		H103.2z M92.6,99.4v-2.6h10.6v2.6H92.6z M78.2,76.6l17-28.4v21.1c0,0.6,0.5,1,1,1h3.2c0.6,0,1-0.5,1-1V48.2l17,28.4
		c-5.8,1.9-12.9,6.5-14.2,14.9H92.4C91.1,83.1,84,78.6,78.2,76.6z M66.2,45.4l3.9,9.1h-7.8L66.2,45.4z M60.9,59.8h2.6v47.5h-2.6
		V59.8z M129.7,147.4c3.9,0,7.3,2.8,8.1,6.6l0.1,0.4H61.9L62,154c0.8-3.8,4.2-6.6,8.1-6.6h19.5c1.5,0,2.8-1.2,2.8-2.8
		s-1.2-2.8-2.8-2.8h-6.9l0.2-0.5c0.6-1.3,0.9-2.9,0.9-4.6v-5.1H116v5.1c0,1.7,0.3,3.2,0.9,4.6l0.2,0.5h-6.7c-1.5,0-2.8,1.2-2.8,2.8
		s1.2,2.8,2.8,2.8H129.7z M174.4,112.9v1.4v2.1c0,5.4-4.4,9.8-9.8,9.8H35.2c-5.4,0-9.8-4.4-9.8-9.8v-3.5H174.4z M25.4,25.1v-9.8
		c0-5.4,4.4-9.8,9.8-9.8h15.7l9.6,19.6H25.4z M174.4,25.1H66.6L57.1,5.5h107.5c5.4,0,9.8,4.4,9.8,9.8V25.1z"/>
</g>
</svg>
