<?xml version="1.0" encoding="utf-8"?>
<!-- Generator: Adobe Illustrator 22.1.0, SVG Export Plug-In . SVG Version: 6.00 Build 0)  -->
<svg version="1.1" id="Слой_1" width="36" xmlns="http://www.w3.org/2000/svg" xmlns:xlink="http://www.w3.org/1999/xlink" x="0px" y="0px"
	 viewBox="0 0 200 160" style="enable-background:new 0 0 200 160;" xml:space="preserve">
<style type="text/css">
	.st0{fill:#000000;}
</style>
<g>
	<path class="st0" d="M42.5,56.2h3.8c0.5,0,0.9,0.4,0.9,0.9v3.8c0,0.5-0.4,0.9-0.9,0.9h-3.8c-0.5,0-0.9-0.4-0.9-0.9v-3.8
		C41.6,56.6,42,56.2,42.5,56.2z"/>
	<path class="st0" d="M52.9,56.2h3.8c0.5,0,0.9,0.4,0.9,0.9v3.8c0,0.5-0.4,0.9-0.9,0.9h-3.8c-0.5,0-0.9-0.4-0.9-0.9v-3.8
		C52,56.6,52.4,56.2,52.9,56.2z"/>
	<path class="st0" d="M156,30.9h3.8c0.5,0,0.9,0.4,0.9,0.9v8.8c0,0.5-0.4,0.9-0.9,0.9H156c-0.5,0-0.9-0.4-0.9-0.9v-8.8
		C155.1,31.3,155.5,30.9,156,30.9z"/>
	<path class="st0" d="M171.6,33.6l3.4,1.7c0.4,0.2,0.6,0.8,0.4,1.2l-3.9,7.9c-0.2,0.4-0.8,0.6-1.2,0.4l-3.4-1.7
		c-0.4-0.2-0.6-0.8-0.4-1.2l3.9-7.9C170.6,33.5,171.1,33.3,171.6,33.6z"/>
	<g>
		<path class="st0" d="M166.7,48.1c-5.5-2.2-11.3-2.3-16.7-0.3c-1.9-9.8-10.4-16.9-20.4-16.9c0,0,0,0,0,0
			c-1.4-11.8-11.3-20.6-23.2-20.6c-3.8,0-7.4,0.9-10.8,2.7C89.7,4.9,80.3,0,70.3,0C53.2,0,39.3,13.9,39.3,31.1v0
			c-11,1.4-19.1,11.4-17.9,22.7c1.1,10.7,10.4,18.6,21.1,18.6l4.5,0v10h-3c-0.9,0-1.6,0.5-1.9,1.4l-1.6,4.9l-4.6-2.3
			c-0.8-0.4-1.7-0.2-2.3,0.4l-8,8c-0.6,0.6-0.8,1.5-0.4,2.3l2.3,4.6l-4.9,1.6c-0.8,0.3-1.4,1-1.4,1.9v11.4c0,0.9,0.5,1.6,1.4,1.9
			l4.9,1.6l-2.3,4.6c-0.4,0.8-0.2,1.7,0.4,2.3l8,8c0.6,0.6,1.5,0.8,2.3,0.4l4.6-2.3l1.6,4.9c0.3,0.8,1,1.4,1.9,1.4h3v9.4
			c0,0.5,0.4,0.9,0.9,0.9h44.9c0.5,0,0.9-0.4,0.9-0.9v-3.7c0-0.5-0.4-0.9-0.9-0.9H52.4v-4.9h3c0.9,0,1.6-0.5,1.9-1.4l1.6-4.9
			l4.6,2.3c0.8,0.4,1.7,0.2,2.3-0.4l8-8c0.6-0.6,0.8-1.5,0.4-2.3l-2.3-4.6l4.9-1.6c0.8-0.3,1.4-1,1.4-1.9v-11.4
			c0-0.9-0.5-1.6-1.4-1.9l-4.9-1.6l2.3-4.6c0.4-0.8,0.2-1.7-0.4-2.3l-8-8c-0.6-0.6-1.5-0.8-2.3-0.4l-4.6,2.3l-1.6-4.9
			c-0.3-0.8-1-1.4-1.9-1.4h-3v-10h77.1c1.7,0,3.4-0.2,5.1-0.7c0.7,8,5.6,15.1,12.8,18.8V98c0,4.7,3.2,8.8,7.7,10v36.2h-24.9
			c-0.5,0-0.9,0.4-0.9,0.9v3.7c0,0.5,0.4,0.9,0.9,0.9h29.4c0.5,0,0.9-0.4,0.9-0.9v-40.7c4.6-1.2,7.7-5.3,7.7-10v-7.5
			c9.4-4.7,14.5-14.9,12.4-25.6C179.2,57.3,173.8,51,166.7,48.1z M65.7,103l0.9,2.1c0.2,0.4,0.5,0.7,0.9,0.8l4.4,1.5
			c0.5,0.2,0.8,0.6,0.8,1.2v4.6c0,0.5-0.3,1-0.8,1.2l-4.4,1.5c-0.4,0.1-0.7,0.4-0.9,0.8l-0.9,2.1c-0.2,0.4-0.1,0.8,0,1.2l2.1,4.1
			c0.2,0.5,0.1,1.1-0.2,1.4l-3.3,3.3c-0.4,0.4-1,0.5-1.4,0.2l-4.1-2.1c-0.4-0.2-0.8-0.2-1.2,0l-2.1,0.9c-0.4,0.2-0.7,0.5-0.8,0.9
			l-1.5,4.4c-0.2,0.5-0.6,0.8-1.2,0.8h-4.6c-0.5,0-1-0.3-1.2-0.8l-1.5-4.4c-0.1-0.4-0.4-0.7-0.8-0.9l-2.1-0.9
			c-0.4-0.2-0.8-0.1-1.2,0l-4.1,2.1c-0.5,0.2-1.1,0.1-1.4-0.2l-3.3-3.2c-0.4-0.4-0.5-1-0.2-1.4l2.1-4.1c0.2-0.4,0.2-0.8,0-1.2
			l-0.9-2.1c-0.2-0.4-0.5-0.7-0.9-0.8l-4.4-1.5c-0.5-0.2-0.8-0.6-0.8-1.2v-4.6c0-0.5,0.3-1,0.8-1.2l4.4-1.5c0.4-0.1,0.7-0.4,0.9-0.8
			l0.9-2.1c0.2-0.4,0.1-0.8,0-1.2l-2.1-4.1c-0.2-0.5-0.1-1.1,0.2-1.4L35,93c0.4-0.4,1-0.5,1.4-0.2l4.1,2.1c0.4,0.2,0.8,0.2,1.2,0
			l2.1-0.9c0.4-0.2,0.7-0.5,0.8-0.9l1.5-4.4c0.2-0.5,0.6-0.8,1.2-0.8H52c0.5,0,1,0.3,1.2,0.8l1.5,4.4c0.1,0.4,0.4,0.7,0.8,0.9
			l2.1,0.9c0.4,0.2,0.8,0.1,1.2,0l4.1-2.1c0.5-0.2,1.1-0.1,1.4,0.2l3.3,3.3c0.4,0.4,0.5,1,0.2,1.4l-2.1,4.1
			C65.6,102.2,65.6,102.6,65.7,103z M101.3,29.7c-0.2-4.1-1.2-8.2-3-12c2.6-1.3,5.3-2,8.1-2c9.2,0,16.8,6.8,17.8,15.9
			c-8.6,2.3-14.7,9.8-15.3,18.6c-0.1,0.8,0.5,1.4,1.3,1.4l2.8,0c0.7,0,1.3-0.5,1.3-1.2c0.6-7.9,7.2-14.1,15.3-14.1
			c8,0,14.5,6,15.2,14c-5.3,3.6-8.9,9.3-9.9,15.6c-1.7,0.6-3.5,1-5.3,1l-87.2,0c-8.2,0-15.3-6.3-15.7-14.5
			c-0.4-8.8,6.5-16.1,15.2-16.1l2,0c0.7,0,1.2-0.6,1.1-1.2l-0.2-1.8c-0.1-1.4-0.1-2.3-0.1-3.3c0.6-11.8,9-22.1,20.7-24.2
			C81.2,3,95.1,14.7,95.9,29.8c0,0.7,0.6,1.3,1.3,1.3l2.5,0C100.8,31.1,101.4,30.4,101.3,29.7z M157.9,67.3c1.3,0,2.4,1.1,2.4,2.4
			c0,1.3-1.1,2.4-2.4,2.4c-1.3,0-2.4-1.1-2.4-2.4C155.5,68.4,156.6,67.3,157.9,67.3z M160.6,77.1c3.1-1.1,5.2-4.1,5.2-7.4
			c0-4.3-3.5-7.9-7.9-7.9c-4.3,0-7.9,3.5-7.9,7.9c0,3.3,2.1,6.2,5.2,7.4v10.3C146.5,86,140,78.5,140,69.7c0-9.9,8-17.9,17.9-17.9
			c9.9,0,17.9,8,17.9,17.9c0,8.8-6.5,16.3-15.2,17.7V77.1z M162.9,92.5V98c0,2.8-2.2,5-5,5c-2.8,0-5-2.2-5-5v-5.6
			c1.7,0.4,3.4,0.6,5,0.6C159.5,93,161.2,92.8,162.9,92.5z"/>
		<path class="st0" d="M49.7,97.9c-7.2,0-13,5.8-13,13s5.8,13,13,13s13-5.8,13-13S56.9,97.9,49.7,97.9z M57.3,110.9
			c0,4.2-3.4,7.6-7.6,7.6s-7.6-3.4-7.6-7.6c0-4.2,3.4-7.6,7.6-7.6S57.3,106.7,57.3,110.9z"/>
		<path class="st0" d="M120.6,118.1l4.8-14.5c0.1-0.3-0.1-0.6-0.4-0.6h-17.1c-0.5,0-0.9,0.3-1.1,0.7l-11.6,28.9
			c-0.3,0.7,0.3,1.6,1.1,1.6h13.8c0.2,0,0.3,0.2,0.2,0.3l-5.6,18.5c-0.5,1.6-0.2,3.4,0.8,4.7c1,1.4,2.6,2.2,4.3,2.2
			c2,0,3.9-1.1,4.8-3l18.5-36.9c0.4-0.8-0.2-1.6-1-1.6h-11.3C120.6,118.5,120.5,118.3,120.6,118.1z M117.7,129l0.1-0.2h-14.7
			c-0.2,0-0.3-0.2-0.2-0.4l7.9-19.8c0-0.1,0.1-0.2,0.2-0.2h6.7c0.2,0,0.3,0.2,0.2,0.3l-5,14.9l-0.1,0.2h11.8c0.2,0,0.3,0.2,0.2,0.4
			l-14.6,29.3L117.7,129z"/>
		<path class="st0" d="M49.6,31.1c0,1.7,0.2,3.3,0.6,4.9c0.1,0.6,0.8,0.9,1.3,0.7l3.2-1c0.5-0.2,0.9-0.7,0.7-1.2
			c-0.3-1.1-0.4-2.3-0.4-3.4c0-8.2,6.5-14.9,14.7-15.3c0.4,0,0.7-0.3,0.7-0.7V11c0-0.4-0.3-0.7-0.7-0.7
			C58.5,10.7,49.6,19.8,49.6,31.1z"/>
	</g>
</g>
</svg>
