<?xml version="1.0" encoding="utf-8"?>
<!-- Generator: Adobe Illustrator 22.1.0, SVG Export Plug-In . SVG Version: 6.00 Build 0)  -->
<svg version="1.1" id="Слой_1" width="36" xmlns="http://www.w3.org/2000/svg" xmlns:xlink="http://www.w3.org/1999/xlink" x="0px" y="0px"
	 viewBox="0 0 200 160" style="enable-background:new 0 0 200 160;" xml:space="preserve">
<style type="text/css">
	.st0{fill:#000000;}
</style>
<g>
	<path class="st0" d="M33.1,0h3.9C37.6,0,38,0.4,38,0.9v3.9c0,0.5-0.4,0.9-0.9,0.9h-3.9c-0.5,0-0.9-0.4-0.9-0.9V0.9
		C32.2,0.4,32.6,0,33.1,0z"/>
	<path class="st0" d="M135.7,33.9h3.9c0.5,0,0.9,0.4,0.9,0.9v3.9c0,0.5-0.4,0.9-0.9,0.9h-3.9c-0.5,0-0.9-0.4-0.9-0.9v-3.9
		C134.7,34.3,135.1,33.9,135.7,33.9z"/>
	<path class="st0" d="M125.8,33.9h3.9c0.5,0,0.9,0.4,0.9,0.9v3.9c0,0.5-0.4,0.9-0.9,0.9h-3.9c-0.5,0-0.9-0.4-0.9-0.9v-3.9
		C124.9,34.3,125.3,33.9,125.8,33.9z"/>
	<path class="st0" d="M116,33.9h3.9c0.5,0,0.9,0.4,0.9,0.9v3.9c0,0.5-0.4,0.9-0.9,0.9H116c-0.5,0-0.9-0.4-0.9-0.9v-3.9
		C115.1,34.3,115.5,33.9,116,33.9z"/>
	<path class="st0" d="M89.5,33.9h17.8c0.5,0,0.9,0.4,0.9,0.9v3.9c0,0.5-0.4,0.9-0.9,0.9H89.5c-0.5,0-0.9-0.4-0.9-0.9v-3.9
		C88.6,34.3,89,33.9,89.5,33.9z"/>
	<path class="st0" d="M135.7,53.5h3.9c0.5,0,0.9,0.4,0.9,0.9v3.9c0,0.5-0.4,0.9-0.9,0.9h-3.9c-0.5,0-0.9-0.4-0.9-0.9v-3.9
		C134.7,53.9,135.1,53.5,135.7,53.5z"/>
	<path class="st0" d="M125.8,53.5h3.9c0.5,0,0.9,0.4,0.9,0.9v3.9c0,0.5-0.4,0.9-0.9,0.9h-3.9c-0.5,0-0.9-0.4-0.9-0.9v-3.9
		C124.9,53.9,125.3,53.5,125.8,53.5z"/>
	<path class="st0" d="M116,53.5h3.9c0.5,0,0.9,0.4,0.9,0.9v3.9c0,0.5-0.4,0.9-0.9,0.9H116c-0.5,0-0.9-0.4-0.9-0.9v-3.9
		C115.1,53.9,115.5,53.5,116,53.5z"/>
	<path class="st0" d="M89.5,53.5h17.8c0.5,0,0.9,0.4,0.9,0.9v3.9c0,0.5-0.4,0.9-0.9,0.9H89.5c-0.5,0-0.9-0.4-0.9-0.9v-3.9
		C88.6,53.9,89,53.5,89.5,53.5z"/>
	<path class="st0" d="M135.7,73.6h3.9c0.5,0,0.9,0.4,0.9,0.9v3.9c0,0.5-0.4,0.9-0.9,0.9h-3.9c-0.5,0-0.9-0.4-0.9-0.9v-3.9
		C134.7,74,135.1,73.6,135.7,73.6z"/>
	<path class="st0" d="M125.8,73.6h3.9c0.5,0,0.9,0.4,0.9,0.9v3.9c0,0.5-0.4,0.9-0.9,0.9h-3.9c-0.5,0-0.9-0.4-0.9-0.9v-3.9
		C124.9,74,125.3,73.6,125.8,73.6z"/>
	<path class="st0" d="M116,73.6h3.9c0.5,0,0.9,0.4,0.9,0.9v3.9c0,0.5-0.4,0.9-0.9,0.9H116c-0.5,0-0.9-0.4-0.9-0.9v-3.9
		C115.1,74,115.5,73.6,116,73.6z"/>
	<path class="st0" d="M89.5,73.6h17.8c0.5,0,0.9,0.4,0.9,0.9v3.9c0,0.5-0.4,0.9-0.9,0.9H89.5c-0.5,0-0.9-0.4-0.9-0.9v-3.9
		C88.6,74,89,73.6,89.5,73.6z"/>
	<g id="Outlines">
		<g>
			<path class="st0" d="M134.6,113.6c-1-0.9-2.5-0.9-3.5,0.1c-0.9,1-0.9,2.5,0,3.4l3.9,3.9l-13.9,13.9l-6.5-6.5
				c-0.8-0.8-1.9-0.9-2.9-0.4c-2.2,1.2-4.5,2.1-6.8,2.8c-1,0.3-1.7,1.3-1.7,2.3v9.2H83.7v-9.2c0-1.1-0.7-2-1.7-2.3
				c-2.4-0.7-4.6-1.7-6.8-2.8c-1-0.5-2.1-0.3-2.9,0.4l-6.5,6.5L51.8,121l6.5-6.5c0.8-0.8,0.9-1.9,0.4-2.9c-1.2-2.2-2.1-4.5-2.8-6.8
				c-0.3-1-1.3-1.7-2.3-1.7h-9.2V83.4h9.2c1.1,0,2-0.7,2.3-1.7c0.7-2.4,1.7-4.6,2.8-6.8c0.5-1,0.3-2.1-0.4-2.9l-6.5-6.5l13.9-13.9
				l3.9,3.9c0.9,1,2.5,1,3.5,0.1s1-2.5,0.1-3.5c0,0,0,0-0.1-0.1l-5.7-5.7c-1-1-2.5-1-3.5,0c0,0,0,0,0,0L46.6,63.7c-1,1-1,2.5,0,3.5
				c0,0,0,0,0,0l7,7c-0.7,1.4-1.3,2.8-1.8,4.3h-9.9c-1.4,0-2.5,1.1-2.5,2.5v24.5c0,1.4,1.1,2.5,2.5,2.5h9.9c0.5,1.5,1.1,2.9,1.8,4.3
				l-7,7c-1,1-1,2.5,0,3.5c0,0,0,0,0,0L64,140.1c1,1,2.5,1,3.5,0c0,0,0,0,0,0l7-7c1.4,0.7,2.8,1.3,4.3,1.8v9.9
				c0,1.4,1.1,2.5,2.5,2.5h24.5c1.4,0,2.5-1.1,2.5-2.5v-9.9c1.5-0.5,2.9-1.1,4.3-1.8l7,7c1,1,2.5,1,3.5,0c0,0,0,0,0,0l17.3-17.3
				c1-1,1-2.5,0-3.5c0,0,0,0,0,0L134.6,113.6z"/>
			<path class="st0" d="M71.3,93.2c-1.3,0.1-2.3,1.3-2.2,2.7c0,0,0,0,0,0c1.4,14.8,14.6,25.6,29.4,24.2c3.2-0.3,6.3-1.2,9.1-2.6
				c1.2-0.5,1.8-2,1.3-3.2c-0.5-1.2-2-1.8-3.2-1.3c-0.1,0-0.1,0.1-0.2,0.1c-3,1.4-6.2,2.2-9.5,2.2c-11.4,0-20.9-8.6-22-19.9
				C73.8,94.1,72.6,93.1,71.3,93.2z"/>
			<path class="st0" d="M184.2,24.5h-6.8c-0.1-0.3-0.3-0.7-0.4-1l4.8-4.8c1-1,1-2.5,0-3.5L171.4,4.9c-1-1-2.5-1-3.5,0l-4.8,4.8
				c-0.3-0.1-0.7-0.3-1-0.4V2.5c0-1.4-1.1-2.5-2.5-2.5H145c-1.4,0-2.5,1.1-2.5,2.5v6.8c-0.3,0.1-0.7,0.3-1,0.4l-4.8-4.8
				c-1-1-2.5-1-3.5,0l-10.4,10.4c-1,1-1,2.5,0,3.5c1,1,2.5,1,3.5,0l8.7-8.7l4.3,4.3c0.8,0.8,1.9,0.9,2.9,0.4
				c1.1-0.6,2.3-1.1,3.6-1.5c1-0.3,1.7-1.3,1.7-2.3v-6h9.8v6c0,1.1,0.7,2,1.7,2.3c1.2,0.4,2.4,0.9,3.6,1.5c1,0.5,2.1,0.3,2.9-0.4
				l4.3-4.3l6.9,6.9l-4.3,4.3c-0.8,0.8-0.9,1.9-0.4,2.9c0.6,1.1,1.1,2.3,1.5,3.6c0.3,1,1.3,1.7,2.3,1.7h6v9.8h-6
				c-1.1,0-2,0.7-2.3,1.7c-0.4,1.2-0.9,2.4-1.5,3.6c-0.5,1-0.3,2.1,0.4,2.9l4.3,4.3l-6.9,6.9l-4.3-4.3c-0.8-0.8-1.9-0.9-2.9-0.4
				c-1.1,0.6-2.3,1.1-3.6,1.5c-1,0.3-1.7,1.3-1.7,2.3v8.5c0,1.4,1.1,2.5,2.5,2.5c1.4,0,2.5-1.1,2.5-2.5v-6.8c0.3-0.1,0.7-0.3,1-0.4
				l4.8,4.8c1,1,2.5,1,3.5,0l0.5-0.5v30.4c-2.1,0.7-3.7,2.4-4.5,4.5h-25v-2.5c0-1.4-1.1-2.5-2.5-2.5h-17.2v-4.9h27
				c1.4,0,2.5-1.1,2.5-2.5V27c0-1.4-1.1-2.5-2.5-2.5h-18.1c-1.4,0-1.4,1.1-1.4,2.5c0,1.4,0.1,2.5,1.4,2.5h15.6v14.7H83.7V29.4h39.6
				c1.4,0,1.2-1.1,1.2-2.5c0-1.4,0.2-2.5-1.2-2.5h-42c-1.4,0-2.5,1.1-2.5,2.5v58.9c0,1.4,1.1,2.5,2.5,2.5H92c1.4,0,1.1-1.1,1.1-2.5
				s0.3-2.5-1.1-2.5h-8.3V68.7h63.8v14.7h-48c-1.4,0-1,1.1-1,2.5s-0.3,2.5,1,2.5h8.8v4.9H93.5c-1.4,0-2.5,1.1-2.5,2.5v2.5h-7.4
				c-1.4,0-2.5,1.1-2.5,2.5s1.1,2.5,2.5,2.5H91v2.5c0,1.4,1.1,2.5,2.5,2.5h46.6c1.4,0,2.5-1.1,2.5-2.5V103h25
				c1.3,3.8,5.5,5.8,9.4,4.5s5.8-5.5,4.5-9.4c-0.7-2.1-2.4-3.8-4.5-4.5V58.4l5-5c1-1,1-2.5,0-3.5l-4.8-4.8c0.2-0.3,0.3-0.7,0.4-1
				h6.8c1.4,0,2.5-1.1,2.5-2.5V27C186.7,25.6,185.6,24.5,184.2,24.5z M83.7,63.8V49.1h63.8v14.7H83.7z M137.6,103H95.9v-4.9h14.7
				c1.4,0,2.5-1.1,2.5-2.5v-7.4h4.9v7.4c0,1.4,1.1,2.5,2.5,2.5h17.2V103z M174.4,103c-1.4,0-2.5-1.1-2.5-2.5s1.1-2.5,2.5-2.5
				c1.4,0,2.5,1.1,2.5,2.5S175.8,103,174.4,103z"/>
			<path class="st0" d="M158.2,42.2c-1.1,0.7-1.4,2.3-0.7,3.4c0.7,1.1,2.3,1.4,3.4,0.7c0.1-0.1,0.2-0.1,0.2-0.2
				c6.5-4.8,7.8-14,3-20.4c-0.8-1.1-1.9-2.1-3-3c-1.1-0.8-2.6-0.6-3.4,0.5c-0.8,1.1-0.6,2.6,0.5,3.4c4.3,3.2,5.2,9.3,2,13.6
				C159.7,40.9,159,41.6,158.2,42.2L158.2,42.2z"/>
		</g>
	</g>
	<path class="st0" d="M74.7,24.2H64.4l0.1-23.6c0-0.3-0.3-0.6-0.6-0.6h-4.2c-0.3,0-0.6,0.3-0.6,0.6L59,29.5h4.2L48.3,44.5L33.4,29.5
		h4.2l0.1-18.3c0-0.3-0.3-0.6-0.6-0.6H33c-0.3,0-0.6,0.3-0.6,0.6l-0.1,12.9H21.9c-0.5,0-0.8,0.6-0.4,1l26.4,26.4
		c0.2,0.2,0.6,0.2,0.8,0l26.4-26.4C75.5,24.8,75.3,24.2,74.7,24.2z"/>
	<path class="st0" d="M180.4,160h-3.9c-0.5,0-0.9-0.4-0.9-0.9v-3.9c0-0.5,0.4-0.9,0.9-0.9h3.9c0.5,0,0.9,0.4,0.9,0.9v3.9
		C181.3,159.6,180.9,160,180.4,160z"/>
	<path class="st0" d="M138.7,137h10.4l-0.1,22.4c0,0.3,0.3,0.6,0.6,0.6h4.2c0.3,0,0.6-0.3,0.6-0.6l0.1-27.7h-4.2l14.9-14.9
		l14.9,14.9h-4.2l-0.1,17c0,0.3,0.3,0.6,0.6,0.6h4.2c0.3,0,0.6-0.3,0.6-0.6l0.1-11.7h10.4c0.5,0,0.8-0.6,0.4-1l-26.4-26.4
		c-0.2-0.2-0.6-0.2-0.8,0L138.3,136C138,136.4,138.2,137,138.7,137z"/>
</g>
</svg>
