<?xml version="1.0" encoding="utf-8"?>
<!-- Generator: Adobe Illustrator 22.1.0, SVG Export Plug-In . SVG Version: 6.00 Build 0)  -->
<svg version="1.1" id="Слой_1" width="36" xmlns="http://www.w3.org/2000/svg" xmlns:xlink="http://www.w3.org/1999/xlink" x="0px" y="0px"
	 viewBox="0 0 200 160" style="enable-background:new 0 0 200 160;" xml:space="preserve">
<style type="text/css">
	.st0{fill:#000000;}
</style>
<g>
	<path class="st0" d="M147.7,66.7h8c1.5,0,2.7-1.2,2.7-2.7v-8c0-1.5-1.2-1.7-2.7-1.7S153,54.5,153,56v5.3h-5.3
		c-1.5,0-1.4,1.2-1.4,2.7S146.2,66.7,147.7,66.7z"/>
	<path class="st0" d="M84.9,56c5.9,0,10.7-4.8,10.7-10.7s-4.8-10.7-10.7-10.7c-5.9,0-10.7,4.8-10.7,10.7S79,56,84.9,56z M84.9,40
		c2.9,0,5.3,2.4,5.3,5.3s-2.4,5.3-5.3,5.3c-2.9,0-5.3-2.4-5.3-5.3S82,40,84.9,40z"/>
	<path class="st0" d="M26.7,55.1c1.1,0.6,2.4,0.9,3.7,0.9c3.4,0,6.4-2.2,7.5-5.4l21-0.3l-3.7,3c-1,0.8-1.3,2.3-0.6,3.4l5,8.6l0.1,12
		H46.3c-0.2,0-0.3,0-0.5,0.1c-1.3-3.7-5-6-8.9-5.3c-3.9,0.6-6.7,4-6.7,7.9s2.8,7.3,6.7,7.9c3.9,0.6,7.6-1.6,8.9-5.3
		c0.2,0,0.3,0.1,0.5,0.1h16c0.7,0,1.4-0.3,1.9-0.8c0.5-0.5,0.8-1.2,0.8-1.9l-0.1-13.5l8.5-3.2c0.6,0.4,1.2,0.7,1.8,1L77,75.1
		c0.2,1.3,1.3,2.2,2.6,2.2H81v13.3h-8c-1.5,0-2.7,1.2-2.7,2.7v38.9l-23.2,23.2c-0.8,0.8-1,1.9-0.6,2.9c0.4,1,1.4,1.6,2.5,1.6h85.3
		c1.1,0,2.1-0.6,2.5-1.6c0.4-1,0.2-2.1-0.6-2.9l-17.9-17.9v-14.2l6-9.9c10.1,6.1,16.2,9.2,18,9.2h16c1.5,0,2.7-1.2,2.7-2.7v-14.9
		l4.5-4.5c0.5-0.5,0.8-1.2,0.8-1.9v-8h3.9c1.8,0,3.5-0.9,4.5-2.4c1-1.5,1.1-3.4,0.4-5.1l-8.3-18.7c3.1-3.7,4.9-8.5,4.9-13.4
		c0.1-17.6-9.9-33.8-25.7-41.6l-7.7-3.9c-1.2-0.6-2.6-0.2-3.4,0.8L133.7,8h-18.1V2.7c0-1.5-1.2-2.7-2.7-2.7H86.3
		c-1.5,0-2.7,1.2-2.7,2.7v10.7h-4.1c-1.3,0-2.4,0.9-2.6,2.2l-1.8,10.8c-0.6,0.3-1.2,0.7-1.8,1l-10.3-3.8c-1.2-0.5-2.6,0-3.2,1.2
		l-2.7,4.7c-0.1,0-0.1,0-0.2,0H41v-8.5c3.7-1.3,5.9-5.1,5.2-8.9c-0.7-3.8-4-6.6-7.9-6.6c-3.9,0-7.2,2.8-7.9,6.6
		c-0.7,3.8,1.5,7.6,5.2,8.9V32c0,1.5,1.2,2.7,2.7,2.7h16c-0.2,1,0.1,2,0.9,2.7l8.5,7c0,0.2,0,0.4,0,0.6l-25.8,0.4
		c-1.2-3.4-4.5-5.5-8.1-5.3c-3.6,0.3-6.6,2.9-7.3,6.4C21.7,49.9,23.5,53.5,26.7,55.1z M38.3,82.7c-1.5,0-2.7-1.2-2.7-2.7
		s1.2-2.7,2.7-2.7S41,78.5,41,80S39.8,82.7,38.3,82.7z M38.3,10.7c1.5,0,2.7,1.2,2.7,2.7S39.8,16,38.3,16s-2.7-1.2-2.7-2.7
		S36.8,10.7,38.3,10.7z M86.3,77.3h3.9c1.3,0,2.4-0.9,2.6-2.2l1.8-10.8c0.7-0.4,1.1-0.6,1.8-1l10.3,3.8c1.2,0.5,2.6,0,3.2-1.2l1.1-2
		h12.6c0.2,0,0.4-0.1,0.6-0.1l4.8,6.3v4.4h-9.7c-0.5,0-0.9,0.4-0.9,0.9v3.5c0,0.5,0.4,0.9,0.9,0.9h5.2l-7.1,2.9
		c-1,0.4-1.7,1.4-1.7,2.5v5.3H86.3V77.3z M115.3,34l-1.1-2h6.8v10.7h-12.8l6.5-5.3C115.7,36.5,115.9,35.1,115.3,34z M121,48v10.7
		h-6.8l1.1-2c0.6-1.1,0.4-2.6-0.6-3.4l-6.5-5.3H121z M103.1,113.9l9.9,9.9v1.6H97V96h5.3v16C102.3,112.7,102.6,113.4,103.1,113.9z
		 M86.2,149.3h0.1v-0.1l10-11.4c0.4-0.5,0.7-1.1,0.7-1.8v-5.3h5.3v24H81.5L86.2,149.3z M55.4,154.7l19.4-19.4
		c0.5-0.5,0.8-1.2,0.8-1.9V96h16v39l-5.3,6.1v-12.2c0-0.5-0.4-0.9-0.9-0.9h-3.5c-0.5,0-0.9,0.4-0.9,0.9v18.3l-6.5,7.5H55.4z
		 M127.9,154.7h-20.2v-24h5.3v8c0,0.7,0.3,1.4,0.8,1.9L127.9,154.7z M115.1,118.4l-7.5-7.5V96h8v10.7c0,0.9,0.5,1.8,1.3,2.3
		c1,0.6,1.9,1.2,2.8,1.8L115.1,118.4z M137.8,11.4l5.7,2.9c14,6.9,22.8,21.2,22.8,36.9c0,4.1-1.6,8.1-4.6,11c-0.8,0.8-1,2-0.6,3
		l9,20.3h-6.6c-1.5,0-2.7,1.2-2.7,2.7v8h-0.5c-4.1,0-8.1-1.6-11-4.6c-1-1-2-0.3-3.1,0.7c-1,1-1.7,2-0.7,3c3.2,3.2,7.3,5.2,11.7,5.9
		l-1,1c-0.5,0.5-0.8,1.2-0.8,1.9v13.3l-13.1,0c-6.2-2.8-12.1-6.1-17.8-9.8l0,0h0c-1.3-0.8-2.5-1.5-3.8-2.3V87.1l11.7-4.7
		c1-0.4,1.7-1.4,1.7-2.5V69.3c0-0.6-0.2-1.1-0.5-1.6l-7.5-10V27.5L137.8,11.4z M89,5.3h21.3v5.3c0,1.5,1.2,2.7,2.7,2.7h16.9
		l-8.4,11.8c-0.3,0.5-0.5,1-0.5,1.5h-9.9l-1.1-2c-0.7-1.1-2-1.6-3.2-1.2l-10.3,3.8c-0.6-0.4-1.2-0.7-1.8-1l-1.8-10.8
		c-0.2-1.3-1.3-2.2-2.6-2.2H89V5.3z M60.3,34.7l3.1-5.3l9.5,3.5c0.9,0.3,1.8,0.2,2.5-0.4c1-0.8,2.1-1.4,3.2-1.9
		c0.8-0.4,1.4-1.1,1.6-2l1.7-9.9H88l1.7,10c0.1,0.9,0.7,1.7,1.6,2c1.2,0.5,2.2,1.1,3.2,1.9c0.7,0.5,1.7,0.7,2.5,0.4l9.5-3.6l3.1,5.3
		l-7.8,6.4c-0.7,0.6-1.1,1.5-1,2.4c0.2,1.2,0.2,2.5,0,3.8c-0.1,0.9,0.3,1.8,1,2.4l7.8,6.4l-3.1,5.3L97,57.8
		c-0.8-0.3-1.8-0.2-2.5,0.4c-1,0.8-2.1,1.4-3.2,1.9c-0.8,0.4-1.4,1.1-1.6,2L88,72h-6.2l-1.7-10c-0.1-0.9-0.7-1.7-1.6-2
		c-1.2-0.5-2.2-1.1-3.2-1.9c-0.7-0.5-1.7-0.7-2.5-0.4l-9.5,3.6L60.3,56l7.8-6.4c0,0,0.1-0.1,0.1-0.1c0.1,0,0.1-0.1,0.1-0.2
		c0.2-0.2,0.4-0.5,0.5-0.7l0,0c0.1-0.3,0.2-0.6,0.2-0.9c0,0,0-0.1,0-0.1c0,0,0-0.1,0-0.1c0,0,0-0.1,0-0.2c-0.2-1.2-0.2-2.5,0-3.8
		c0.1-0.9-0.3-1.8-1-2.4L60.3,34.7z M28,46.8c0.3-0.6,0.9-1.1,1.6-1.3c1.4-0.3,2.8,0.4,3.2,1.8c0.4,1.3-0.3,2.8-1.6,3.3
		c-1.4,0.5-2.9-0.3-3.4-1.7C27.6,48.1,27.6,47.4,28,46.8z"/>
	<path class="st0" d="M81.9,106.7h3.5c0.5,0,0.9,0.4,0.9,0.9v3.5c0,0.5-0.4,0.9-0.9,0.9h-3.5c-0.5,0-0.9-0.4-0.9-0.9v-3.5
		C81,107.1,81.4,106.7,81.9,106.7z"/>
	<path class="st0" d="M81.9,117.3h3.5c0.5,0,0.9,0.4,0.9,0.9v3.5c0,0.5-0.4,0.9-0.9,0.9h-3.5c-0.5,0-0.9-0.4-0.9-0.9v-3.5
		C81,117.7,81.4,117.3,81.9,117.3z"/>
	<path class="st0" d="M97.9,74.7h3.5c0.5,0,0.9,0.4,0.9,0.9v3.5c0,0.5-0.4,0.9-0.9,0.9h-3.5c-0.5,0-0.9-0.4-0.9-0.9v-3.5
		C97,75.1,97.4,74.7,97.9,74.7z"/>
	<path class="st0" d="M108.6,74.7h3.5c0.5,0,0.9,0.4,0.9,0.9v3.5c0,0.5-0.4,0.9-0.9,0.9h-3.5c-0.5,0-0.9-0.4-0.9-0.9v-3.5
		C107.7,75.1,108.1,74.7,108.6,74.7z"/>
	<path class="st0" d="M132.6,26.7h3.5c0.5,0,0.9,0.4,0.9,0.9v8.8c0,0.5-0.4,0.9-0.9,0.9h-3.5c-0.5,0-0.9-0.4-0.9-0.9v-8.8
		C131.7,27.1,132.1,26.7,132.6,26.7z"/>
	<path class="st0" d="M132.6,42.7h3.5c0.5,0,0.9,0.4,0.9,0.9v3.5c0,0.5-0.4,0.9-0.9,0.9h-3.5c-0.5,0-0.9-0.4-0.9-0.9v-3.5
		C131.7,43.1,132.1,42.7,132.6,42.7z"/>
	<path class="st0" d="M132.6,53.3h3.5c0.5,0,0.9,0.4,0.9,0.9v3.5c0,0.5-0.4,0.9-0.9,0.9h-3.5c-0.5,0-0.9-0.4-0.9-0.9v-3.5
		C131.7,53.7,132.1,53.3,132.6,53.3z"/>
</g>
</svg>
