<?xml version="1.0" encoding="utf-8"?>
<!-- Generator: Adobe Illustrator 22.1.0, SVG Export Plug-In . SVG Version: 6.00 Build 0)  -->
<svg version="1.1" id="Слой_1" width="36" xmlns="http://www.w3.org/2000/svg" xmlns:xlink="http://www.w3.org/1999/xlink" x="0px" y="0px"
	 viewBox="0 0 200 160" style="enable-background:new 0 0 200 160;" xml:space="preserve">
<style type="text/css">
	.st0{fill:#000000;}
</style>
<g>
	<path class="st0" d="M168.1,12.5h3.9c0.5,0,0.9,0.4,0.9,0.9v3.9c0,0.5-0.4,0.9-0.9,0.9h-3.9c-0.5,0-0.9-0.4-0.9-0.9v-3.9
		C167.2,12.9,167.6,12.5,168.1,12.5z"/>
	<path class="st0" d="M181.3,78.4h3.9c0.5,0,0.9,0.4,0.9,0.9v3.9c0,0.5-0.4,0.9-0.9,0.9h-3.9c-0.5,0-0.9-0.4-0.9-0.9v-3.9
		C180.4,78.8,180.8,78.4,181.3,78.4z"/>
	<path class="st0" d="M153.9,12.5h3.9c0.5,0,0.9,0.4,0.9,0.9v3.9c0,0.5-0.4,0.9-0.9,0.9h-3.9c-0.5,0-0.9-0.4-0.9-0.9v-3.9
		C153,12.9,153.4,12.5,153.9,12.5z"/>
	<path class="st0" d="M139.8,12.5h3.9c0.5,0,0.9,0.4,0.9,0.9v3.9c0,0.5-0.4,0.9-0.9,0.9h-3.9c-0.5,0-0.9-0.4-0.9-0.9v-3.9
		C138.9,12.9,139.3,12.5,139.8,12.5z"/>
	<g>
		<path class="st0" d="M170.6,0H41.3C32.8,0,26,6.9,26,15.3v101.1c0,8.5,6.9,15.3,15.3,15.3h43.1v5.1c0,1.5,0,5.1-8.2,5.1
			c-7.6,0-13.8,6.2-13.8,13.8v1.6c0,1.5,1.2,2.8,2.8,2.8h81.6c1.5,0,2.8-1.2,2.8-2.8v-1.6c0-7.6-6.2-13.8-13.8-13.8
			c-8.2,0-8.2-3.6-8.2-5.1v-5.1h43.1c8.5,0,15.3-6.9,15.3-15.3V95.7V93c0-0.5-0.4-0.9-0.9-0.9h-3.8c-0.5,0-0.9,0.4-0.9,0.9v2.7v11.7
			H31.5V30.7h148.9v36.8v2.1c0,0.5,0.4,0.9,0.9,0.9h3.8c0.5,0,0.9-0.4,0.9-0.9v-2.1V15.3C186,6.9,179.1,0,170.6,0z M135.8,147.4
			c3.9,0,7.3,2.8,8.1,6.6l0.1,0.4H68l0.1-0.4c0.8-3.8,4.2-6.6,8.1-6.6h19.5c1.5,0,2.8-1.2,2.8-2.8s-1.2-2.8-2.8-2.8h-6.9l0.2-0.5
			c0.6-1.3,0.9-2.9,0.9-4.6v-5.1H122v5.1c0,1.7,0.3,3.2,0.9,4.6l0.2,0.5h-6.7c-1.5,0-2.8,1.2-2.8,2.8s1.2,2.8,2.8,2.8H135.8z
			 M180.4,112.9v1.4v2.1c0,5.4-4.4,9.8-9.8,9.8H41.3c-5.4,0-9.8-4.4-9.8-9.8v-3.5H180.4z M31.5,25.1v-9.8c0-5.4,4.4-9.8,9.8-9.8H57
			l9.6,19.6H31.5z M72.7,25.1L63.1,5.5h107.5c5.4,0,9.8,4.4,9.8,9.8v9.8H72.7z"/>
	</g>
	<path class="st0" d="M132.5,53.7l-25-16.6c-0.5-0.3-1-0.5-1.6-0.5s-1.1,0.2-1.6,0.5l-25,16.6c-0.8,0.5-1.3,1.4-1.3,2.4v25
		c0,0.9,0.5,1.8,1.3,2.4l25,16.6c1,0.6,2.2,0.6,3.1,0l25-16.6c0.8-0.5,1.3-1.4,1.3-2.4V56C133.8,55.1,133.3,54.2,132.5,53.7z
		 M103.1,92.3L83.8,79.5V61.3l19.3,12.9V92.3z M106,69.3L86.1,56L106,42.8L125.8,56L106,69.3z M128.1,79.5l-19.3,12.9V74.2
		l19.3-12.9V79.5z"/>
</g>
</svg>
