<?xml version="1.0" encoding="utf-8"?>
<!-- Generator: Adobe Illustrator 22.1.0, SVG Export Plug-In . SVG Version: 6.00 Build 0)  -->
<svg version="1.1" id="Слой_1" width="36" xmlns="http://www.w3.org/2000/svg" xmlns:xlink="http://www.w3.org/1999/xlink" x="0px" y="0px"
	 viewBox="0 0 200 160" style="enable-background:new 0 0 200 160;" xml:space="preserve">
<style type="text/css">
	.st0{fill:#000000;}
</style>
<g>
	<path class="st0" d="M182.4,31h-9.3c-0.7-7-6.5-12.4-13.7-12.4h-10.6v-8.2h16c1.1,3,3.9,5.2,7.3,5.2c4.3,0,7.7-3.5,7.7-7.7
		c0-4.3-3.5-7.7-7.7-7.7c-3.4,0-6.2,2.2-7.3,5.2h-18.6c-1.4,0-2.6,1.2-2.6,2.6v10.8h-5.1c0-5,0-10.8,0-10.8c0-1.4-1.2-2.6-2.6-2.6
		h-18.6c-1.1-3-3.9-5.2-7.3-5.2c-4.3,0-7.7,3.5-7.7,7.7c0,4.3,3.5,7.7,7.7,7.7c3.4,0,6.2-2.2,7.3-5.2h16v8.2H82.6
		c-2-4.8-5-8.2-7-10.2C69.8,2.7,62.2-0.1,54.2,0c-13.7,0.4-25.3,10.5-28,23.5c-1.2,5.8-0.9,12.8,2.8,19.6v77.6
		c0,7.6,6.2,13.8,13.8,13.8h38.9v4.6c0,1.4,0,4.6-7.4,4.6c-6.8,0-12.4,5.6-12.4,12.4v1.4c0,1.4,1.1,2.5,2.5,2.5h73.7
		c1.4,0,2.5-1.1,2.5-2.5v-1.4c0-6.8-5.6-12.4-12.4-12.4c-7.4,0-7.4-3.2-7.4-4.6v-4.6h38.9c7.6,0,13.8-6.2,13.8-13.8V99.5
		c0-0.4-0.4-0.8-0.8-0.8h-3.4c-0.4,0-0.8,0.3-0.8,0.8v13H33.9V49.9c0.9,0.9,1.8,1.8,2.8,2.7l0.2,0.2c0.1,0.1,0.2,0.2,0.4,0.3v3
		c0,3.8,2.5,7.1,5.9,8.3v9.4c0,4.9,4,8.9,8.9,8.9H58c4.9,0,8.9-4,8.9-8.9v-9.4c3.4-1.2,5.9-4.5,5.9-8.3v-3c0.1-0.1,0.2-0.2,0.4-0.3
		c0,0,2.9-2.2,5.8-6.6h18.3v44.2c0,1.4,1.2,2.6,2.6,2.6h82.6c1.4,0,2.6-1.2,2.6-2.6V33.6C185,32.1,183.8,31,182.4,31z M172.1,5.2
		c1.4,0,2.6,1.2,2.6,2.6c0,1.4-1.2,2.6-2.6,2.6s-2.6-1.2-2.6-2.6C169.5,6.3,170.7,5.2,172.1,5.2z M110.1,10.3
		c-1.4,0-2.6-1.2-2.6-2.6c0-1.4,1.2-2.6,2.6-2.6c1.4,0,2.6,1.2,2.6,2.6C112.7,9.2,111.5,10.3,110.1,10.3z M128,148.7
		c3.5,0,6.6,2.5,7.3,5.9l0.1,0.4H66.8l0.1-0.4c0.7-3.4,3.8-5.9,7.3-5.9h17.6c1.4,0,2.5-1.1,2.5-2.5c0-1.4-1.1-2.5-2.5-2.5h-6.2
		l0.2-0.5c0.5-1.2,0.8-2.6,0.8-4.1v-4.6h29v4.6c0,1.5,0.3,2.9,0.8,4.1l0.2,0.5h-6c-1.4,0-2.5,1.1-2.5,2.5c0,1.4,1.1,2.5,2.5,2.5H128
		z M168.3,117.5v3.2c0,4.9-4,8.8-8.8,8.8H42.7c-4.9,0-8.8-4-8.8-8.8v-3.2H168.3z M60.9,73.8c0,1.6-1.3,3-3,3h-5.9c-1.6,0-3-1.3-3-3
		v-8.9h11.8V73.8z M52.1,41.3c0-1.6,1.3-3,3-3c1.6,0,3,1.3,3,3c0,1.6-1.3,3-3,3C53.4,44.3,52.1,42.9,52.1,41.3z M68.1,49.1
		c-0.8,0.5-1.3,1.5-1.3,2.5v4.5c0,1.6-1.3,3-3,3H58v-9.4c3.4-1.2,5.9-4.5,5.9-8.3c0-4.9-4-8.9-8.9-8.9c-4.9,0-8.9,4-8.9,8.9
		c0,3.8,2.5,7.1,5.9,8.3V59h-5.9c-1.6,0-3-1.3-3-3v-4.5c0-1-0.5-1.9-1.3-2.5c-6.6-4.4-10.6-11.8-10.5-19.8
		C31.5,16.8,41.8,6.3,54.3,5.9c0.2,0,0.5,0,0.7,0c6.2,0,12,2.4,16.5,6.7c4.6,4.5,7.2,10.5,7.2,16.9C78.6,37.4,74.7,44.7,68.1,49.1z
		 M148.8,23.5h10.6c4.4,0,8,3.2,8.7,7.5h-19.3V23.5z M138.6,24.8c0-0.3,0-0.8,0-1.3h5.1V31h-5.2C138.5,31,138.6,24.9,138.6,24.8z
		 M97.2,33.6v7.6H81.6c1-2.2,1.8-4.6,2.4-7.4c0.8-3.8,0.7-7.2,0.1-10.3h49.3V31H99.8C98.4,31,97.2,32.1,97.2,33.6z M179.8,87.8
		h-77.5v-31h77.5V87.8z M179.8,51.6h-77.5V36.2h77.5V51.6z"/>
	<path class="st0" d="M57,17.7h-4c-0.5,0-0.9,0.4-0.9,0.9v7c0,0.5,0.4,0.9,0.9,0.9h4c0.5,0,0.9-0.4,0.9-0.9v-7
		C58,18.1,57.5,17.7,57,17.7z"/>
	<path class="st0" d="M43,22.2c-0.4-0.4-1-0.4-1.3,0L38.8,25c-0.4,0.4-0.4,1,0,1.3l5.2,5.2l3.5-3.5c0.4-0.4,0.4-1,0-1.3L43,22.2z"/>
	<path class="st0" d="M68.3,22.2c-0.4-0.4-1-0.4-1.3,0l-4.6,4.6c-0.4,0.4-0.4,1,0,1.3l2.9,2.9c0.4,0.4,1,0.4,1.3,0l4.6-4.6
		c0.4-0.4,0.4-1,0-1.3L68.3,22.2z"/>
	<path class="st0" d="M128.4,83.9c0.3,0.3,0.8,0.3,1.1,0l2.6-2.6c0.3-0.3,0.3-0.8,0-1.1l-8-8l8-8c0.3-0.3,0.3-0.8,0-1.1l-2.6-2.6
		c-0.3-0.3-0.8-0.3-1.1,0l-9.8,9.8c-1,1-1,2.6,0,3.7L128.4,83.9z"/>
	<path class="st0" d="M150.2,81.4l2.6,2.6c0.3,0.3,0.8,0.3,1.1,0l9.8-9.8c1-1,1-2.6,0-3.7l-9.8-9.8c-0.3-0.3-0.8-0.3-1.1,0l-2.6,2.6
		c-0.3,0.3-0.3,0.8,0,1.1l8,8l-8,8C149.8,80.6,149.8,81.1,150.2,81.4z"/>
	<path class="st0" d="M137.5,83.5c0.4,0.2,0.8,0,1-0.3l9.6-19.3c0.2-0.4,0-0.8-0.3-1l-3.2-1.6c-0.4-0.2-0.8,0-1,0.3l-9.6,19.3
		c-0.2,0.4,0,0.8,0.3,1L137.5,83.5z"/>
</g>
</svg>
