<?xml version="1.0" encoding="utf-8"?>
<!-- Generator: Adobe Illustrator 22.1.0, SVG Export Plug-In . SVG Version: 6.00 Build 0)  -->
<svg version="1.1" id="Слой_1" xmlns="http://www.w3.org/2000/svg" xmlns:xlink="http://www.w3.org/1999/xlink" x="0px" y="0px"
	 viewBox="0 0 200 160" style="enable-background:new 0 0 200 160;" xml:space="preserve">
<style type="text/css">
	.st0{fill:#000000;}
</style>
<g>
	<g>
		<path class="st0" d="M135,141.7v-72c0-1.6-1.3-2.9-2.9-2.9h-72c-1.6,0-2.9,1.3-2.9,2.9v72c0,1.6,1.3,2.9,2.9,2.9h72
			C133.7,144.6,135,143.3,135,141.7z M63,72.6h30.3v4.6l-1.9,0.3C79.4,79.6,70,89,68,101l-0.3,1.9H63V72.6z M93.3,138.8H63v-30.3
			h4.6l0.3,1.9c2,12,11.4,21.4,23.4,23.4l1.9,0.3V138.8z M90.5,127.8c-8-2.1-14.3-8.4-16.4-16.4l-0.7-2.8v0h9.4
			c0.5,0,0.8-0.4,0.8-0.9v-3.8c0-0.5-0.4-0.9-0.8-0.9h-9.4v0L74,100c2.1-8,8.4-14.3,16.4-16.4l2.8-0.7h0v9.5c0,0.5,0.4,0.8,0.9,0.8
			h3.8c0.5,0,0.9-0.4,0.9-0.8v-9.5h0l2.8,0.7c8,2.1,14.3,8.4,16.4,16.4l0.7,2.8v0h-9.5c-0.5,0-0.8,0.4-0.8,0.9v3.8
			c0,0.5,0.4,0.9,0.8,0.9h9.5v0l-0.7,2.8c-2.1,8-8.4,14.3-16.4,16.4l-2.8,0.7h0v-9.5c0-0.5-0.4-0.8-0.9-0.8h-3.8
			c-0.5,0-0.9,0.4-0.9,0.8v9.5h0L90.5,127.8z M129.3,138.8H99v-4.6l1.9-0.3c12-2,21.4-11.4,23.4-23.4l0.3-1.9h4.6V138.8z
			 M129.3,102.8h-4.6l-0.3-1.9c-2-12-11.4-21.4-23.4-23.4L99,77.2v-4.6h30.3V102.8z"/>
		<path class="st0" d="M31.6,85.1c0,4.4,3.6,8,8,8c4.4,0,8-3.6,8-8c0-4.4-3.6-8-8-8C35.2,77.1,31.6,80.7,31.6,85.1z"/>
		<path class="st0" d="M160.7,85.1c0-4.4-3.6-8-8-8c-4.4,0-8,3.6-8,8c0,4.4,3.6,8,8,8C157.1,93.2,160.7,89.6,160.7,85.1z"/>
	</g>
	<path class="st0" d="M31.6,133.6v-3.8c0-0.5,0.4-0.9,0.8-0.9h14.3c0.5,0,0.8,0.4,0.8,0.9v3.8c0,0.5-0.4,0.9-0.8,0.9H32.4
		C32,134.5,31.6,134.1,31.6,133.6z"/>
	<path class="st0" d="M144.7,117.9v-3.8c0-0.5,0.4-0.9,0.8-0.9h14.3c0.5,0,0.8,0.4,0.8,0.9v3.8c0,0.5-0.4,0.9-0.8,0.9h-14.3
		C145.1,118.8,144.7,118.4,144.7,117.9z"/>
	<path class="st0" d="M31.6,117.9v-3.8c0-0.5,0.4-0.9,0.8-0.9h14.3c0.5,0,0.8,0.4,0.8,0.9v3.8c0,0.5-0.4,0.9-0.8,0.9H32.4
		C32,118.8,31.6,118.4,31.6,117.9z"/>
	<path class="st0" d="M144.7,133.6v-3.8c0-0.5,0.4-0.9,0.8-0.9h14.3c0.5,0,0.8,0.4,0.8,0.9v3.8c0,0.5-0.4,0.9-0.8,0.9h-14.3
		C145.1,134.5,144.7,134.1,144.7,133.6z"/>
	<path class="st0" d="M158.5,51.4h-13.2V10.6c0-5.8-4.7-10.6-10.6-10.6c-5.8,0-10.6,4.7-10.6,10.6v40.8H33.8
		c-9.7,0-17.6,7.9-17.6,17.6v73.3c0,9.7,7.9,17.6,17.6,17.6l69.5,0c0.5,0,0.8-0.4,0.8-0.9v-3.9c0-0.5-0.4-0.9-0.8-0.9l-69.5,0
		c-6.6,0-11.9-5.3-11.9-11.9V69c0-6.6,5.3-11.9,11.9-11.9h124.8c6.6,0,11.9,5.3,11.9,11.9v73.3c0,6.6-5.3,11.9-11.9,11.9l-33.5,0
		c-0.5,0-0.8,0.4-0.8,0.9v3.9c0,0.5,0.4,0.9,0.8,0.9l33.5,0c9.7,0,17.6-7.9,17.6-17.6V69C176.2,59.3,168.3,51.4,158.5,51.4z
		 M139.6,51.4h-9.7V10.6c0-2.7,2.2-4.8,4.8-4.8c2.7,0,4.8,2.2,4.8,4.8V51.4z"/>
</g>
</svg>
