<?xml version="1.0" encoding="utf-8"?>
<!-- Generator: Adobe Illustrator 22.1.0, SVG Export Plug-In . SVG Version: 6.00 Build 0)  -->
<svg version="1.1" id="Слой_1" width="36" xmlns="http://www.w3.org/2000/svg" xmlns:xlink="http://www.w3.org/1999/xlink" x="0px" y="0px"
	 viewBox="0 0 200 160" style="enable-background:new 0 0 200 160;" xml:space="preserve">
<style type="text/css">
	.st0{fill:#000000;}
</style>
<g>
	<path class="st0" d="M108.3,48.2L95.9,91.6l4.1,1.2c0.8,0.2,1.6-0.2,1.9-1l12-42c0.2-0.8-0.2-1.6-1-1.9l-2.6-0.8
		C109.4,46.9,108.6,47.4,108.3,48.2z"/>
	<path class="st0" d="M71.9,68.8L86.1,57c0.6-0.5,0.7-1.4,0.2-1.9l-1.9-2.2c-0.5-0.6-1.5-0.7-2.1-0.2L64.2,67.7
		c-1.2,1-1.4,2.8-0.4,4.1c0.1,0.1,0.2,0.3,0.4,0.4l18.1,15.1c0.6,0.5,1.6,0.4,2.1-0.2l1.8-2.1c0.5-0.6,0.4-1.6-0.2-2.1L71.9,71.1
		C71.2,70.5,71.2,69.4,71.9,68.8z"/>
	<path class="st0" d="M146.4,68.1c-0.1-0.1-0.2-0.3-0.4-0.4l-18.1-15.1c-0.6-0.5-1.6-0.4-2.1,0.2L124,55c-0.5,0.6-0.4,1.6,0.2,2.1
		l15.5,12.9l-15.5,12.9c-0.6,0.5-0.7,1.4-0.2,2.1l1.8,2.2c0.5,0.6,1.4,0.7,2.1,0.2l18.1-15.1C147.3,71.1,147.5,69.3,146.4,68.1z"/>
	<path class="st0" d="M167.3,12.5h3.9c0.5,0,0.9,0.4,0.9,0.9v3.9c0,0.5-0.4,0.9-0.9,0.9h-3.9c-0.5,0-0.9-0.4-0.9-0.9v-3.9
		C166.4,12.9,166.8,12.5,167.3,12.5z"/>
	<path class="st0" d="M180.5,78.4h3.9c0.5,0,0.9,0.4,0.9,0.9v3.9c0,0.5-0.4,0.9-0.9,0.9h-3.9c-0.5,0-0.9-0.4-0.9-0.9v-3.9
		C179.6,78.8,180,78.4,180.5,78.4z"/>
	<path class="st0" d="M153.1,12.5h3.9c0.5,0,0.9,0.4,0.9,0.9v3.9c0,0.5-0.4,0.9-0.9,0.9h-3.9c-0.5,0-0.9-0.4-0.9-0.9v-3.9
		C152.2,12.9,152.6,12.5,153.1,12.5z"/>
	<path class="st0" d="M139,12.5h3.9c0.5,0,0.9,0.4,0.9,0.9v3.9c0,0.5-0.4,0.9-0.9,0.9H139c-0.5,0-0.9-0.4-0.9-0.9v-3.9
		C138.1,12.9,138.5,12.5,139,12.5z"/>
	<g>
		<path class="st0" d="M169.8,0H40.5C32,0,25.2,6.9,25.2,15.3v101.1c0,8.5,6.9,15.3,15.3,15.3h43.1v5.1c0,1.5,0,5.1-8.2,5.1
			c-7.6,0-13.8,6.2-13.8,13.8v1.6c0,1.5,1.2,2.8,2.8,2.8H146c1.5,0,2.8-1.2,2.8-2.8v-1.6c0-7.6-6.2-13.8-13.8-13.8
			c-8.2,0-8.2-3.6-8.2-5.1v-5.1h43.1c8.5,0,15.3-6.9,15.3-15.3V95.7V93c0-0.5-0.4-0.9-0.9-0.9h-3.8c-0.5,0-0.9,0.4-0.9,0.9v2.7v11.7
			H30.7V30.7h148.9v36.8v2.1c0,0.5,0.4,0.9,0.9,0.9h3.8c0.5,0,0.9-0.4,0.9-0.9v-2.1V15.3C185.2,6.9,178.3,0,169.8,0z M135,147.4
			c3.9,0,7.3,2.8,8.1,6.6l0.1,0.4H67.2l0.1-0.4c0.8-3.8,4.2-6.6,8.1-6.6h19.5c1.5,0,2.8-1.2,2.8-2.8s-1.2-2.8-2.8-2.8h-6.9l0.2-0.5
			c0.6-1.3,0.9-2.9,0.9-4.6v-5.1h32.1v5.1c0,1.7,0.3,3.2,0.9,4.6l0.2,0.5h-6.7c-1.5,0-2.8,1.2-2.8,2.8s1.2,2.8,2.8,2.8H135z
			 M179.6,112.9v1.4v2.1c0,5.4-4.4,9.8-9.8,9.8H40.5c-5.4,0-9.8-4.4-9.8-9.8v-3.5H179.6z M30.7,25.1v-9.8c0-5.4,4.4-9.8,9.8-9.8
			h15.7l9.6,19.6H30.7z M71.9,25.1L62.3,5.5h107.5c5.4,0,9.8,4.4,9.8,9.8v9.8H71.9z"/>
	</g>
</g>
</svg>
