<?xml version="1.0" encoding="utf-8"?>
<!-- Generator: Adobe Illustrator 22.1.0, SVG Export Plug-In . SVG Version: 6.00 Build 0)  -->
<svg version="1.1" id="Слой_1" width="36" xmlns="http://www.w3.org/2000/svg" xmlns:xlink="http://www.w3.org/1999/xlink" x="0px" y="0px"
	 viewBox="0 0 200 160" style="enable-background:new 0 0 200 160;" xml:space="preserve">
<style type="text/css">
	.st0{fill:#000000;}
</style>
<g>
	<path class="st0" d="M100.3,129.1h3.8c0.5,0,0.9,0.4,0.9,0.9v3.8c0,0.5-0.4,0.9-0.9,0.9h-3.8c-0.5,0-0.9-0.4-0.9-0.9V130
		C99.4,129.5,99.8,129.1,100.3,129.1z"/>
	<path class="st0" d="M143.2,44.1h3.8c0.5,0,0.9,0.4,0.9,0.9v3.8c0,0.5-0.4,0.9-0.9,0.9h-3.8c-0.5,0-0.9-0.4-0.9-0.9V45
		C142.3,44.5,142.7,44.1,143.2,44.1z"/>
	<path class="st0" d="M100.3,28.4h3.8c0.5,0,0.9,0.4,0.9,0.9v3.8c0,0.5-0.4,0.9-0.9,0.9h-3.8c-0.5,0-0.9-0.4-0.9-0.9v-3.8
		C99.4,28.8,99.8,28.4,100.3,28.4z"/>
	<path class="st0" d="M57.1,44h3.8c0.5,0,0.9,0.4,0.9,0.9v3.8c0,0.5-0.4,0.9-0.9,0.9h-3.8c-0.5,0-0.9-0.4-0.9-0.9v-3.8
		C56.2,44.4,56.6,44,57.1,44z"/>
	<g>
		<path class="st0" d="M176.7,95.9V85c0-1.4-0.6-2.7-1.7-3.6l-18.2-14.5V40.2c0-3-2.5-5.5-5.5-5.6l-4.3,0v-2.8l22.4-22.4
			c0.3,0.1,0.6,0.1,0.9,0.1c2.6,0,4.7-2.1,4.7-4.7c0-2.6-2.1-4.7-4.7-4.7s-4.7,2.1-4.7,4.7c0,0.3,0,0.6,0.1,0.9l-22.7,22.7
			c-0.9,0.9-1.3,2-1.3,3.2v3c-2.6-0.1-5.1-0.4-7.4-0.7V23.1l13.7-13.7c0.3,0.1,0.6,0.1,0.9,0.1c2.6,0,4.7-2.1,4.7-4.7
			c0-2.6-2.1-4.7-4.7-4.7c-2.6,0-4.7,2.1-4.7,4.7c0,0.3,0,0.6,0.1,0.9l-13.9,13.9c-0.9,0.9-1.3,2-1.3,3.2v10c-3-0.7-5.8-1.7-8.3-2.8
			V8.6c1.3-0.9,2-2.3,2-3.9c0-2.6-2.1-4.7-4.7-4.7c-2.6,0-4.7,2.1-4.7,4.7c0,1.6,0.8,3,2,3.9v18.2c-1.6-1.1-2.7-2.1-3.3-2.7
			c-1.2-1.2-2.2-2.4-3.2-3.7c-1.5-2-3.8-3.2-6.4-3.2c-2.5,0-4.9,1.2-6.4,3.2c-1,1.3-2.1,2.6-3.2,3.7c-1.2,1.2-2.7,2.4-4.3,3.4V8.6
			c1.3-0.9,2-2.3,2-3.9c0-2.6-2.1-4.7-4.7-4.7c-2.6,0-4.7,2.1-4.7,4.7c0,1.6,0.8,3,2,3.9v21.7c-2.6,1.1-5.5,2-8.7,2.7V22.7
			c0-1.2-0.5-2.4-1.3-3.2L59,5.6C59,5.3,59.1,5,59.1,4.7c0-2.6-2.1-4.7-4.7-4.7c-2.6,0-4.7,2.1-4.7,4.7c0,2.6,2.1,4.7,4.7,4.7
			c0.3,0,0.6,0,0.9-0.1l13.7,13.7V34c-2.4,0.3-4.9,0.5-7.4,0.6v-3.1c0-1.2-0.5-2.4-1.3-3.2L37.4,5.6c0.1-0.3,0.1-0.6,0.1-0.9
			c0-2.6-2.1-4.7-4.7-4.7S28,2.1,28,4.7c0,2.9,2.6,5.2,5.6,4.7L56,31.8v2.8l-3,0c-3,0-5.5,2.5-5.5,5.6v4.5c0,0.5,0.1,0.8,0.4,1.1
			c0.4,0.4,1,0.4,1.6,0.3c0.4,0,0.8,0,1.2,0c0.7,0,1.4,0.1,1.8-0.4c0.2-0.2,0.4-0.6,0.4-1v-4.5c0-0.1,0.1-0.2,0.2-0.2l6.3,0
			c10.6-0.1,19.8-1.9,27.2-5.3c0.2-0.1,0.3-0.1,0.4-0.2c4.7-2.3,7.7-4.8,9.5-6.5c1.4-1.4,2.6-2.8,3.7-4.3c0.5-0.7,1.2-1,2.1-1
			c0.8,0,1.6,0.4,2,1c1.1,1.5,2.4,3,3.7,4.3c3.6,3.6,14.3,11.9,37,12l6.3,0c0.1,0,0.2,0.1,0.2,0.2v34.7c0,8.6-2,17.1-5.8,24.8
			c-0.8,1.6-1.7,3.3-2.7,4.9c-0.2,0.4-0.3,0.7-0.2,1c0.2,0.6,0.8,1,1.5,1.4c0.2,0.1,0.4,0.2,0.5,0.3c0.1,0,1.2,0.8,2.1,0.6
			c0.3-0.1,0.5-0.2,0.6-0.4c1.1-1.7,2.1-3.5,2.9-5.3c1.6-3.2,2.9-6.6,3.9-10.1l4.5,3.4V128c-1.3,0.9-2,2.3-2,3.9
			c0,2.6,2.1,4.7,4.7,4.7c2.6,0,4.7-2.1,4.7-4.7c0-1.6-0.8-3-2-3.9V95c0-1.4-0.7-2.8-1.8-3.6l-6.7-5c0.7-3.8,1.1-7.6,1.1-11.4v-1.1
			l14.5,11.5v10.6c-1.3,0.9-2,2.3-2,3.9c0,2.6,2.1,4.7,4.7,4.7c2.6,0,4.7-2.1,4.7-4.7C178.8,98.3,178,96.8,176.7,95.9z"/>
		<path class="st0" d="M142.4,151.4v-21.7c0-1.2-0.5-2.4-1.3-3.2l-5.1-5.1c2.2-1.9,5-4.9,6.7-6.9c1.1-1.3-0.1-2.3-1-3.1
			c-0.9-0.8-2-1.7-3.1-0.4c-2.3,2.6-5.9,6.3-9,8.7l-20.8,16.2c-1.9,1.5-4.2,2.3-6.6,2.3c-2.4,0-4.7-0.8-6.6-2.3l-20.8-16.2
			c-6.8-5.2-12.3-12.1-16.1-19.8c-3.8-7.7-5.8-16.3-5.8-24.8V53.7c0-1.7-1.5-1.7-2.7-1.7c-1.1,0-2.7,0-2.7,1.7v12.2L28,81.4
			c-1.1,0.9-1.7,2.2-1.7,3.6v11c-1.3,0.9-2,2.3-2,3.9c0,2.6,2.1,4.7,4.7,4.7c2.6,0,4.6-2.1,4.6-4.7c0-1.6-0.7-3-1.9-3.9V85.4
			l15.8-12.6v2.1c0,3.5,0.3,7,0.9,10.5l-7.8,5.9c-1.1,0.9-1.8,2.2-1.8,3.6v33c-1.3,0.9-2,2.3-2,3.9c0,2.6,2.1,4.7,4.7,4.7
			c2.6,0,4.6-2.1,4.6-4.7c0-1.6-0.7-3-1.9-3.9V95.4l5.6-4.2c1,3.8,2.4,7.4,4.1,10.9c3.4,6.9,8.2,13.3,13.9,18.5l-5.8,5.8
			c-0.9,0.9-1.3,2-1.3,3.2v21.7c-1.3,0.9-2.1,2.3-2.1,3.9c0,2.6,2.1,4.7,4.7,4.7s4.7-2.1,4.7-4.7c0-1.6-0.8-3-2-3.9V130l5.9-5.9
			l20.4,15.8c2.8,2.2,6.3,3.4,9.9,3.4c3.6,0,7.1-1.2,9.9-3.4l19.6-15.2l5.3,5.3v21.4c-1.3,0.9-2,2.3-2,3.9c0,2.6,2.1,4.7,4.7,4.7
			c2.6,0,4.7-2.1,4.7-4.7C144.4,153.7,143.7,152.2,142.4,151.4z"/>
		<path class="st0" d="M78.6,90.8c-0.8,0-2.7,0-2.7,1.9v11.9c0,4.5,3.6,8.1,8.1,8.1h36.3c4.5,0,8.1-3.6,8.1-8.1V80.9
			c0-3.2-1.9-6.1-4.8-7.4v-8.5c0-12.2-9.9-22.2-22.2-22.2s-22.2,9.9-22.2,22.2v9.2c-2.2,1.5-3.5,4-3.5,6.6v2.8c0,1.9,2,1.9,2.7,1.9
			c0.8,0,2.7,0,2.7-1.9v-2.8c0-1.5,1.2-2.7,2.7-2.7h36.3c1.5,0,2.7,1.2,2.7,2.7v23.7c0,1.5-1.2,2.7-2.7,2.7H84
			c-1.5,0-2.7-1.2-2.7-2.7V92.7C81.3,90.8,79.5,90.8,78.6,90.8z M101.5,51.8c-7.3,0-13.3,6-13.3,13.3v7.8h-3.5v-7.8
			c0-9.2,7.5-16.8,16.8-16.8s16.8,7.5,16.8,16.8v7.8h-3.5v-7.8C114.8,57.7,108.8,51.8,101.5,51.8z M93.6,65.1c0-4.4,3.6-7.9,7.9-7.9
			c4.4,0,7.9,3.6,7.9,7.9v7.8H93.6V65.1z"/>
		<path class="st0" d="M101.1,101.9h2.7c0.5,0,1-0.4,1-1l0-4.7c1.9-0.9,3.2-2.9,3.2-5c0-1.5-0.6-3-1.7-4c-1.1-1.1-2.6-1.6-4.1-1.5
			c-2.8,0.2-5,2.4-5.2,5.1c-0.1,2.3,1.1,4.4,3.2,5.4v4.6C100.1,101.5,100.6,101.9,101.1,101.9z"/>
	</g>
</g>
</svg>
