<?xml version="1.0" encoding="utf-8"?>
<!-- Generator: Adobe Illustrator 22.1.0, SVG Export Plug-In . SVG Version: 6.00 Build 0)  -->
<svg version="1.1" id="Слой_1" width="36" xmlns="http://www.w3.org/2000/svg" xmlns:xlink="http://www.w3.org/1999/xlink" x="0px" y="0px"
	 viewBox="0 0 200 160" style="enable-background:new 0 0 200 160;" xml:space="preserve">
<style type="text/css">
	.st0{fill:#000000;}
</style>
<g>
	<path class="st0" d="M89.3,7.8h3.9c0.5,0,0.9,0.4,0.9,0.9v3.9c0,0.5-0.4,0.9-0.9,0.9h-3.9c-0.5,0-0.9-0.4-0.9-0.9V8.7
		C88.4,8.2,88.8,7.8,89.3,7.8z"/>
	<path class="st0" d="M70.3,7.8h13.9c0.5,0,0.9,0.4,0.9,0.9v3.9c0,0.5-0.4,0.9-0.9,0.9H70.3c-0.5,0-0.9-0.4-0.9-0.9V8.7
		C69.4,8.2,69.8,7.8,70.3,7.8z"/>
	<path class="st0" d="M91.1,50.5H121c0.5,0,0.9,0.4,0.9,0.9v3.9c0,0.5-0.4,0.9-0.9,0.9H91.1c-0.5,0-0.9-0.4-0.9-0.9v-3.9
		C90.2,50.9,90.6,50.5,91.1,50.5z"/>
	<path class="st0" d="M91.1,63.8h67.2c0.5,0,0.9,0.4,0.9,0.9v3.9c0,0.5-0.4,0.9-0.9,0.9H91.1c-0.5,0-0.9-0.4-0.9-0.9v-3.9
		C90.2,64.2,90.6,63.8,91.1,63.8z"/>
	<path class="st0" d="M79.6,130.7c-5.9,0-10.7,4.8-10.7,10.7c0,5.9,4.8,10.7,10.7,10.7s10.7-4.8,10.7-10.7
		C90.2,135.5,85.4,130.7,79.6,130.7z M79.6,146.7c-2.9,0-5.3-2.4-5.3-5.3c0-2.9,2.4-5.3,5.3-5.3s5.3,2.4,5.3,5.3
		C84.9,144.3,82.5,146.7,79.6,146.7z"/>
	<path class="st0" d="M173.4,32h-45.8V11.7c0-6.5-5.3-11.7-11.7-11.7H48.6c-6.5,0-11.7,5.3-11.7,11.7v136.5
		c0,6.5,5.3,11.7,11.7,11.7h67.2c6.5,0,11.7-5.3,11.7-11.7V88h45.8c1.2,0,2.2-1,2.2-2.2V34.2C175.6,33,174.6,32,173.4,32z M48.6,5.3
		h67.2c3.5,0,6.4,2.9,6.4,6.4V16h-80v-4.3C42.2,8.2,45.1,5.3,48.6,5.3z M115.8,154.7H48.6c-3.5,0-6.4-2.9-6.4-6.4V128h80v20.3
		C122.2,151.8,119.4,154.7,115.8,154.7z M122.2,122.7h-80V21.3h80V32H76.4c-1.2,0-2.2,1-2.2,2.2v51.6c0,1.2,1,2.2,2.2,2.2h8.5v16.1
		c0,1.1,1.2,1.7,2.1,1L109.8,88h12.4V122.7z M170.2,80.5c0,1.2-1,2.2-2.2,2.2h-40.5h-18.8c-0.5,0-1,0.2-1.4,0.5L91.2,95.2
		c-0.4,0.3-1,0-1-0.5V84.1c0-0.8-0.7-1.5-1.5-1.5h-7c-1.2,0-2.2-1-2.2-2.2v-41c0-1.2,1-2.2,2.2-2.2h45.8H168c1.2,0,2.2,1,2.2,2.2
		V80.5z"/>
</g>
</svg>
