<?xml version="1.0" encoding="utf-8"?>
<!-- Generator: Adobe Illustrator 22.1.0, SVG Export Plug-In . SVG Version: 6.00 Build 0)  -->
<svg version="1.1" id="Слой_1" width="36" xmlns="http://www.w3.org/2000/svg" xmlns:xlink="http://www.w3.org/1999/xlink" x="0px" y="0px"
	 viewBox="0 0 200 160" style="enable-background:new 0 0 200 160;" xml:space="preserve">
<style type="text/css">
	.st0{fill:#000000;}
</style>
<g>
	<path class="st0" d="M155.8,43.7c1.7,1.1,2.4,0.7,3-0.1c2.3-3.2,3.6-7.4,3.6-11.9c0-11.7-9.6-21.1-21.3-21.1
		c-7.6,0-14.7,4.2-18.5,10.9c-0.7,1.2,0.4,1.9,1.5,2.7c1.2,0.8,2.4,1.4,3.3,0c2.8-5.1,8-8.2,13.7-8.2c8.8,0,16,7.1,16,15.8
		c0,3.3-1,6.5-2.8,8.9C154,41.2,153.4,42.2,155.8,43.7z"/>
	<path class="st0" d="M115.1,18.5c1.9,1.4,2.8,0.6,3.2-0.1c4.5-8,13.5-13.1,22.8-13.1c14.7,0,26.7,11.9,26.7,26.5
		c0,5.5-1.5,10.5-4.4,14.8c-0.9,1.5,0.2,2.4,1.3,3.1c1.9,1.3,2.7,0.7,3.3-0.2c3.4-5.3,5.2-11.5,5.2-17.7c0-17.6-14.4-31.9-32.1-31.9
		c-11.1,0-21.6,6.1-27.6,15.8C112.7,17,113.8,17.6,115.1,18.5z"/>
	<path class="st0" d="M179.9,155.8c0-11.2-8.3-20.5-19.3-21.8V75.4l0.8,0.6c5,3.1,9.7,0.6,12-3c2.4-3.8,2.3-9.3-2.5-12.3l-21.3-13.2
		V26.6c0-1.4-1.3-2.7-2.7-2.7h-10.5c-1.7,0-2.7,1.4-2.7,2.7v10.8L104,19.1c-2.5-1.7-5.4-1.7-8.1,0L29.2,60.7c-4.8,3-5,8.5-2.6,12.3
		c2.3,3.7,7,6.1,12.1,3l0.6-0.4v37.8c-10.9,1.6-19.1,10.9-19.1,21.8v22c0,1.4,1.3,2.7,2.7,2.7H34c1.4,0,1.4-1.5,1.4-2.9
		c0-2.1-0.6-2.5-1.4-2.5h-8.4v-19.3c0-9.2,7.5-16.7,16.7-16.7c9.3,0,16.9,7.5,16.9,16.6c-0.2,1.2,0.1,2.5,0.8,3.3
		c0.5,0.6,1.1,0.8,1.9,0.8c8.8,0,16,6.6,16.6,15.2H45.3c-1.5,0-1.3,1.4-1.3,2.8c0,2.2,0.6,2.6,1.3,2.6h131.9c0.7,0,1.4-0.3,1.9-0.8
		C179.7,158.3,180.1,157,179.9,155.8z M139.1,40.8V29.3h5.1V44L139.1,40.8z M157.9,139.3h0.2c8.6,0,15.7,6.6,16.4,15.2h-33
		C142.3,146,149.5,139.3,157.9,139.3z M44.7,72.4c4.7-2.9,15.7-9.8,26.8-16.8c11.7-7.3,23.6-14.7,28.5-17.8
		c2.4,1.5,22.1,13.8,22.6,14c1.9,1.1,2.3,0.4,3.4-1c1.1-1.5,1.3-2.3,0-3.1l-24.6-15.3c-0.8-0.5-1.9-0.5-2.7,0L36,71.4
		c-1.2,0.7-2.4,0.7-3.5,0.1c-1.2-0.7-2-2.1-2-3.4c0-1.2,0.6-2.1,1.7-2.8l66.6-41.6c0.8-0.4,1.6-0.4,2.4,0l66.7,41.6
		c0.9,0.5,1.5,1.3,1.6,2.2c0.2,0.8,0,1.7-0.5,2.5c-0.5,0.8-1.2,1.5-2.1,1.8c-1,0.3-2,0.2-2.9-0.3l-28.4-17.7
		c-1.5-0.9-2.2,0.2-2.9,1.4c-0.7,1.1-1.5,2.3-0.1,3.2l22.4,13.9l0.2,61.8c-10.5,1.3-18.7,10.1-19.3,20.5H83.8
		C83.2,144,75,135.3,64.5,134c-0.6-10.7-9-19.5-19.8-20.6V72.4z"/>
	<path class="st0" d="M100,140.3c9.7,0,18.8-3.8,25.7-10.6c6.8-6.8,10.6-16,10.6-25.7s-3.8-18.9-10.6-25.7c-1.9-1.9-4.3-2.6-6.7-1.9
		c-2.7,0.7-5,3-5.6,5.7c-0.6,2.4,0.1,4.7,2,6.5c4,4.2,6.2,9.7,6.2,15.4c0,5.7-2.2,11.2-6.2,15.4c-4.2,4-9.7,6.2-15.4,6.2
		c-5.7,0-11.1-2.2-15.4-6.2c-4-4.2-6.2-9.7-6.2-15.4c0-5.7,2.2-11.2,6.2-15.4c1.9-1.8,2.6-4.2,2-6.6c-0.7-2.7-2.9-4.9-5.6-5.7
		c-2.4-0.7-4.8,0-6.7,1.9c-6.8,6.8-10.6,16-10.6,25.7s3.8,18.9,10.6,25.7C81.2,136.5,90.3,140.3,100,140.3z M80.9,84.8
		c-5,5.3-7.8,12.1-7.8,19.2c0,7.1,2.8,13.9,7.8,19.2c5.3,5.1,12,7.8,19.1,7.8c7.1,0,13.9-2.8,19.1-7.8c5-5.3,7.8-12.1,7.8-19.2
		c0-7.1-2.8-13.9-7.8-19.2c-0.9-0.9-0.6-2,0.1-2.7c0.4-0.4,0.8-0.6,1.3-0.6c0.5,0,1,0.2,1.4,0.6c5.8,5.8,9,13.6,9,21.9
		s-3.2,16.1-9,21.9c-6.1,5.9-13.7,9-21.9,9c-8.3,0-16.1-3.2-21.9-9c-5.8-5.8-9-13.6-9-21.9s3.2-16.1,9-21.9c0.4-0.4,0.9-0.6,1.3-0.6
		c0.2,0,0.3,0,0.5,0.1c0.7,0.2,1.3,0.8,1.5,1.5C81.5,83.5,81.5,84.1,80.9,84.8z"/>
	<path class="st0" d="M100,98.2c4.1,0,7.4-3.3,7.4-7.4V68.2c0-4.1-3.3-7.4-7.4-7.4c-4.2,0-7.4,3.2-7.4,7.4v22.7
		C92.7,95.1,95.8,98.2,100,98.2z M98.1,68.2c0-1.2,0.8-2,2-2c0.9,0,2,0.8,2,2v22.7c0,1.2-1,2-2,2c-1.2,0-2-0.8-2-2V68.2z"/>
</g>
</svg>
