<?xml version="1.0" encoding="utf-8"?>
<!-- Generator: Adobe Illustrator 22.1.0, SVG Export Plug-In . SVG Version: 6.00 Build 0)  -->
<svg version="1.1" id="Слой_1" width="36" xmlns="http://www.w3.org/2000/svg" xmlns:xlink="http://www.w3.org/1999/xlink" x="0px" y="0px"
	 viewBox="0 0 200 160" style="enable-background:new 0 0 200 160;" xml:space="preserve">
<style type="text/css">
	.st0{fill:#000000;}
</style>
<g>
	<path class="st0" d="M170.1,87.3h3.8c0.5,0,0.9,0.4,0.9,0.9V92c0,0.5-0.4,0.9-0.9,0.9h-3.8c-0.5,0-0.9-0.4-0.9-0.9v-3.8
		C169.2,87.7,169.6,87.3,170.1,87.3z"/>
	<path class="st0" d="M71.9,71.8h3.8c0.5,0,0.9,0.4,0.9,0.9v3.8c0,0.5-0.4,0.9-0.9,0.9h-3.8c-0.5,0-0.9-0.4-0.9-0.9v-3.8
		C71,72.2,71.4,71.8,71.9,71.8z"/>
	<path class="st0" d="M192.5,36.7c0-1.7-1.4-3.1-3.1-3.1h-5.5l-0.1-0.3c-0.7-2.4-1.7-4.7-2.8-6.9l-0.1-0.2l3.9-3.9
		c1.2-1.2,1.2-3.1,0-4.3L174.4,7.7c-1.2-1.2-3.1-1.2-4.3,0l-3.9,3.9l-0.2-0.1c-2.2-1.2-4.5-2.1-6.9-2.8l-0.3-0.1V3.1
		c0-1.7-1.4-3.1-3.1-3.1h-14.7c-1.7,0-3.1,1.4-3.1,3.1v5.5l-0.3,0.1c-2.4,0.7-4.7,1.7-6.8,2.8l-0.2,0.1l-3.9-3.9
		c-1.2-1.2-3.1-1.2-4.3,0l-7.9,7.9H44.9c-7.8,0-14.1,6.3-14.1,14.1v90.8c0,7.8,6.3,14.1,14.1,14.1h38.3v4.2c0,1.4,0,4.2-7,4.2
		c-7,0-12.7,5.7-12.7,12.7v1.4c0,1.6,1.3,2.9,2.9,2.9h73.3c1.6,0,2.9-1.3,2.9-2.9v-1.4c0-7-5.7-12.7-12.7-12.7c-7,0-7-2.8-7-4.2
		v-4.2h38.3c7.8,0,14.1-6.3,14.1-14.1v-21c0-0.6-0.5-1.1-1.2-1.1h-3.4c-0.6,0-1.2,0.5-1.2,1.1V112h-133V43.8h67.9v7.6
		c0,1.7,1.4,3.1,3.1,3.1h5.6l0.1,0.3c0.7,2.4,1.7,4.7,2.8,6.8l0.1,0.2l-4,4c-1.2,1.2-1.2,3.1,0,4.3l10.4,10.4c1.2,1.2,3.1,1.2,4.3,0
		l4-4l0.2,0.1c2.2,1.2,4.5,2.1,6.8,2.8l0.3,0.1l0,5.6c0,1.7,1.4,3.1,3.1,3.1h14.7c1.7,0,3.1-1.4,3.1-3.1v-5.6l0.3-0.1
		c2.4-0.7,4.7-1.7,6.8-2.8l0.2-0.1l3.9,3.9c0.6,0.6,1.4,0.9,2.2,0.9c0.8,0,1.6-0.3,2.2-0.9L184.8,70c0.6-0.6,0.9-1.4,0.9-2.2
		c0-0.8-0.3-1.6-0.9-2.2l-3.9-3.9l0.1-0.2c1.2-2.2,2.1-4.5,2.8-6.8l0.1-0.3h5.5c0.8,0,1.6-0.3,2.2-0.9c0.6-0.6,0.9-1.3,0.9-2.2
		L192.5,36.7z M129.8,148.7c3.3,0,6.2,2.3,6.9,5.6H69.3c0.7-3.2,3.6-5.6,6.9-5.6h17.5c1.6,0,2.8-1.3,2.8-2.9c0-1.6-1.3-2.9-2.8-2.9
		h-5.6c0.6-1.2,0.8-2.7,0.8-4.2v-4.2h28.1v4.2c0,1.5,0.3,2.9,0.8,4.2h-5.5c-1.6,0-2.9,1.3-2.9,2.9c0,1.6,1.3,2.9,2.9,2.9H129.8z
		 M169.5,117.7v2.8c0,4.6-3.8,8.4-8.4,8.4H44.9c-4.6,0-8.4-3.8-8.4-8.4v-2.8H169.5z M36.5,38.1v-8.4c0-4.6,3.8-8.4,8.4-8.4h13.9
		L67,38.1H36.5z M73.3,38.1l-8.2-16.8h46.6l4.1,5.2l-0.1,0.2c-0.9,1.8-2.1,4.8-2.6,6.7l-0.1,0.3h-5.6c-0.8,0-1.6,0.3-2.2,0.9
		c-0.6,0.6-0.9,1.4-0.9,2.2v1.4H73.3z M186.4,48.4h-4.9c-1.4,0-2.7,1-3,2.4c-0.8,3.5-2.2,6.8-4.1,9.9c-0.8,1.2-0.6,2.8,0.4,3.8
		l3.4,3.4l-6.1,6.1l-3.5-3.5c-0.9-0.9-2.3-1.2-3.5-0.6c-0.1,0-0.2,0.1-0.3,0.2c-3,1.9-6.4,3.3-9.9,4.1c-1.4,0.3-2.4,1.6-2.4,3V82
		h-8.6v-4.9c0-1.4-1-2.7-2.4-3c-3.5-0.8-6.8-2.2-9.9-4.1c-1.2-0.7-2.8-0.6-3.8,0.4l-3.5,3.5l-6.1-6.1l3.5-3.5c1-1,1.2-2.6,0.4-3.8
		c-1.9-3-3.3-6.4-4.1-9.9c-0.3-1.4-1.6-2.4-3-2.4h-4.9v-8.6h4.9c1.4,0,2.7-1,3-2.4v0c0.8-3.5,2.1-6.8,4.1-9.9
		c0.8-1.2,0.6-2.8-0.4-3.8l-3.5-3.5l6.1-6.1l3.4,3.4c1,1,2.6,1.2,3.8,0.4c3-1.9,6.3-3.3,9.8-4.1c1.4-0.3,2.4-1.6,2.4-3V6.1h8.6V11
		c0,1.4,1,2.7,2.4,3c3.5,0.8,6.9,2.2,9.9,4.1c0.1,0.1,0.2,0.1,0.3,0.2c1.2,0.6,2.6,0.4,3.5-0.6l3.4-3.4l6.1,6.1l-3.4,3.4
		c-0.1,0.1-0.3,0.3-0.4,0.5c-0.7,1-0.7,2.3,0,3.3c1.9,3,3.3,6.4,4.1,9.9c0.3,1.4,1.5,2.4,3,2.4h4.9V48.4z"/>
	<path class="st0" d="M148.5,23.2c-11.5,0-20.8,9.3-20.8,20.8s9.3,20.8,20.8,20.8s20.8-9.3,20.8-20.8S159.9,23.2,148.5,23.2z
		 M148.5,58.8c-8.1,0-14.7-6.6-14.7-14.7c0-8.1,6.6-14.7,14.7-14.7c8.1,0,14.7,6.6,14.7,14.7C163.2,52.2,156.6,58.8,148.5,58.8z"/>
	<path class="st0" d="M68.1,100.9h11.5c1.5,0,2.7-1.2,2.7-2.7V94l0.4-0.2c1.1-0.5,2.3-1.2,3.3-1.9l0.4-0.3l3.7,2.1
		c1.3,0.7,2.9,0.3,3.7-1l5.8-10c0.4-0.6,0.5-1.4,0.3-2c-0.2-0.7-0.6-1.3-1.3-1.6L94.9,77l0-0.5c0.1-0.6,0.1-1.3,0.1-1.9
		c0-0.6,0-1.3-0.1-1.9l0-0.5l3.7-2.1c0.6-0.4,1.1-0.9,1.3-1.6c0.2-0.7,0.1-1.4-0.3-2l-5.8-10c-0.7-1.3-2.4-1.7-3.7-1l-3.7,2.1
		L86,57.3c-1-0.7-2.2-1.4-3.3-1.9l-0.4-0.2v-4.3c0-1.5-1.2-2.7-2.7-2.7H68.1c-1.5,0-2.7,1.2-2.7,2.7v4.3L65,55.4
		c-1.1,0.5-2.3,1.2-3.3,1.9l-0.4,0.3l-3.7-2.1c-0.6-0.4-1.4-0.4-2-0.3c-0.7,0.2-1.3,0.6-1.6,1.3l-5.8,10c-0.4,0.6-0.5,1.3-0.3,2
		c0.2,0.7,0.6,1.3,1.3,1.6l3.7,2.1l0,0.5c-0.1,0.6-0.1,1.3-0.1,1.9s0,1.3,0.1,1.9l0,0.5l-3.7,2.1c-0.6,0.4-1.1,0.9-1.3,1.6
		c-0.2,0.7-0.1,1.4,0.3,2l5.8,10c0.4,0.6,0.9,1.1,1.6,1.3c0.7,0.2,1.4,0.1,2-0.3l3.7-2.1l0.4,0.3c1,0.7,2.2,1.4,3.3,1.9l0.4,0.2v4.3
		C65.4,99.7,66.6,100.9,68.1,100.9z M63.3,86.3c-0.9-0.8-2.1-0.9-3.1-0.3l-3,1.7l-3.1-5.3l3-1.7c1-0.6,1.5-1.7,1.3-2.9
		c-0.2-1.1-0.3-2.1-0.3-3.2c0-1.1,0.1-2.2,0.3-3.2c0.2-1.1-0.3-2.3-1.3-2.9l-3-1.7l3.1-5.3l3,1.7c1,0.6,2.3,0.5,3.1-0.3
		c1.6-1.5,3.5-2.5,5.6-3.2c1.1-0.4,1.8-1.4,1.8-2.6v-3.4h6.2V57c0,1.2,0.7,2.2,1.8,2.6c2.1,0.7,3.9,1.8,5.6,3.2
		c0.9,0.8,2.1,0.9,3.1,0.3l3-1.7l3.1,5.3l-3,1.7c-1,0.6-1.5,1.7-1.3,2.9c0.2,1.1,0.3,2.1,0.3,3.2c0,1.1-0.1,2.2-0.3,3.2
		c-0.2,1.1,0.3,2.3,1.3,2.9l3,1.7l-3.1,5.3l-3-1.7c-1-0.6-2.3-0.5-3.1,0.3c-1.6,1.5-3.5,2.6-5.6,3.2c-1.1,0.4-1.8,1.4-1.8,2.6v3.4
		h-6.2v-3.4c0-1.2-0.7-2.2-1.8-2.6C66.8,88.9,65,87.8,63.3,86.3z"/>
</g>
</svg>
