<?xml version="1.0" encoding="utf-8"?>
<!-- Generator: Adobe Illustrator 22.1.0, SVG Export Plug-In . SVG Version: 6.00 Build 0)  -->
<svg version="1.1" id="Слой_1" width="36" xmlns="http://www.w3.org/2000/svg" xmlns:xlink="http://www.w3.org/1999/xlink" x="0px" y="0px"
	 viewBox="0 0 200 160" style="enable-background:new 0 0 200 160;" xml:space="preserve">
<style type="text/css">
	.st0{fill:#000000;}
</style>
<g>
	<path class="st0" d="M116.6,56.9l-2.8-2.8c-0.4-0.4-0.9-0.4-1.3,0L97,69.8c-0.4,0.4-0.4,0.9,0,1.3l2.8,2.8c0.4,0.4,0.9,0.4,1.3,0
		l15.6-15.6C117,57.8,117,57.3,116.6,56.9z"/>
	<path class="st0" d="M45.5,104.3c0.4,0.4,0.9,0.4,1.3,0l15.6-15.6c0.4-0.4,0.4-0.9,0-1.3l-2.8-2.8c-0.4-0.4-0.9-0.4-1.3,0
		l-15.6,15.6c-0.4,0.4-0.4,0.9,0,1.3L45.5,104.3z"/>
	<path class="st0" d="M35.6,128.3l2.8,2.8c0.4,0.4,0.9,0.4,1.3,0l32.8-32.8c0.4-0.4,0.4-0.9,0-1.3l-2.8-2.8c-0.4-0.4-0.9-0.4-1.3,0
		L35.6,127C35.3,127.4,35.3,128,35.6,128.3z"/>
	<path class="st0" d="M147.9,121.4c0.4,0.4,0.9,0.4,1.3,0l13-13c0.4-0.4,0.4-0.9,0-1.3l-2.8-2.8c-0.4-0.4-0.9-0.4-1.3,0l-13,13
		c-0.4,0.4-0.4,0.9,0,1.3L147.9,121.4z"/>
	<path class="st0" d="M151,130.2l2.8,2.8c0.4,0.4,0.9,0.4,1.3,0l13-13c0.4-0.4,0.4-0.9,0-1.3l-2.8-2.8c-0.4-0.4-0.9-0.4-1.3,0
		l-13,13C150.6,129.2,150.6,129.8,151,130.2z"/>
	<path class="st0" d="M125.5,68.1c0.4,0.4,0.9,0.4,1.3,0l15.6-15.6c0.4-0.4,0.4-0.9,0-1.3l-2.8-2.8c-0.4-0.4-0.9-0.4-1.3,0
		l-15.6,15.6c-0.4,0.4-0.4,0.9,0,1.3L125.5,68.1z"/>
	<path class="st0" d="M108.4,85.3c0.4,0.4,0.9,0.4,1.3,0l10.1-10.1c0.4-0.4,0.4-0.9,0-1.3l-2.8-2.8c-0.4-0.4-0.9-0.4-1.3,0
		l-10.1,10.1c-0.4,0.4-0.4,0.9,0,1.3L108.4,85.3z"/>
	<path class="st0" d="M123.9,51.1L133.9,41c0.4-0.4,0.4-0.9,0-1.3l-2.8-2.8c-0.4-0.4-0.9-0.4-1.3,0l-10.1,10.1
		c-0.4,0.4-0.4,0.9,0,1.3l2.8,2.8C122.9,51.5,123.5,51.5,123.9,51.1z"/>
	<path class="st0" d="M29.6,120.2c0.4,0.4,0.9,0.4,1.3,0L41,110.2c0.4-0.4,0.4-0.9,0-1.3l-2.8-2.8c-0.4-0.4-0.9-0.4-1.3,0
		l-10.1,10.1c-0.4,0.4-0.4,0.9,0,1.3L29.6,120.2z"/>
	<path class="st0" d="M154.9,17.5h3.7c0.5,0,0.9-0.4,0.9-0.9v-3.7c0-0.5-0.4-0.9-0.9-0.9h-3.7c-0.5,0-0.9,0.4-0.9,0.9v3.7
		C154.1,17.1,154.5,17.5,154.9,17.5z"/>
	<path class="st0" d="M141.3,17.5h3.7c0.5,0,0.9-0.4,0.9-0.9v-3.7c0-0.5-0.4-0.9-0.9-0.9h-3.7c-0.5,0-0.9,0.4-0.9,0.9v3.7
		C140.5,17.1,140.8,17.5,141.3,17.5z"/>
	<path class="st0" d="M127.7,17.5h3.7c0.5,0,0.9-0.4,0.9-0.9v-3.7c0-0.5-0.4-0.9-0.9-0.9h-3.7c-0.5,0-0.9,0.4-0.9,0.9v3.7
		C126.8,17.1,127.2,17.5,127.7,17.5z"/>
	<path class="st0" d="M19.7,50c1.2,0,1.9,0,4,0c0.4,0,0.7-0.3,0.7-0.6V29.5h143.4v38.9c0,0.5,0.4,0.8,0.8,0.8h3.7
		c0.5,0,0.9-0.4,0.9-0.9V14.8c0-8.2-6.6-14.8-14.8-14.8H33.8C25.6,0,19,6.6,19,14.8v34.6C19,49.7,19.3,50,19.7,50z M158.4,5.3
		c5.2,0,9.4,4.2,9.4,9.4v9.4H64L54.8,5.3H158.4z M24.4,14.8c0-5.2,4.2-9.4,9.4-9.4h15.1l9.2,18.9H24.4V14.8z"/>
	<path class="st0" d="M172.3,77.4H141c-4.7,0-8.5,3.8-8.5,8.5v17.5H89.7V66c0-4.7-3.8-8.5-8.5-8.5H18.4c-4.7,0-8.5,3.8-8.5,8.5v85.5
		c0,4.7,3.8,8.5,8.5,8.5h62.7c3.8,0,7-2.5,8.1-5.9h43.6c1.1,3.4,4.3,5.9,8.1,5.9h31.3c4.7,0,8.5-3.8,8.5-8.5V85.9
		C180.9,81.2,177,77.4,172.3,77.4z M112.4,136.2l0.2,0.5h-6.5c-1.5,0-2.7,1.2-2.7,2.7c0,1.5,1.2,2.7,2.7,2.7h18.6
		c3.5,0,6.7,2.4,7.6,5.7v1H89.7v-21.9h21.9v4.9C111.6,133.4,111.9,134.9,112.4,136.2z M124.8,136.7c-7.9,0-7.9-3.4-7.9-4.9v-4.9
		h15.5v12.2C130.3,137.6,127.6,136.7,124.8,136.7z M132.4,108.7v12.8H89.7v-12.9L132.4,108.7z M84,151.5c0,1.6-1.3,2.8-2.8,2.8H18.4
		c-1.6,0-2.8-1.3-2.8-2.8v-5.7H84V151.5z M84,140.1H15.6V77.4H84V140.1z M84,71.7H15.6V66c0-1.6,1.3-2.8,2.8-2.8h62.7
		c1.6,0,2.8,1.3,2.8,2.8V71.7z M175.2,151.5c0,1.6-1.3,2.8-2.8,2.8H141c-1.6,0-2.8-1.3-2.8-2.8v-5.7h37V151.5z M175.2,140.1h-37
		V97.3h37V140.1z M175.2,91.6h-37v-5.7c0-1.6,1.3-2.8,2.8-2.8h31.3c1.6,0,2.8,1.3,2.8,2.8V91.6z"/>
</g>
</svg>
