<?xml version="1.0" encoding="utf-8"?>
<!-- Generator: Adobe Illustrator 22.1.0, SVG Export Plug-In . SVG Version: 6.00 Build 0)  -->
<svg version="1.1" id="Слой_1" width="36" xmlns="http://www.w3.org/2000/svg" xmlns:xlink="http://www.w3.org/1999/xlink" x="0px" y="0px"
	 viewBox="0 0 200 160" style="enable-background:new 0 0 200 160;" xml:space="preserve">
<style type="text/css">
	.st0{fill:#000000;}
</style>
<g>
	<path class="st0" d="M167.6,77.2h3.9c0.5,0,0.9,0.4,0.9,0.9V82c0,0.5-0.4,0.9-0.9,0.9h-3.9c-0.5,0-0.9-0.4-0.9-0.9v-3.9
		C166.7,77.6,167.1,77.2,167.6,77.2z"/>
	<path class="st0" d="M157.6,77.2h3.9c0.5,0,0.9,0.4,0.9,0.9V82c0,0.5-0.4,0.9-0.9,0.9h-3.9c-0.5,0-0.9-0.4-0.9-0.9v-3.9
		C156.7,77.6,157.1,77.2,157.6,77.2z"/>
	<path class="st0" d="M145.1,37.3l3.4,2c0.4,0.3,0.6,0.8,0.3,1.3l-2,3.4c-0.3,0.4-0.8,0.6-1.3,0.3l-3.4-2c-0.4-0.3-0.6-0.8-0.3-1.3
		l2-3.4C144.1,37.2,144.6,37.1,145.1,37.3z"/>
	<path class="st0" d="M63.7,114.9l3.4,2c0.4,0.3,0.6,0.8,0.3,1.3l-2,3.4c-0.3,0.4-0.8,0.6-1.3,0.3l-3.4-2c-0.4-0.3-0.6-0.8-0.3-1.3
		l2-3.4C62.8,114.7,63.3,114.6,63.7,114.9z"/>
	<path class="st0" d="M49.3,77.2h3.9c0.5,0,0.9,0.4,0.9,0.9V82c0,0.5-0.4,0.9-0.9,0.9h-3.9c-0.5,0-0.9-0.4-0.9-0.9v-3.9
		C48.4,77.6,48.8,77.2,49.3,77.2z"/>
	<path class="st0" d="M39.3,77.2h3.9c0.5,0,0.9,0.4,0.9,0.9V82c0,0.5-0.4,0.9-0.9,0.9h-3.9c-0.5,0-0.9-0.4-0.9-0.9v-3.9
		C38.4,77.6,38.8,77.2,39.3,77.2z"/>
	<path class="st0" d="M103.4,0h3.9c0.5,0,0.9,0.4,0.9,0.9V19c0,0.5-0.4,0.9-0.9,0.9h-3.9c-0.5,0-0.9-0.4-0.9-0.9V0.9
		C102.5,0.4,102.9,0,103.4,0z"/>
	<path class="st0" d="M103.4,140.1h3.9c0.5,0,0.9,0.4,0.9,0.9v18.1c0,0.5-0.4,0.9-0.9,0.9h-3.9c-0.5,0-0.9-0.4-0.9-0.9V141
		C102.5,140.5,102.9,140.1,103.4,140.1z"/>
	<path class="st0" d="M88.9,38.5c-5,1.8-9.4,4.8-13.3,8.4l-0.3,0.3c-0.4,0.4-0.4,0.9-0.1,1.3l3.1,3.3c0.1,0.2,0.4,0.2,0.5,0l0.1-0.1
		c4.1-3.9,9-7,14.5-8.6c28.2-8.5,53.9,14.3,50.5,41.8c-2.1,17.3-16.1,31.4-33.4,33.6c-27.3,3.5-50-21.6-42.4-49.4
		c1.4-5.2,4.1-9.9,7.5-14v0c0.1-0.2,0.1-0.4,0-0.5l-3.8-3.2c-0.2-0.1-0.4-0.1-0.5,0v0c-4,4.7-7,10.2-8.7,16.1
		c-8.6,31.5,16.7,60,47.6,56.8c20.8-2.2,37.5-19,39.6-39.8C152.9,52.5,121.9,26.4,88.9,38.5z"/>
	<path class="st0" d="M105.4,48.8c-17.2,0-31.2,14-31.2,31.2c0,17.2,14,31.2,31.2,31.2c17.2,0,31.2-14,31.2-31.2
		C136.6,62.8,122.6,48.8,105.4,48.8z M112.3,86c0-1.9,1.6-3.5,3.5-3.5c1.9,0,3.5,1.6,3.5,3.5c0,1.9-1.6,3.5-3.5,3.5
		C113.8,89.5,112.3,87.9,112.3,86z M104.9,100.6l6.4-6.4c1.3,0.7,2.8,1.1,4.4,1.1c5.1,0,9.2-4.1,9.2-9.2s-4.1-9.2-9.2-9.2
		c-5.1,0-9.2,4.1-9.2,9.2c0,1.4,0.3,2.7,0.9,3.9l-4.9,4.9H84.7c-3.1-4.3-4.8-9.5-4.8-14.8c0-14,11.4-25.5,25.5-25.5
		c5.5,0,10.6,1.7,15,4.9h-14.5l-6.4,6.4c-1.3-0.7-2.8-1.1-4.4-1.1c-5.1,0-9.2,4.1-9.2,9.2s4.1,9.2,9.2,9.2c5.1,0,9.2-4.1,9.2-9.2
		c0-1.4-0.3-2.7-0.9-3.9l4.9-4.9h17.9c3.1,4.3,4.8,9.5,4.8,14.8c0,14-11.4,25.5-25.5,25.5c-5.5,0-10.6-1.7-15-4.9H104.9z M98.5,74
		c0,1.9-1.6,3.5-3.5,3.5c-1.9,0-3.5-1.6-3.5-3.5c0-1.9,1.6-3.5,3.5-3.5C97,70.6,98.5,72.1,98.5,74z"/>
	<path class="st0" d="M39.2,14.7v31.4c0,0.5,0.4,0.9,0.9,0.9H44c0.5,0,0.9-0.4,0.9-0.9V19.6h26.6c0.5,0,0.9-0.4,0.9-0.9v-3.9
		c0-0.5-0.4-0.9-0.9-0.9H40.1C39.6,13.8,39.2,14.2,39.2,14.7z"/>
	<path class="st0" d="M44.9,140.5v-26.6c0-0.5-0.4-0.9-0.9-0.9h-3.9c-0.5,0-0.9,0.4-0.9,0.9v31.5c0,0.5,0.4,0.9,0.9,0.9h31.4
		c0.5,0,0.9-0.4,0.9-0.9v-3.9c0-0.5-0.4-0.9-0.9-0.9H44.9z"/>
	<path class="st0" d="M138.4,14.7v3.9c0,0.5,0.4,0.9,0.9,0.9h26.6v26.6c0,0.5,0.4,0.9,0.9,0.9h3.9c0.5,0,0.9-0.4,0.9-0.9V13.8h-32.3
		C138.8,13.8,138.4,14.2,138.4,14.7z"/>
	<path class="st0" d="M165.9,113.9v26.6h-26.6c-0.5,0-0.9,0.4-0.9,0.9v3.9c0,0.5,0.4,0.9,0.9,0.9h31.4c0.5,0,0.9-0.4,0.9-0.9v-31.5
		c0-0.5-0.4-0.9-0.9-0.9h-3.9C166.3,113,165.9,113.4,165.9,113.9z"/>
	<g>
		<path class="st0" d="M27,80c3.1-4,11.1-13.9,22.4-23.7c13.2-11.4,33.5-25.1,56-25.1c10.3,0,21.1,2.8,32,8.5l0.3,0.2l2.6-5.1
			l-0.3-0.2c-11.7-6-23.4-9.1-34.6-9.1c-10.8,0-21.9,2.8-33.2,8.4C63.3,38.2,54.3,44.4,45.5,52C30.5,65.1,21.4,77.8,21,78.4L19.9,80
			l1.2,1.7l0.1,0.1c0.1,0.2,0.5,0.7,1.1,1.4c3.5,4.6,16.2,20.4,33.9,33.2l0.3,0.2l3.4-4.7l-0.3-0.2C42.6,99.7,30.5,84.7,27,80z"/>
		<path class="st0" d="M190.7,79.8c-0.1-0.2-2.6-3.7-3.3-4.5c-4.6-5.9-17.2-20.9-34.3-32.8l-0.3-0.2l-3.3,4.7l0.3,0.2
			c16.4,11.5,28.6,25.9,33.1,31.6c0.3,0.4,0.6,0.8,0.9,1.1c-3.1,4-11.1,13.9-22.4,23.7c-13.2,11.4-33.6,25.1-56,25.1
			c-10.8,0-22.1-3.1-33.6-9.3l-0.3-0.2l-2.7,5.1l0.3,0.2c12.3,6.6,24.5,10,36.3,10c10.8,0,21.9-2.8,33.2-8.4
			c8.9-4.4,17.9-10.5,26.7-18.2c14.8-12.9,24.1-25.8,24.5-26.4l1.1-1.7L190.7,79.8z"/>
	</g>
</g>
</svg>
