<?xml version="1.0" encoding="utf-8"?>
<!-- Generator: Adobe Illustrator 22.1.0, SVG Export Plug-In . SVG Version: 6.00 Build 0)  -->
<svg version="1.1" id="Слой_1" width="36" xmlns="http://www.w3.org/2000/svg" xmlns:xlink="http://www.w3.org/1999/xlink" x="0px" y="0px"
	 viewBox="0 0 200 160" style="enable-background:new 0 0 200 160;" xml:space="preserve">
<style type="text/css">
	.st0{fill:#000000;}
</style>
<g>
	<path class="st0" d="M34.3,10.5h3.9c0.5,0,0.9,0.4,0.9,0.9v3.9c0,0.5-0.4,0.9-0.9,0.9h-3.9c-0.5,0-0.9-0.4-0.9-0.9v-3.9
		C33.4,10.9,33.8,10.5,34.3,10.5z"/>
	<path class="st0" d="M34.3,74.5h24.9c0.5,0,0.9,0.4,0.9,0.9v3.9c0,0.5-0.4,0.9-0.9,0.9H34.3c-0.5,0-0.9-0.4-0.9-0.9v-3.9
		C33.4,74.9,33.8,74.5,34.3,74.5z"/>
	<path class="st0" d="M34.3,95.8h24.9c0.5,0,0.9,0.4,0.9,0.9v3.9c0,0.5-0.4,0.9-0.9,0.9H34.3c-0.5,0-0.9-0.4-0.9-0.9v-3.9
		C33.4,96.2,33.8,95.8,34.3,95.8z"/>
	<path class="st0" d="M34.3,117.2h24.9c0.5,0,0.9,0.4,0.9,0.9v3.9c0,0.5-0.4,0.9-0.9,0.9H34.3c-0.5,0-0.9-0.4-0.9-0.9v-3.9
		C33.4,117.6,33.8,117.2,34.3,117.2z"/>
	<path class="st0" d="M34.3,106.5h64.9c0.5,0,0.9,0.4,0.9,0.9v3.9c0,0.5-0.4,0.9-0.9,0.9H34.3c-0.5,0-0.9-0.4-0.9-0.9v-3.9
		C33.4,106.9,33.8,106.5,34.3,106.5z"/>
	<path class="st0" d="M34.3,85.2h51.5c0.5,0,0.9,0.4,0.9,0.9v3.9c0,0.5-0.4,0.9-0.9,0.9H34.3c-0.5,0-0.9-0.4-0.9-0.9v-3.9
		C33.4,85.6,33.8,85.2,34.3,85.2z"/>
	<path class="st0" d="M34.3,127.8h88.9c0.5,0,0.9,0.4,0.9,0.9v3.9c0,0.5-0.4,0.9-0.9,0.9H34.3c-0.5,0-0.9-0.4-0.9-0.9v-3.9
		C33.4,128.2,33.8,127.8,34.3,127.8z"/>
	<path class="st0" d="M44.8,10.5h3.9c0.5,0,0.9,0.4,0.9,0.9v3.9c0,0.5-0.4,0.9-0.9,0.9h-3.9c-0.5,0-0.9-0.4-0.9-0.9v-3.9
		C43.9,10.9,44.3,10.5,44.8,10.5z"/>
	<path class="st0" d="M55.3,10.5h3.9c0.5,0,0.9,0.4,0.9,0.9v3.9c0,0.5-0.4,0.9-0.9,0.9h-3.9c-0.5,0-0.9-0.4-0.9-0.9v-3.9
		C54.4,10.9,54.8,10.5,55.3,10.5z"/>
	<path class="st0" d="M30.7,144h125.9l5.5,11.5c1.9,4,6.7,5.6,10.7,3.7l0,0c4-1.9,5.6-6.7,3.7-10.7l-2.2-4.5h0.3c4.4,0,8-3.6,8-8V8
		c0-4.4-3.6-8-8-8h-144c-4.4,0-8,3.6-8,8v128C22.7,140.4,26.3,144,30.7,144z M171.9,152.9c-0.5,1.4-2,2.1-3.4,1.7
		c-0.7-0.2-1.2-0.7-1.5-1.3l-11.4-23.7l4.8-2.3l11.4,23.7C172.1,151.5,172.2,152.2,171.9,152.9z M151,119.9l4.8-2.3l2.3,4.8
		l-4.8,2.3L151,119.9z M174.7,138.7h-2.9l-7.6-15.8c0-0.2-0.1-0.3-0.2-0.5c-0.1-0.2-0.2-0.3-0.3-0.4l-4.4-9.1
		c-0.6-1.3-2.2-1.9-3.6-1.2c0,0,0,0,0,0l-2.4,1.2l-2.2-4.4c18.5-9.1,26.1-31.5,16.9-50c-9.1-18.5-31.5-26.1-50-16.9
		c-1.7,0.8-3.3,1.8-4.8,2.9v-9.6c0-1.5-1.2-2.7-2.7-2.7H36.1c-1.5,0-2.7,1.2-2.7,2.7v32c0,1.5,1.2,2.7,2.7,2.7h61.7
		c-3,20.4,11,39.4,31.4,42.4c5.7,0.9,11.6,0.4,17.1-1.4l2.3,4.7l-2.4,1.2c-1.3,0.6-1.9,2.2-1.2,3.6l9.1,18.9H30.7
		c-1.5,0-2.7-1.2-2.7-2.7V26.7h149.3V136C177.4,137.5,176.2,138.7,174.7,138.7z M99,64H38.7v-5.3h45.3c1.5,0,1.4-1.2,1.4-2.7
		c0-1.5,0-2.6-1.4-2.6H38.7V48h18.7c1.5,0,1.4-1.3,1.4-2.8s0.1-2.6-1.4-2.6H38.7v-5.3h69.3v11.4C103.9,53,100.8,58.3,99,64z
		 M134.7,42.9c17.7,0,32,14.3,32,32s-14.3,32-32,32s-32-14.3-32-32C102.8,57.2,117.1,42.9,134.7,42.9z M30.7,5.3h144
		c1.5,0,2.7,1.2,2.7,2.7v13.3H28.1V8C28.1,6.5,29.3,5.3,30.7,5.3z"/>
	<path class="st0" d="M134.7,101.5c14.7,0,26.7-11.9,26.7-26.7s-11.9-26.7-26.7-26.7c-14.7,0-26.7,11.9-26.7,26.7
		C108.1,89.6,120,101.5,134.7,101.5z M134.7,53.5c11.8,0,21.3,9.6,21.3,21.3s-9.6,21.3-21.3,21.3s-21.3-9.6-21.3-21.3
		C113.4,63.1,123,53.5,134.7,53.5L134.7,53.5z"/>
</g>
</svg>
