<?xml version="1.0" encoding="utf-8"?>
<!-- Generator: Adobe Illustrator 22.1.0, SVG Export Plug-In . SVG Version: 6.00 Build 0)  -->
<svg version="1.1" id="Слой_1" xmlns="http://www.w3.org/2000/svg" xmlns:xlink="http://www.w3.org/1999/xlink" x="0px" y="0px"
	 viewBox="0 0 200 160" style="enable-background:new 0 0 200 160;" xml:space="preserve">
<style type="text/css">
	.st0{fill:#000000;}
</style>
<g>
	<path class="st0" d="M185.7,56c0-30.9-25-56-55.9-56c-19.5,0-37.5,10.1-47.7,26.7H33.7c-4.4,0-8,3.6-8,8V120c0,4.4,3.6,8,8,8h47.3
		l-4,16h-3.3c-4.4,0-8,3.6-8,8v5.3c0,1.5,1.2,2.7,2.7,2.7h53.3c1.5,0,2.7-1.2,2.7-2.7V152c0-4.4-3.6-8-8-8h-3.3l-4-16h47.3
		c4.4,0,8-3.6,8-8V99.9C177.8,89.3,185.7,73.1,185.7,56L185.7,56z M33.7,32h45.5c-2.4,5.1-4,10.5-4.8,16H31V34.7
		C31,33.2,32.2,32,33.7,32z M119,152v2.7H71V152c0-1.5,1.2-2.7,2.7-2.7h42.7C117.8,149.3,119,150.5,119,152z M107.6,144H82.4l4-16
		h17.2L107.6,144z M159,120c0,1.5-1.2,2.7-2.7,2.7H33.7c-1.5,0-2.7-1.2-2.7-2.7V53.3h42.8c0,0.9-0.1,1.8-0.1,2.7
		c-0.1,30.9,24.9,55.9,55.8,56c10.4,0,20.7-2.9,29.6-8.4V120z M129.7,106.7C101.7,106.7,79,84,79,56s22.7-50.7,50.7-50.7
		S180.3,28,180.3,56C180.3,84,157.6,106.6,129.7,106.7z"/>
	<path class="st0" d="M129.7,10.7c-25,0-45.3,20.3-45.3,45.3s20.3,45.3,45.3,45.3S175,81,175,56C175,31,154.7,10.7,129.7,10.7z
		 M129.7,96c-22.1,0-40-17.9-40-40s17.9-40,40-40s40,17.9,40,40C169.6,78.1,151.7,96,129.7,96z"/>
	<path class="st0" d="M127.9,21.3h3.5c0.5,0,0.9,0.4,0.9,0.9v3.5c0,0.5-0.4,0.9-0.9,0.9h-3.5c-0.5,0-0.9-0.4-0.9-0.9v-3.5
		C127,21.7,127.4,21.3,127.9,21.3z"/>
	<path class="st0" d="M110.8,26.9l3.1-1.8c0.4-0.2,1-0.1,1.2,0.3l1.8,3.1c0.2,0.4,0.1,1-0.3,1.2l-3.1,1.8c-0.4,0.2-1,0.1-1.2-0.3
		l-1.8-3.1C110.2,27.6,110.4,27.1,110.8,26.9z"/>
	<path class="st0" d="M98.8,40.2l1.8-3.1c0.2-0.4,0.8-0.6,1.2-0.3l3.1,1.8c0.4,0.2,0.6,0.8,0.3,1.2l-1.8,3.1
		c-0.2,0.4-0.8,0.6-1.2,0.3l-3.1-1.8C98.7,41.2,98.5,40.6,98.8,40.2z"/>
	<path class="st0" d="M95.9,53.3h3.5c0.5,0,0.9,0.4,0.9,0.9v3.5c0,0.5-0.4,0.9-0.9,0.9h-3.5c-0.5,0-0.9-0.4-0.9-0.9v-3.5
		C95,53.7,95.4,53.3,95.9,53.3z"/>
	<path class="st0" d="M99.1,70.6l3.1-1.8c0.4-0.2,1-0.1,1.2,0.3l1.8,3.1c0.2,0.4,0.1,1-0.3,1.2l-3.1,1.8c-0.4,0.2-1,0.1-1.2-0.3
		l-1.8-3.1C98.5,71.4,98.7,70.8,99.1,70.6z"/>
	<path class="st0" d="M110.5,83.9l1.8-3.1c0.2-0.4,0.8-0.6,1.2-0.3l3.1,1.8c0.4,0.2,0.6,0.8,0.3,1.2l-1.8,3.1
		c-0.2,0.4-0.8,0.6-1.2,0.3l-3.1-1.8C110.4,84.9,110.2,84.4,110.5,83.9z"/>
	<path class="st0" d="M127.9,85.3h3.5c0.5,0,0.9,0.4,0.9,0.9v3.5c0,0.5-0.4,0.9-0.9,0.9h-3.5c-0.5,0-0.9-0.4-0.9-0.9v-3.5
		C127,85.7,127.4,85.3,127.9,85.3z"/>
	<path class="st0" d="M142.8,82.3l3.1-1.8c0.4-0.2,1-0.1,1.2,0.3l1.8,3.1c0.2,0.4,0.1,1-0.3,1.2l-3.1,1.8c-0.4,0.2-1,0.1-1.2-0.3
		l-1.8-3.1C142.2,83.1,142.4,82.5,142.8,82.3z"/>
	<path class="st0" d="M154.2,72.2l1.8-3.1c0.2-0.4,0.8-0.6,1.2-0.3l3.1,1.8c0.4,0.2,0.6,0.8,0.3,1.2l-1.8,3.1
		c-0.2,0.4-0.8,0.6-1.2,0.3l-3.1-1.8C154.1,73.2,153.9,72.6,154.2,72.2z"/>
	<path class="st0" d="M159.9,53.3h3.5c0.5,0,0.9,0.4,0.9,0.9v3.5c0,0.5-0.4,0.9-0.9,0.9h-3.5c-0.5,0-0.9-0.4-0.9-0.9v-3.5
		C159,53.7,159.4,53.3,159.9,53.3z"/>
	<path class="st0" d="M154.5,38.6l3.1-1.8c0.4-0.2,1-0.1,1.2,0.3l1.8,3.1c0.2,0.4,0.1,1-0.3,1.2l-3.1,1.8c-0.4,0.2-1,0.1-1.2-0.3
		l-1.8-3.1C153.9,39.4,154.1,38.8,154.5,38.6z"/>
	<path class="st0" d="M142.5,28.5l1.8-3.1c0.2-0.4,0.8-0.6,1.2-0.3l3.1,1.8c0.4,0.2,0.6,0.8,0.3,1.2l-1.8,3.1
		c-0.2,0.4-0.8,0.6-1.2,0.3l-3.1-1.8C142.4,29.5,142.2,28.9,142.5,28.5z"/>
	<path class="st0" d="M145.7,57.8v-3.5c0-0.5-0.4-0.9-0.9-0.9h-7.6c-0.8-2.3-2.6-4-4.8-4.8V35.6c0-0.5-0.4-0.9-0.9-0.9h-3.5
		c-0.5,0-0.9,0.4-0.9,0.9v12.9c-4.2,1.5-6.3,6-4.9,10.2c1.5,4.2,6,6.3,10.2,4.9c2.3-0.8,4.1-2.6,4.9-4.9h7.6
		C145.3,58.7,145.7,58.3,145.7,57.8z M129.7,58.7c-1.5,0-2.7-1.2-2.7-2.7s1.2-2.7,2.7-2.7s2.7,1.2,2.7,2.7S131.1,58.7,129.7,58.7z"
		/>
	<path class="st0" d="M49.7,58.7c-7.4,0-13.3,6-13.3,13.3c0,7.4,6,13.3,13.3,13.3S63,79.4,63,72C63,64.6,57,58.7,49.7,58.7z
		 M49.7,80c-4.4,0-8-3.6-8-8c0-4.4,3.6-8,8-8s8,3.6,8,8C57.7,76.4,54.1,80,49.7,80L49.7,80z"/>
	<path class="st0" d="M60.3,90.7H39c-1.5,0-2.7,1.2-2.7,2.7v21.3c0,1.5,1.2,2.7,2.7,2.7h21.3c1.5,0,2.7-1.2,2.7-2.7V93.3
		C63,91.9,61.8,90.7,60.3,90.7z M57.7,112h-16V96h16V112z"/>
	<path class="st0" d="M69.2,96h14.2c0.5,0,0.9,0.4,0.9,0.9v3.5c0,0.5-0.4,0.9-0.9,0.9H69.2c-0.5,0-0.9-0.4-0.9-0.9v-3.5
		C68.3,96.4,68.7,96,69.2,96z"/>
	<path class="st0" d="M69.2,106.7h14.2c0.5,0,0.9,0.4,0.9,0.9v3.5c0,0.5-0.4,0.9-0.9,0.9H69.2c-0.5,0-0.9-0.4-0.9-0.9v-3.5
		C68.3,107.1,68.7,106.7,69.2,106.7z"/>
</g>
</svg>
