<?xml version="1.0" encoding="utf-8"?>
<!-- Generator: Adobe Illustrator 22.1.0, SVG Export Plug-In . SVG Version: 6.00 Build 0)  -->
<svg version="1.1" id="Слой_1" xmlns="http://www.w3.org/2000/svg" xmlns:xlink="http://www.w3.org/1999/xlink" x="0px" y="0px"
	 viewBox="0 0 200 160" style="enable-background:new 0 0 200 160;" xml:space="preserve">
<style type="text/css">
	.st0{fill:#000000;}
</style>
<g>
	<path class="st0" d="M164.3,39.8h3.9c0.5,0,0.9,0.4,0.9,0.9v3.9c0,0.5-0.4,0.9-0.9,0.9h-3.9c-0.5,0-0.9-0.4-0.9-0.9v-3.9
		C163.4,40.2,163.8,39.8,164.3,39.8z"/>
	<path class="st0" d="M111,137.7h3.9c0.5,0,0.9,0.4,0.9,0.9v3.9c0,0.5-0.4,0.9-0.9,0.9H111c-0.5,0-0.9-0.4-0.9-0.9v-3.9
		C110.1,138.1,110.5,137.7,111,137.7z"/>
	<path class="st0" d="M23,148.4c0,6.4,5.2,11.6,11.6,11.6h136.9c6.4,0,11.6-5.2,11.6-11.6V29.1c0-8.5-6.9-15.3-15.3-15.3h-15.3V9.1
		c0-5-4.1-9.1-9.1-9.1s-9.1,4.1-9.1,9.1v4.8H80.8V9.1c0-5-4.1-9.1-9.1-9.1c-5,0-9,4.1-9,9.1v4.7l-13.7,0c-8.5,0-15.3,6.9-15.3,15.3
		v55.6c0,1.5,1.2,1.6,2.8,1.6c1.5,0,2.8,0,2.8-1.6V45.4h114.7c0.4,0,0.7-0.1,0.8-0.2c0.3-0.3,0.3-1.1,0.3-2c0-0.2,0-0.4,0-0.6
		c0-0.2,0-0.4,0-0.6c0-0.9,0-1.6-0.3-1.9c-0.2-0.2-0.4-0.2-0.8-0.2H39.2V29.1c0-5.4,4.4-9.8,9.8-9.8l13.7,0v4.3c0,5,4.1,9.1,9,9.1
		c5,0,9.1-4.1,9.1-9.1v-4.3h53.5v4.3c0,5,4.1,9.1,9.1,9.1s9.1-4.1,9.1-9.1v-4.3h15.3c5.4,0,9.8,4.4,9.8,9.8v119.3c0,3.3-2.7,6-6,6
		s-6-2.7-6-6v-8.1c0-1.5-1.2-2.8-2.8-2.8h-37.6c-1.5,0-1.8,1.2-1.8,2.7s0.2,2.8,1.8,2.8h34.8v5.3c0,1.9,0.5,3.8,1.4,5.5l0.3,0.5
		h-127c-3.3,0-6-2.7-6-6v-5.3H100c1.5,0,1.6-1.3,1.6-2.9c0-1.5,0-2.7-1.6-2.7H66.9l0.7-0.6c5.6-4.8,8.8-11.8,8.8-19.2
		c0-14-11.4-25.4-25.4-25.4s-25.4,11.4-25.4,25.4c0,7.4,3.2,14.4,8.8,19.2l0.7,0.6h-9.5c-1.5,0-2.8,1.2-2.8,2.8V148.4z M75.3,23.6
		c0,1.9-1.6,3.5-3.5,3.5c-1.9,0-3.5-1.6-3.5-3.5V9.1c0-1.9,1.6-3.5,3.5-3.5c1.9,0,3.5,1.6,3.5,3.5V23.6z M146.8,23.6
		c0,1.9-1.6,3.5-3.5,3.5c-1.9,0-3.5-1.6-3.5-3.5V9.1c0-1.9,1.6-3.5,3.5-3.5c1.9,0,3.5,1.6,3.5,3.5V23.6z M31.3,117.7
		c0-10.9,8.9-19.8,19.8-19.8s19.8,8.9,19.8,19.8s-8.9,19.8-19.8,19.8S31.3,128.6,31.3,117.7z"/>
	<path class="st0" d="M93.7,95.4c-6.4,0-11.6,5.2-11.6,11.6c0,6.4,5.2,11.6,11.6,11.6s11.6-5.2,11.6-11.6
		C105.3,100.6,100.1,95.4,93.7,95.4z M93.7,113c-3.3,0-6-2.7-6-6c0-3.3,2.7-6,6-6s6,2.7,6,6C99.7,110.3,97,113,93.7,113z"/>
	<path class="st0" d="M123,95.4c-6.4,0-11.6,5.2-11.6,11.6c0,6.4,5.2,11.6,11.6,11.6s11.6-5.2,11.6-11.6
		C134.6,100.6,129.4,95.4,123,95.4z M123,113c-3.3,0-6-2.7-6-6c0-3.3,2.7-6,6-6c3.3,0,6,2.7,6,6C129,110.3,126.3,113,123,113z"/>
	<path class="st0" d="M152.3,95.4c-6.4,0-11.6,5.2-11.6,11.6c0,6.4,5.2,11.6,11.6,11.6c6.4,0,11.6-5.2,11.6-11.6
		C163.9,100.6,158.7,95.4,152.3,95.4z M152.3,113c-3.3,0-6-2.7-6-6c0-3.3,2.7-6,6-6c3.3,0,6,2.7,6,6
		C158.3,110.3,155.6,113,152.3,113z"/>
	<path class="st0" d="M64.4,62.8c-6.4,0-11.6,5.2-11.6,11.6S58,85.9,64.4,85.9c6.4,0,11.6-5.2,11.6-11.6S70.8,62.8,64.4,62.8z
		 M64.4,80.4c-3.3,0-6-2.7-6-6s2.7-6,6-6c3.3,0,6,2.7,6,6S67.7,80.4,64.4,80.4z"/>
	<path class="st0" d="M123,62.8c-6.4,0-11.6,5.2-11.6,11.6s5.2,11.6,11.6,11.6s11.6-5.2,11.6-11.6S129.4,62.8,123,62.8z M123,80.4
		c-3.3,0-6-2.7-6-6s2.7-6,6-6c3.3,0,6,2.7,6,6S126.3,80.4,123,80.4z"/>
	<path class="st0" d="M152.3,62.8c-6.4,0-11.6,5.2-11.6,11.6s5.2,11.6,11.6,11.6c6.4,0,11.6-5.2,11.6-11.6S158.7,62.8,152.3,62.8z
		 M152.3,80.4c-3.3,0-6-2.7-6-6s2.7-6,6-6c3.3,0,6,2.7,6,6S155.6,80.4,152.3,80.4z"/>
	<path class="st0" d="M93.7,62.8c-6.4,0-11.6,5.2-11.6,11.6s5.2,11.6,11.6,11.6s11.6-5.2,11.6-11.6S100.1,62.8,93.7,62.8z
		 M93.7,80.4c-3.3,0-6-2.7-6-6s2.7-6,6-6s6,2.7,6,6S97,80.4,93.7,80.4z"/>
	<g>
		<g>
			<path class="st0" d="M62.1,110.3c-1.2-1.2-2.6-2-3.9-0.7l-10.6,10.6l-4-4.2c-1.2-1.2-2.3-0.3-3.5,0.9c-1.2,1.2-2.2,2.3-0.9,3.5
				l6.3,6.4c0.6,0.6,1.4,0.9,2.2,0.9c0.8,0,1.6-0.3,2.2-0.9L62.7,114C63.9,112.8,63.3,111.6,62.1,110.3z"/>
		</g>
	</g>
</g>
</svg>
