<?xml version="1.0" encoding="utf-8"?>
<!-- Generator: Adobe Illustrator 22.1.0, SVG Export Plug-In . SVG Version: 6.00 Build 0)  -->
<svg version="1.1" id="Слой_1" xmlns="http://www.w3.org/2000/svg" xmlns:xlink="http://www.w3.org/1999/xlink" x="0px" y="0px"
	 viewBox="0 0 200 160" style="enable-background:new 0 0 200 160;" xml:space="preserve">
<style type="text/css">
	.st0{fill:#000000;}
</style>
<g>
	<path class="st0" d="M70.3,114.3h3.9c0.5,0,0.9,0.4,0.9,0.9v3.9c0,0.5-0.4,0.9-0.9,0.9h-3.9c-0.5,0-0.9-0.4-0.9-0.9v-3.9
		C69.4,114.7,69.8,114.3,70.3,114.3z"/>
	<path class="st0" d="M160.1,74.6h3.9c0.5,0,0.9,0.4,0.9,0.9v3.9c0,0.5-0.4,0.9-0.9,0.9h-3.9c-0.5,0-0.9-0.4-0.9-0.9v-3.9
		C159.2,75,159.6,74.6,160.1,74.6z"/>
	<path class="st0" d="M86.9,77.7h3.9c0.5,0,0.9,0.4,0.9,0.9v3.9c0,0.5-0.4,0.9-0.9,0.9h-3.9c-0.5,0-0.9-0.4-0.9-0.9v-3.9
		C86,78.1,86.4,77.7,86.9,77.7z"/>
	<path class="st0" d="M160.1,41.5h3.9c0.5,0,0.9,0.4,0.9,0.8v24.6c0,0.5-0.4,0.8-0.9,0.8h-3.9c-0.5,0-0.9-0.4-0.9-0.8V42.4
		C159.2,41.9,159.6,41.5,160.1,41.5z"/>
	<g>
		<path class="st0" d="M183.2,125.9V3c0-1.7-1.3-3-3-3H32.9c-1.7,0-3,1.3-3,3v74.6L18.1,95.7c-4.1,6.3-6.3,13.7-6.3,21.3v40
			c0,1.7,1.3,3,3,3h165.4h2.1c0.5,0,0.8-0.4,0.8-1V155c0-0.5-0.4-1-0.8-1h-2.1h-2.7l2.6-8.4C182.2,139.2,183.2,132.6,183.2,125.9z
			 M42.8,154v-14.3c0-5.7,2.8-11.2,7.4-14.6l7-5.1c1.7-1.2,2.8-3.1,3.1-5.2c0.3-2.1-0.3-4.2-1.6-5.9c-2.1-2.7-5.7-3.6-8.9-2.4
			l-18,7.1c-1.5,0.6-2.3,2.3-1.7,3.9c0.3,0.7,0.9,1.3,1.6,1.7c0.7,0.3,1.5,0.3,2.3,0l18-7.1c0.7-0.3,1.5-0.1,2,0.5
			c0.4,0.5,0.4,1.1,0.4,1.3c0,0.3-0.2,0.8-0.7,1.2l-7,5.1c-6.2,4.5-9.9,11.7-9.9,19.4V154h-19v-37c0-6.4,1.9-12.6,5.4-18L30,88.6
			v12.6v1.9c0,0.6,0.4,1,1,1h1.9c0.1,0,0.1,0,0.2,0c0.1,0,0.1,0,0.2,0H35c0.5,0,1-0.5,1-1v-1.9V6h141.3v83.2l-0.5-0.2
			c-1-0.3-2-0.5-3.1-0.5c-2.3,0-4.6,0.9-6.3,2.4l-0.2,0.2l-0.2-0.2c-1.7-1.5-4-2.4-6.3-2.4c-2.3,0-4.6,0.8-6.3,2.4l-0.2,0.2
			l-0.2-0.2c-2.5-2.2-6.2-3-9.4-1.9l-0.5,0.2V66c0-5.3-4.3-9.5-9.5-9.5s-9.5,4.3-9.5,9.5v38.9l-0.1,0.1l-6.3,9.3H82.8
			c-0.5,0-0.8,0.4-0.8,0.9v3.9c0,0.5,0.4,0.9,0.8,0.9h31.8l-0.2,0.4l-0.3,0.5c-2.1,4.4-2.1,9.6-0.1,14l9,19.2H42.8z M129.7,154
			l-0.1-0.2l-10.1-21.5c-1.5-3.3-1.2-7.2,0.8-10.2l4.5-6.6v4.4c0,1.7,1.3,3,3,3c1.7,0,3-1.3,3-3V66c0-2,1.6-3.6,3.6-3.6
			c2,0,3.6,1.6,3.6,3.6v44.9c0,1.7,1.3,3,3,3c1.7,0,3-1.3,3-3V98.1c0-2,1.6-3.6,3.6-3.6c2,0,3.6,1.6,3.6,3.6v12.8c0,1.7,1.3,3,3,3
			c1.7,0,3-1.3,3-3V98.1c0-2,1.6-3.6,3.6-3.6c2,0,3.6,1.6,3.6,3.6v12.8c0,1.7,1.3,3,3,3c1.7,0,3-1.3,3-3V98c0-2,1.6-3.6,3.6-3.6
			c2,0,3.6,1.6,3.6,3.6v27.9c0,6.1-0.9,12.1-2.8,18l-3.2,10.2H129.7z"/>
		<path class="st0" d="M116.6,80.5c0-15.4-12.5-27.9-27.9-27.9S60.9,65.2,60.9,80.5c0,15.4,12.5,27.9,27.9,27.9
			S116.6,95.9,116.6,80.5z M66.9,80.5c0-12.1,9.8-21.9,21.9-21.9s21.9,9.8,21.9,21.9s-9.8,21.9-21.9,21.9S66.9,92.6,66.9,80.5z"/>
		<path class="st0" d="M106.9,31.6c5.4,0,9.7-4.4,9.7-9.7c0-5.4-4.4-9.7-9.7-9.7s-9.7,4.4-9.7,9.7C97.2,27.2,101.6,31.6,106.9,31.6z
			 M106.9,18.1c2.1,0,3.7,1.7,3.7,3.7s-1.7,3.7-3.7,3.7c-2.1,0-3.7-1.7-3.7-3.7S104.9,18.1,106.9,18.1z"/>
		<path class="st0" d="M131.1,31.6c5.4,0,9.7-4.4,9.7-9.7c0-5.4-4.4-9.7-9.7-9.7s-9.7,4.4-9.7,9.7C121.4,27.2,125.8,31.6,131.1,31.6
			z M131.1,18.1c2.1,0,3.7,1.7,3.7,3.7s-1.7,3.7-3.7,3.7c-2.1,0-3.7-1.7-3.7-3.7S129.1,18.1,131.1,18.1z"/>
		<path class="st0" d="M155.4,31.6c5.4,0,9.7-4.4,9.7-9.7c0-5.4-4.4-9.7-9.7-9.7c-5.4,0-9.7,4.4-9.7,9.7
			C145.6,27.2,150,31.6,155.4,31.6z M155.4,18.1c2.1,0,3.7,1.7,3.7,3.7s-1.7,3.7-3.7,3.7c-2.1,0-3.7-1.7-3.7-3.7
			S153.3,18.1,155.4,18.1z"/>
		<path class="st0" d="M65.4,38.3l0.2-0.1l4.7,4.7l-0.3,0.3c-1.2,1.2-1.2,3.1,0,4.2c1.1,1.1,3.1,1.1,4.2,0l4.7-4.7
			c0.6-0.6,0.9-1.3,0.9-2.1c0-0.8-0.3-1.6-0.9-2.1c-1.2-1.2-3.1-1.2-4.2,0l-0.3,0.3L69.9,34l0.1-0.2c1-2.2,1-4.8,0-7.1l-0.1-0.2
			l4.7-4.7l0.3,0.3c1.1,1.1,3.1,1.1,4.2,0c1.2-1.2,1.2-3.1,0-4.2L74.4,13c-1.2-1.2-3.1-1.2-4.2,0c-1.2,1.2-1.2,3.1,0,4.2l0.3,0.3
			l-4.7,4.7l-0.2-0.1c-2.3-1-4.8-1-7.1,0l-0.2,0.1l-4.7-4.7l0.3-0.3c1.2-1.2,1.2-3.1,0-4.2c-1.1-1.1-3.1-1.1-4.2,0l-4.7,4.7
			c-1.2,1.2-1.2,3.1,0,4.2c1.1,1.1,3.1,1.1,4.2,0l0.3-0.3l4.7,4.7l-0.1,0.2c-1,2.3-1,4.9,0,7.1l0.1,0.2l-4.7,4.7l-0.3-0.3
			c-1.2-1.2-3.1-1.2-4.2,0c-0.6,0.6-0.9,1.3-0.9,2.1c0,0.8,0.3,1.6,0.9,2.1l4.7,4.7c1.1,1.1,3.1,1.1,4.2,0c1.2-1.2,1.2-3.1,0-4.2
			L53.4,43l4.7-4.7l0.2,0.1C60.6,39.3,63.2,39.3,65.4,38.3z M60,32.4c-0.1-0.1-0.1-0.1-0.1-0.1l-0.1-0.1c-0.9-1-1-2.6-0.1-3.6
			c0.1-0.1,0.2-0.2,0.3-0.2c0.1-0.1,0.1-0.1,0.2-0.2c1.2-0.9,2.7-0.8,3.7,0l0.1,0.2c0,0,0.1,0.1,0.1,0.1c1,1.2,0.9,2.9-0.1,3.9v0
			c-0.5,0.5-1.3,0.8-2,0.8C61.2,33.1,60.5,32.8,60,32.4z"/>
		<path class="st0" d="M109.3,44.2c0,5.4,4.4,9.7,9.7,9.7s9.7-4.4,9.7-9.7c0-5.4-4.4-9.7-9.7-9.7S109.3,38.8,109.3,44.2z M119,40.5
			c2.1,0,3.7,1.7,3.7,3.7s-1.7,3.7-3.7,3.7c-2.1,0-3.7-1.7-3.7-3.7S117,40.5,119,40.5z"/>
		<path class="st0" d="M133.5,44.2c0,5.4,4.4,9.7,9.7,9.7s9.7-4.4,9.7-9.7c0-5.4-4.4-9.7-9.7-9.7S133.5,38.8,133.5,44.2z
			 M143.3,40.5c2.1,0,3.7,1.7,3.7,3.7s-1.7,3.7-3.7,3.7c-2.1,0-3.7-1.7-3.7-3.7S141.2,40.5,143.3,40.5z"/>
		<path class="st0" d="M90,97.5l3-5.2c0.5-0.9-0.1-2.1-1.2-2.1h-6c-1.1,0-1.8,1.2-1.2,2.1l3,5.2C88.1,98.4,89.5,98.4,90,97.5z"/>
		<path class="st0" d="M85.8,70.9h6c1.1,0,1.8-1.2,1.2-2.1l-3-5.2c-0.5-0.9-1.9-0.9-2.4,0l-3,5.2C84.1,69.7,84.7,70.9,85.8,70.9z"/>
		<path class="st0" d="M77,76.3l-5.2,3c-0.9,0.5-0.9,1.9,0,2.4l5.2,3c0.9,0.5,2.1-0.1,2.1-1.2v-6C79.1,76.4,77.9,75.7,77,76.3z"/>
		<path class="st0" d="M100.5,84.7l5.2-3c0.9-0.5,0.9-1.9,0-2.4l-5.2-3c-0.9-0.5-2.1,0.1-2.1,1.2v6C98.4,84.5,99.6,85.2,100.5,84.7z
			"/>
	</g>
</g>
</svg>
