<?xml version="1.0" encoding="utf-8"?>
<!-- Generator: Adobe Illustrator 22.1.0, SVG Export Plug-In . SVG Version: 6.00 Build 0)  -->
<svg version="1.1" id="Слой_1" width="36" xmlns="http://www.w3.org/2000/svg" xmlns:xlink="http://www.w3.org/1999/xlink" x="0px" y="0px"
	 viewBox="0 0 200 160" style="enable-background:new 0 0 200 160;" xml:space="preserve">
<style type="text/css">
	.st0{fill:#000000;}
</style>
<g>
	<path class="st0" d="M37.5,25.6h-7.4v-7.4c0-0.5-0.4-0.9-0.9-0.9h-3.9c-0.5,0-0.9,0.4-0.9,0.9v7.4H17c-0.5,0-0.9,0.4-0.9,0.9v3.9
		c0,0.5,0.4,0.9,0.9,0.9h7.4v7.4c0,0.5,0.4,0.9,0.9,0.9h3.9c0.5,0,0.9-0.4,0.9-0.9v-7.4h7.4c0.5,0,0.9-0.4,0.9-0.9v-3.9
		C38.4,26,38,25.6,37.5,25.6z"/>
	<path class="st0" d="M177.4,145.9h-7.4v-7.4c0-0.5-0.4-0.9-0.9-0.9h-3.9c-0.5,0-0.9,0.4-0.9,0.9v7.4h-7.4c-0.5,0-0.9,0.4-0.9,0.9
		v3.9c0,0.5,0.4,0.9,0.9,0.9h7.4v7.4c0,0.5,0.4,0.9,0.9,0.9h3.9c0.5,0,0.9-0.4,0.9-0.9v-7.4h7.4c0.5,0,0.9-0.4,0.9-0.9v-3.9
		C178.4,146.3,177.9,145.9,177.4,145.9z"/>
	<g id="VR">
		<path class="st0" d="M129.4,10.1l0.8-0.7c14.9-12.5,36.6-12.5,51.6-0.1l0.8,0.8c1.1,1.1,0.2,2-0.8,3.1c-1,1.1-1.8,2-2.9,1.1
			l-0.8-0.7c-12.8-10.6-31.4-10.6-44.2,0.1l-0.7,0.6C132.3,14.9,128.5,10.7,129.4,10.1z"/>
		<path class="st0" d="M178.4,64.8h-5.8c-0.1-1.3-0.4-2.5-0.7-3.7c0-0.1,0-0.1-0.1-0.2c-3-10.9-12.9-18.5-24.3-18.5H52.4
			c-11.3,0-21.2,7.6-24.3,18.5c0,0.1,0,0.1-0.1,0.2c-0.3,1.2-0.6,2.5-0.7,3.7h-3c-4.6,0-8.4,3.8-8.4,8.4v22.4c0,4.6,3.8,8.4,8.4,8.4
			h2.8v2.8c0,13.9,11.3,25.2,25.2,25.2h24c5,0,9.8-1.5,14-4.2l4.9-3.3c2.8-1.9,6.5-1.9,9.3,0l4.9,3.3c4.1,2.7,9,4.2,14,4.2h24
			c13.9,0,25.2-11.3,25.2-25.2V104h5.6c3.1,0,5.6-2.5,5.6-5.6v-28C184,67.4,181.5,64.8,178.4,64.8z M32.8,104c0,0,0.1-38.3,0.2-39.2
			h133.9c0.1,0.9,0.2,39.2,0.2,39.2H32.8z M52.4,48.1h95.2c7.6,0,14.4,4.4,17.7,11.2H34.7C38,52.4,44.9,48.1,52.4,48.1z M24.4,98.4
			c-1.5,0-2.8-1.3-2.8-2.8V73.2c0-1.5,1.3-2.8,2.8-2.8h2.8v28H24.4z M147.6,126.4h-24c-3.9,0-7.6-1.1-10.9-3.3l-4.9-3.3
			c-4.7-3.2-10.8-3.2-15.5,0l-4.9,3.3c-3.2,2.1-7,3.3-10.9,3.3h-24c-9.7,0-18-7.2-19.4-16.8h133.9
			C165.6,119.3,157.3,126.4,147.6,126.4z M172.8,98.4v-28h5.6v28H172.8z"/>
		<path class="st0" d="M70,39.2c9.1-5.4,19.4-8.1,30-8c10.5-0.1,20.9,2.6,30,8c1.3,0.8,2-0.5,2.8-1.8c0.8-1.3,1.5-2.1,0.2-2.9
			c-10-5.9-21.4-9-32.9-8.8c-11.6-0.1-23,2.9-32.9,8.8c-1.3,0.8-0.3,1.7,0.5,3.1C68.4,38.9,68.7,40.1,70,39.2L70,39.2L70,39.2z"/>
		<path class="st0" d="M130.5,135.7c-9.1,5.4-19.5,8.1-30,8c-10.5,0.2-20.9-2.6-30-8c-1.3-0.8-1.7,0.3-2.5,1.6
			c-0.8,1.3-1.8,2.3-0.5,3.1l0,0c10,5.9,21.4,9,33,8.8c11.6,0.1,23-2.9,33-8.8c1.3-0.8,0.6-1.7-0.3-3
			C132.4,136.1,131.8,134.9,130.5,135.7L130.5,135.7L130.5,135.7z"/>
		<path class="st0" d="M116.8,70.4H100c-1.2,0-2.2,0.7-2.6,1.8l-5.8,15.4l-6.3-16.7c-0.5-1.4-1.7-0.7-3.1-0.2
			c-1.4,0.5-2.6,0.7-2.1,2.1L89,96.6c0.5,1.4,2.2,2.2,3.6,1.6c0.8-0.3,1.4-0.9,1.6-1.6l7.7-20.6H114v5.6h-8.4
			c-1.5,0-2.8,1.3-2.8,2.8c0,0.6,0.2,1.2,0.6,1.7l8.9,11.7c0.9,1.2,2.1,0.5,3.4-0.5c1.2-0.9,2-1.7,1.1-2.9l-5.5-7.2h5.6
			c1.5,0,2.8-1.3,2.8-2.8V73.2C119.6,71.7,118.3,70.4,116.8,70.4z"/>
		<path class="st0" d="M144.6,26.5c-1.2,1-0.3,1.9,0.7,3.1c1,1.1,1.7,2.1,2.9,1.2c4.5-3.8,11.1-3.8,15.7,0c1.2,1,2.1,0,3.1-1.2
			c1-1.2,1.7-2,0.6-3c0,0-0.1-0.1-0.1-0.1C160.8,21,151.2,21,144.6,26.5z"/>
		<path class="st0" d="M158.8,70.4h-9.6c-1.5,0-1.2,1.2-1.2,2.7s-0.3,2.9,1.2,2.9h6.8v6.3c0,1.5,1.4,1.2,3,1.2s2.6,0.3,2.6-1.2v-9.1
			C161.6,71.7,160.3,70.4,158.8,70.4z"/>
		<path class="st0" d="M141,22.2c8.7-7.3,21.3-7.3,30,0c1.2,1,2.2,0,3.2-1.1c0.9-1.1,1.6-2,0.6-3l0,0c-10.8-9.2-26.7-9.2-37.5,0l0,0
			c-1.1,1.1,0.3,2,1.4,3.1C139.2,21.7,140.1,22.8,141,22.2z"/>
	</g>
</g>
</svg>
