<?xml version="1.0" encoding="utf-8"?>
<!-- Generator: Adobe Illustrator 22.1.0, SVG Export Plug-In . SVG Version: 6.00 Build 0)  -->
<svg version="1.1" id="Слой_1" width="10" xmlns="http://www.w3.org/2000/svg" xmlns:xlink="http://www.w3.org/1999/xlink" x="0px" y="0px"
	 viewBox="0 0 200 160" style="enable-background:new 0 0 200 160;" xml:space="preserve">
<style type="text/css">
	.st0{fill:#000000;}
</style>
<g>
	<g>
		<path class="st0" d="M100,96c-5.4,0-9.9,4-10.6,9.3s2.7,10.3,7.9,11.7v11.9c0,1,0.8,1.8,1.8,1.8h1.7c1,0,1.8-0.8,1.8-1.8V117
			c5.2-1.3,8.6-6.3,7.9-11.7C109.9,100,105.4,96,100,96L100,96z M100,112c-2.2,0-4.1-1.3-4.9-3.3s-0.4-4.3,1.2-5.8
			c1.5-1.5,3.8-2,5.8-1.2s3.3,2.8,3.3,4.9C105.3,109.6,102.9,112,100,112L100,112z"/>
		<path class="st0" d="M174.7,133.8v-19.2c0-1.5-1.2-2.7-2.7-2.7h-13.3V98.6c12.7,0,22.7-11,21.2-24c-1.3-10.8-11.1-18.7-22-18.7
			h-1.5c3.3-5.7,5-12.1,5-18.7c0-18.5-13.6-34.3-32-36.9C111-2.3,93.5,9,88.2,26.8c-8.5-8.1-21-10.4-31.8-5.7
			c-10.8,4.6-17.8,15.2-17.8,27c0,2.7,0.4,5.4,1.1,8.1c-11.4,0.8-20.2,10.6-19.8,22c0.4,11.5,9.8,20.6,21.3,20.6v10.7H28
			c-1.5,0-2.7,1.2-2.7,2.7v32.5c-3.7,1.3-5.9,5.1-5.2,8.9c0.7,3.8,4,6.6,7.9,6.6s7.2-2.8,7.9-6.6s-1.5-7.6-5.2-8.9v-29.8H44
			c1.5,0,2.7-1.2,2.7-2.7V98.6h16V136c0,4.4,3.6,8,8,8h58.7c4.4,0,8-3.6,8-8V98.6h16v16c0,1.5,1.2,2.7,2.7,2.7h13.3v16.5
			c-3.7,1.3-5.9,5.1-5.2,8.9c0.7,3.8,4,6.6,7.9,6.6s7.2-2.8,7.9-6.6C180.5,138.8,178.3,135.1,174.7,133.8L174.7,133.8z M28,154.6
			c-1.1,0-2-0.6-2.5-1.6c-0.4-1-0.2-2.1,0.6-2.9c0.8-0.8,1.9-1,2.9-0.6s1.6,1.4,1.6,2.5C30.7,153.4,29.5,154.6,28,154.6L28,154.6z
			 M132,136c0,1.5-1.2,2.7-2.7,2.7H70.7c-1.5,0-2.7-1.2-2.7-2.7V90.6c0-1.5,1.2-2.7,2.7-2.7h58.7c1.5,0,2.7,1.2,2.7,2.7L132,136
			L132,136z M118.7,82.6h-5.3v-24c0-4.4-3.6-8-8-8H94.7c-4.4,0-8,3.6-8,8v24h-5.3V53.3c0-4.4,3.6-8,8-8h21.3c4.4,0,8,3.6,8,8V82.6z
			 M108,82.6H92v-24c0-1.5,1.2-2.7,2.7-2.7h10.7c1.5,0,2.7,1.2,2.7,2.7L108,82.6L108,82.6z M129.3,82.6H124V53.3
			c0-7.4-6-13.3-13.3-13.3H89.3C82,40,76,46,76,53.3v29.3h-5.3c-4.4,0-8,3.6-8,8v2.7H42c-7.7,0-14.8-5.2-16.3-12.7
			c-2.1-10.3,5.7-19.3,15.7-19.3h2.2c0.9,0,1.7-0.5,2.2-1.2c0.5-0.8,0.6-1.7,0.2-2.5c-1.3-3-2-6.3-2-9.6c0-14.5,13-26.6,29.5-23.5
			c5.8,1.1,10.4,5.1,14.1,9.7c0.6,0.8,1.7,1.2,2.7,0.9c1.1-0.3,1.8-1.1,2-2.2c2.3-16.7,17.1-28.7,33.9-27.6
			C143,6.5,156,20.5,156,37.3c0,7.1-2.4,14.1-6.8,19.7c-0.6,0.8-0.7,1.9-0.3,2.8c0.4,0.9,1.4,1.5,2.4,1.5h6.8
			c7.7,0,14.8,5.2,16.3,12.7c2.1,10.3-5.7,19.3-15.7,19.3h-21.3v-2.7C137.3,86.2,133.7,82.6,129.3,82.6L129.3,82.6z M172,144
			c-1.1,0-2-0.6-2.5-1.6c-0.4-1-0.2-2.1,0.6-2.9c0.8-0.8,1.9-1,2.9-0.6s1.6,1.4,1.6,2.5C174.7,142.8,173.5,144,172,144L172,144z"/>
	</g>
</g>
</svg>
