<?xml version="1.0" encoding="utf-8"?>
<!-- Generator: Adobe Illustrator 22.1.0, SVG Export Plug-In . SVG Version: 6.00 Build 0)  -->
<svg version="1.1" id="Слой_1" width="10" xmlns="http://www.w3.org/2000/svg" xmlns:xlink="http://www.w3.org/1999/xlink" x="0px" y="0px"
	 viewBox="0 0 200 160" style="enable-background:new 0 0 200 160;" xml:space="preserve">
<style type="text/css">
	.st0{fill:#000000;}
</style>
<g>
	<g>
		<path class="st0" d="M180,49c0-4.3-3.5-7.7-7.7-7.7c-0.9,0-1.7,0.2-2.5,0.5l-11.6-14.5c0.7-1.2,1.2-2.6,1.2-4.1
			c0-4.3-3.5-7.7-7.7-7.7c-2.2,0-4.1,0.9-5.5,2.3l-20.3-9.4c0-0.2,0.1-0.5,0.1-0.7c0-4.3-3.5-7.7-7.7-7.7c-3.4,0-6.2,2.2-7.3,5.2
			H81.5c-1.1-3-3.9-5.2-7.3-5.2c-4.3,0-7.7,3.5-7.7,7.7c0,0.3,0.1,0.6,0.1,0.9L53.8,15c-1.4-1.3-3.3-2.2-5.4-2.2
			c-4.3,0-7.7,3.5-7.7,7.7c0,1.5,0.4,2.9,1.2,4.1L30.3,39.2c-0.8-0.3-1.6-0.5-2.5-0.5c-4.3,0-7.7,3.5-7.7,7.7c0,3.4,2.2,6.2,5.2,7.3
			v16.4c-3,1.1-5.2,3.9-5.2,7.3c0,4.3,3.5,7.7,7.7,7.7c2.9,0,5.3-1.6,6.7-3.9l14.1,2.6c0.6,3.7,3.8,6.5,7.6,6.5c0.1,0,0.2,0,0.3,0
			l4.9,12.3c-1.6,1.4-2.6,3.5-2.6,5.8c0,4.3,3.5,7.7,7.7,7.7c2.6,0,4.9-1.3,6.3-3.3l22.1,6.3c0.2,3.1,2.3,5.8,5.1,6.8v19
			c-3,1.1-5.2,3.9-5.2,7.3c0,4.3,3.5,7.7,7.7,7.7c4.3,0,7.7-3.5,7.7-7.7c0-3.4-2.2-6.2-5.2-7.3v-19c3-1.1,5.2-3.9,5.2-7.3
			c0-2.5-1.2-4.7-3-6.1l3.1-9.2l23.2,7.7c0.1,3.3,2.2,6.1,5.1,7.1V145c-3,1.1-5.2,3.9-5.2,7.3c0,4.3,3.5,7.7,7.7,7.7
			c4.3,0,7.7-3.5,7.7-7.7c0-3.4-2.2-6.2-5.2-7.3v-26.8c3-1.1,5.2-3.9,5.2-7.3c0-0.9-0.2-1.8-0.5-2.7l19.8-16.5
			c1.2,0.7,2.5,1.1,3.9,1.1c4.3,0,7.7-3.5,7.7-7.7c0-3.4-2.2-6.2-5.2-7.3V56.3C177.8,55.2,180,52.4,180,49L180,49z M151.6,20.6
			c1.4,0,2.6,1.2,2.6,2.6s-1.2,2.6-2.6,2.6c-1.4,0-2.6-1.2-2.6-2.6C149,21.8,150.2,20.6,151.6,20.6L151.6,20.6z M147.9,30
			c1.1,0.6,2.3,1,3.7,1c0.9,0,1.7-0.2,2.5-0.5L165.7,45c-0.7,1.2-1.2,2.6-1.2,4.1c0,0.4,0.1,0.8,0.1,1.2l-18.3,10L133,49.1
			c0.3-0.8,0.5-1.7,0.5-2.7s-0.2-2-0.6-3L147.9,30z M115.5,72.3c-1.2,0-2.3,0.3-3.3,0.8l-10.9-10.9l19.3-10c1.4,1.3,3.2,2.1,5.3,2.1
			c1.4,0,2.8-0.4,3.9-1.1l11.7,9.8l-20.9,11.4C119.3,73,117.5,72.3,115.5,72.3L115.5,72.3z M118.1,80c0,1.4-1.2,2.6-2.6,2.6
			s-2.6-1.2-2.6-2.6s1.2-2.6,2.6-2.6S118.1,78.6,118.1,80L118.1,80z M79,51.6l4.3,14L61.3,77c-0.9-0.9-2-1.5-3.3-1.8l-3.6-27.4
			l17.7-0.9C73.3,49.5,76,51.5,79,51.6L79,51.6z M76.8,43.9c0-1.4,1.2-2.6,2.6-2.6s2.6,1.2,2.6,2.6c0,1.4-1.2,2.6-2.6,2.6
			C77.9,46.5,76.8,45.3,76.8,43.9L76.8,43.9z M84.9,70.6l6.5,21.1l-27.6-9.2c0-0.3-0.1-0.6-0.1-0.9L84.9,70.6z M84.9,53.1l7.7,7.7
			L88,63.1L84.9,53.1z M86.3,47.2c0.5-1,0.8-2.1,0.8-3.3c0-1.1-0.2-2.1-0.7-3.1l12.3-11.4l19.8,14.8c-0.2,0.7-0.4,1.5-0.4,2.3
			c0,0.4,0.1,0.7,0.1,1.1L97.4,58.3L86.3,47.2z M123.2,46.5c0-1.4,1.2-2.6,2.6-2.6s2.6,1.2,2.6,2.6c0,1.4-1.2,2.6-2.6,2.6
			C124.4,49,123.2,47.9,123.2,46.5L123.2,46.5z M145.7,66.4l18.5,15.4l-40.1-3.6L145.7,66.4z M118.1,5.2c1.4,0,2.6,1.2,2.6,2.6
			s-1.2,2.6-2.6,2.6s-2.6-1.2-2.6-2.6C115.5,6.3,116.6,5.2,118.1,5.2L118.1,5.2z M114.5,14.6c1.1,0.6,2.3,0.9,3.5,0.9
			c2.2,0,4.1-0.9,5.5-2.3l20.3,9.4c0,0.2-0.1,0.5-0.1,0.7c0,1,0.2,2,0.6,3l-15,13.5c-1.1-0.6-2.3-1-3.7-1c-1.6,0-3.1,0.5-4.3,1.3
			l-19-14.2L114.5,14.6z M110.8,10.3c0.1,0.2,0.1,0.3,0.2,0.5L98.3,22.6L81.9,10.3H110.8z M74.2,5.2c1.4,0,2.6,1.2,2.6,2.6
			s-1.2,2.6-2.6,2.6s-2.6-1.2-2.6-2.6C71.6,6.3,72.8,5.2,74.2,5.2L74.2,5.2z M56.1,20.6c0-0.3-0.1-0.6-0.1-0.9l12.8-6.4
			c1.4,1.3,3.3,2.2,5.4,2.2c1.6,0,3.1-0.5,4.3-1.3l16,12L82.9,37c-1.1-0.6-2.3-0.9-3.5-0.9c-3.5,0-6.4,2.3-7.4,5.5l-18.1,0.9l-2-15
			C54.4,26.2,56.1,23.6,56.1,20.6L56.1,20.6z M48.4,18.1c1.4,0,2.6,1.2,2.6,2.6s-1.2,2.6-2.6,2.6c-1.4,0-2.6-1.2-2.6-2.6
			C45.8,19.2,47,18.1,48.4,18.1L48.4,18.1z M45.9,27.9c0.3,0.1,0.6,0.2,0.9,0.3l1.9,14.6l-13.8,0.7c-0.2-0.4-0.4-0.8-0.6-1.1
			L45.9,27.9z M27.7,43.9c1.4,0,2.6,1.2,2.6,2.6c0,1.4-1.2,2.6-2.6,2.6s-2.6-1.2-2.6-2.6C25.2,45,26.3,43.9,27.7,43.9L27.7,43.9z
			 M27.7,80c-1.4,0-2.6-1.2-2.6-2.6s1.2-2.6,2.6-2.6s2.6,1.2,2.6,2.6S29.2,80,27.7,80L27.7,80z M49.4,78.7l-14.1-2.6
			c-0.5-2.8-2.4-5.1-5-6V53.7c2.3-0.8,4.1-2.7,4.8-5.1L49.3,48l3.6,27.6C51.5,76.2,50.3,77.3,49.4,78.7L49.4,78.7z M56.1,85.2
			c-1.4,0-2.6-1.2-2.6-2.6s1.2-2.6,2.6-2.6c1.4,0,2.6,1.2,2.6,2.6C58.7,84,57.6,85.2,56.1,85.2L56.1,85.2z M66.5,111
			c-1.4,0-2.6-1.2-2.6-2.6s1.2-2.6,2.6-2.6s2.6,1.2,2.6,2.6C69,109.8,67.9,111,66.5,111L66.5,111z M96.3,114.2l-22.1-6.3
			c-0.3-4-3.6-7.3-7.7-7.3c-0.1,0-0.2,0-0.3,0l-4.9-12.3c0.4-0.3,0.7-0.7,1-1l31.2,10.4l4.6,14.8C97.3,113,96.8,113.6,96.3,114.2
			L96.3,114.2z M102.6,154.8c-1.4,0-2.6-1.2-2.6-2.6c0-1.4,1.2-2.6,2.6-2.6s2.6,1.2,2.6,2.6C105.2,153.7,104,154.8,102.6,154.8
			L102.6,154.8z M102.6,121.3c-1.4,0-2.6-1.2-2.6-2.6s1.2-2.6,2.6-2.6s2.6,1.2,2.6,2.6S104,121.3,102.6,121.3L102.6,121.3z
			 M102.7,110.3l-3.3-10.6l6.1,2L102.7,110.3z M107.1,96.9l-9.6-3.2l-7.9-25.5l6.8-3.5l12.1,12.1c-0.5,1-0.8,2.1-0.8,3.3
			c0,2.5,1.2,4.7,3,6.1L107.1,96.9z M141.3,154.8c-1.4,0-2.6-1.2-2.6-2.6c0-1.4,1.2-2.6,2.6-2.6c1.4,0,2.6,1.2,2.6,2.6
			C143.9,153.7,142.7,154.8,141.3,154.8L141.3,154.8z M141.3,113.5c-1.4,0-2.6-1.2-2.6-2.6s1.2-2.6,2.6-2.6c1.4,0,2.6,1.2,2.6,2.6
			S142.7,113.5,141.3,113.5L141.3,113.5z M145.2,104.3c-1.2-0.7-2.5-1.1-3.9-1.1c-2.5,0-4.7,1.2-6.1,3L112,98.5l3.6-10.8
			c3-0.1,5.7-1.9,6.9-4.5l42.3,3.8c0.1,0.3,0.1,0.5,0.2,0.8L145.2,104.3z M150.6,63.8l16.5-9c0.7,0.7,1.6,1.2,2.6,1.5v21.6
			c-0.5,0.2-0.9,0.4-1.3,0.6L150.6,63.8z M172.3,87.7c-1.4,0-2.6-1.2-2.6-2.6s1.2-2.6,2.6-2.6c1.4,0,2.6,1.2,2.6,2.6
			C174.8,86.6,173.7,87.7,172.3,87.7L172.3,87.7z M172.3,51.6c-1.4,0-2.6-1.2-2.6-2.6c0-1.4,1.2-2.6,2.6-2.6c1.4,0,2.6,1.2,2.6,2.6
			C174.8,50.5,173.7,51.6,172.3,51.6L172.3,51.6z"/>
	</g>
</g>
</svg>
