<?xml version="1.0" encoding="utf-8"?>
<!-- Generator: Adobe Illustrator 22.1.0, SVG Export Plug-In . SVG Version: 6.00 Build 0)  -->
<svg version="1.1" id="Слой_1" width="10" xmlns="http://www.w3.org/2000/svg" xmlns:xlink="http://www.w3.org/1999/xlink" x="0px" y="0px"
	 viewBox="0 0 200 160" style="enable-background:new 0 0 200 160;" xml:space="preserve">
<style type="text/css">
	.st0{fill:#000000;}
</style>
<g>
	<g>
		<path class="st0" d="M180.5,39.1V4.4c0-2.4-2-4.4-4.4-4.4h-34.7C139,0,137,2,137,4.4V19h-19.7c-1.1,0-2,0.6-2.6,1.5L98.8,46.7
			v-5.9c0-10.3-19.9-15.6-39.6-15.6s-39.6,5.4-39.6,15.6v77.4c0,10.3,19.9,15.6,39.6,15.6s39.6-5.4,39.6-15.6v-5l15.8,26.2
			c0.6,0.9,1.6,1.5,2.6,1.5h19.7v14.7c0,2.4,1.9,4.3,4.3,4.3h34.9c2.4,0,4.3-1.9,4.3-4.3v-34.9c0-2.4-1.9-4.3-4.3-4.3h-34.9
			c-2.4,0-4.3,1.9-4.3,4.3v14.7h-16.6c-1.1,0-2.1-0.6-2.6-1.5l-18.9-31.4V84.9h38.1v14.7c0,2.4,1.9,4.3,4.3,4.3h34.9
			c2.4,0,4.3-1.9,4.3-4.3V64.7c0-2.4-1.9-4.3-4.3-4.3h-34.9c-2.4,0-4.3,1.9-4.3,4.3v14.7H98.8v-22L117.7,26c0.6-0.9,1.6-1.5,2.6-1.5
			h16.6v14.6c0,2.4,2,4.4,4.4,4.4H176C178.5,43.5,180.5,41.6,180.5,39.1z M175,5.5v32.6h-32.6V5.5H175z M175,65.9v32.6h-32.6V65.9
			H175z M59.2,51C38.3,51,25,45,25,40.8c0-4.1,13.3-10.2,34.2-10.2s34.2,6,34.2,10.2C93.3,45,80,51,59.2,51z M59.2,76.8
			c-20.9,0-34.2-6-34.2-10.2V49.2c6.8,4.5,19.8,7.3,34.2,7.3s27.3-2.8,34.2-7.3v17.5C93.3,70.8,80,76.8,59.2,76.8z M59.2,102.6
			c-20.9,0-34.2-6-34.2-10.2V75c6.8,4.5,19.8,7.3,34.2,7.3s27.3-2.8,34.2-7.3v17.5C93.3,96.6,80,102.6,59.2,102.6z M59.2,128.4
			c-20.9,0-34.2-6-34.2-10.2v-17.5c6.8,4.5,19.8,7.3,34.2,7.3s27.3-2.8,34.2-7.3v17.5C93.3,122.4,80,128.4,59.2,128.4z M175,121.9
			v32.6h-32.6v-32.6H175z"/>
		<path class="st0" d="M103,73.1v1.1c0,1.2,1,2.2,2.2,2.2H121c1.2,0,2.2-1,2.2-2.2v-1.1c0-1.2-1-2.2-2.2-2.2h-15.8
			C104,70.9,103,71.9,103,73.1z"/>
		<path class="st0" d="M148.6,15.1v1.1c0,1.2,1,2.2,2.2,2.2h15.8c1.2,0,2.2-1,2.2-2.2v-1.1c0-1.2-1-2.2-2.2-2.2h-15.8
			C149.6,12.9,148.6,13.9,148.6,15.1z"/>
		<path class="st0" d="M39.9,63.2h2.7c0.7,0,1.3,0.6,1.3,1.3v2.7c0,0.7-0.6,1.3-1.3,1.3h-2.7c-0.7,0-1.3-0.6-1.3-1.3v-2.7
			C38.6,63.8,39.2,63.2,39.9,63.2z"/>
		<path class="st0" d="M51.6,63.2h2.7c0.7,0,1.3,0.6,1.3,1.3v2.7c0,0.7-0.6,1.3-1.3,1.3h-2.7c-0.7,0-1.3-0.6-1.3-1.3v-2.7
			C50.3,63.8,50.9,63.2,51.6,63.2z"/>
		<path class="st0" d="M64,63.2h2.7c0.7,0,1.3,0.6,1.3,1.3v2.7c0,0.7-0.6,1.3-1.3,1.3H64c-0.7,0-1.3-0.6-1.3-1.3v-2.7
			C62.7,63.8,63.3,63.2,64,63.2z"/>
		<path class="st0" d="M75.7,63.2h2.7c0.7,0,1.3,0.6,1.3,1.3v2.7c0,0.7-0.6,1.3-1.3,1.3h-2.7c-0.7,0-1.3-0.6-1.3-1.3v-2.7
			C74.4,63.8,75,63.2,75.7,63.2z"/>
		<path class="st0" d="M75.7,88.8h2.7c0.7,0,1.3,0.6,1.3,1.3v2.7c0,0.7-0.6,1.3-1.3,1.3h-2.7c-0.7,0-1.3-0.6-1.3-1.3v-2.7
			C74.4,89.4,75,88.8,75.7,88.8z"/>
		<path class="st0" d="M39.9,88.8h2.7c0.7,0,1.3,0.6,1.3,1.3v2.7c0,0.7-0.6,1.3-1.3,1.3h-2.7c-0.7,0-1.3-0.6-1.3-1.3v-2.7
			C38.6,89.4,39.2,88.8,39.9,88.8z"/>
		<path class="st0" d="M51.6,88.8h2.7c0.7,0,1.3,0.6,1.3,1.3v2.7c0,0.7-0.6,1.3-1.3,1.3h-2.7c-0.7,0-1.3-0.6-1.3-1.3v-2.7
			C50.3,89.4,50.9,88.8,51.6,88.8z"/>
		<path class="st0" d="M64,88.8h2.7c0.7,0,1.3,0.6,1.3,1.3v2.7c0,0.7-0.6,1.3-1.3,1.3H64c-0.7,0-1.3-0.6-1.3-1.3v-2.7
			C62.7,89.4,63.3,88.8,64,88.8z"/>
		<path class="st0" d="M128.2,70.9h2.7c0.7,0,1.3,0.6,1.3,1.3V75c0,0.7-0.6,1.3-1.3,1.3h-2.7c-0.7,0-1.3-0.6-1.3-1.3v-2.7
			C126.9,71.5,127.5,70.9,128.2,70.9z"/>
		<path class="st0" d="M150,25.3h5.6c0.7,0,1.3,0.6,1.3,1.3v2.7c0,0.7-0.6,1.3-1.3,1.3H150c-0.7,0-1.3-0.6-1.3-1.3v-2.7
			C148.6,25.9,149.2,25.3,150,25.3z"/>
		<path class="st0" d="M161.9,25.3h5.6c0.7,0,1.3,0.6,1.3,1.3v2.7c0,0.7-0.6,1.3-1.3,1.3h-5.6c-0.7,0-1.3-0.6-1.3-1.3v-2.7
			C160.5,25.9,161.1,25.3,161.9,25.3z"/>
		<path class="st0" d="M148.6,75.5v1.1c0,1.2,1,2.2,2.2,2.2h15.8c1.2,0,2.2-1,2.2-2.2v-1.1c0-1.2-1-2.2-2.2-2.2h-15.8
			C149.6,73.3,148.6,74.3,148.6,75.5z"/>
		<path class="st0" d="M150,85.6h5.6c0.7,0,1.3,0.6,1.3,1.3v2.7c0,0.7-0.6,1.3-1.3,1.3H150c-0.7,0-1.3-0.6-1.3-1.3V87
			C148.6,86.2,149.2,85.6,150,85.6z"/>
		<path class="st0" d="M161.9,85.6h5.6c0.7,0,1.3,0.6,1.3,1.3v2.7c0,0.7-0.6,1.3-1.3,1.3h-5.6c-0.7,0-1.3-0.6-1.3-1.3V87
			C160.5,86.2,161.1,85.6,161.9,85.6z"/>
		<path class="st0" d="M148.6,131.5v1.1c0,1.2,1,2.2,2.2,2.2h15.8c1.2,0,2.2-1,2.2-2.2v-1.1c0-1.2-1-2.2-2.2-2.2h-15.8
			C149.6,129.4,148.6,130.3,148.6,131.5z"/>
		<path class="st0" d="M150,141.7h5.6c0.7,0,1.3,0.6,1.3,1.3v2.7c0,0.7-0.6,1.3-1.3,1.3H150c-0.7,0-1.3-0.6-1.3-1.3V143
			C148.6,142.3,149.2,141.7,150,141.7z"/>
		<path class="st0" d="M161.9,141.7h5.6c0.7,0,1.3,0.6,1.3,1.3v2.7c0,0.7-0.6,1.3-1.3,1.3h-5.6c-0.7,0-1.3-0.6-1.3-1.3V143
			C160.5,142.3,161.1,141.7,161.9,141.7z"/>
		<path class="st0" d="M106,103.8l-0.9,0.6c-1,0.7-1.3,2-0.7,3l8.6,13.3c0.7,1,2,1.3,3,0.7l0.9-0.6c1-0.7,1.3-2,0.7-3l-8.6-13.3
			C108.4,103.5,107,103.2,106,103.8z"/>
		<path class="st0" d="M121.5,123.9l1.5,2.3c0.4,0.6,0.2,1.5-0.4,1.9l-2.3,1.5c-0.6,0.4-1.5,0.2-1.9-0.4l-1.5-2.3
			c-0.4-0.6-0.2-1.5,0.4-1.9l2.3-1.5C120.3,123.1,121.1,123.2,121.5,123.9z"/>
		<path class="st0" d="M105.7,56.1l1,0.6c1,0.6,2.4,0.3,3-0.8l8.1-13.6c0.6-1,0.3-2.4-0.8-3l-1-0.6c-1-0.6-2.4-0.3-3,0.8l-8,13.6
			C104.4,54.1,104.7,55.5,105.7,56.1z"/>
		<path class="st0" d="M116.7,33.3l1.4-2.3c0.4-0.6,1.2-0.9,1.8-0.5l2.3,1.4c0.6,0.4,0.9,1.2,0.5,1.8l-1.4,2.3
			c-0.4,0.6-1.2,0.9-1.8,0.5l-2.3-1.4C116.6,34.8,116.4,33.9,116.7,33.3z"/>
		<path class="st0" d="M39.9,114.4h2.7c0.7,0,1.3,0.6,1.3,1.3v2.7c0,0.7-0.6,1.3-1.3,1.3h-2.7c-0.7,0-1.3-0.6-1.3-1.3v-2.7
			C38.6,115,39.2,114.4,39.9,114.4z"/>
		<path class="st0" d="M51.6,114.4h2.7c0.7,0,1.3,0.6,1.3,1.3v2.7c0,0.7-0.6,1.3-1.3,1.3h-2.7c-0.7,0-1.3-0.6-1.3-1.3v-2.7
			C50.3,115,50.9,114.4,51.6,114.4z"/>
		<path class="st0" d="M64,114.4h2.7c0.7,0,1.3,0.6,1.3,1.3v2.7c0,0.7-0.6,1.3-1.3,1.3H64c-0.7,0-1.3-0.6-1.3-1.3v-2.7
			C62.7,115,63.3,114.4,64,114.4z"/>
		<path class="st0" d="M75.7,114.4h2.7c0.7,0,1.3,0.6,1.3,1.3v2.7c0,0.7-0.6,1.3-1.3,1.3h-2.7c-0.7,0-1.3-0.6-1.3-1.3v-2.7
			C74.4,115,75,114.4,75.7,114.4z"/>
	</g>
</g>
</svg>
