<?xml version="1.0" encoding="utf-8"?>
<!-- Generator: Adobe Illustrator 22.1.0, SVG Export Plug-In . SVG Version: 6.00 Build 0)  -->
<svg version="1.1" id="Слой_1" width="10" xmlns="http://www.w3.org/2000/svg" xmlns:xlink="http://www.w3.org/1999/xlink" x="0px" y="0px"
	 viewBox="0 0 200 160" style="enable-background:new 0 0 200 160;" xml:space="preserve">
<style type="text/css">
	.st0{fill:#000000;}
</style>
<g>
	<g>
		<path class="st0" d="M31.3,13.3h-2.8c-0.7,0-1.4,0.7-1.4,1.4v2.8c0,0.8,0.6,1.4,1.4,1.4h2.8c0.8,0,1.4-0.6,1.4-1.4v-2.8
			C32.7,13.9,32.1,13.3,31.3,13.3z"/>
		<path class="st0" d="M42.3,13.3h-2.8c-0.7,0-1.4,0.7-1.4,1.4v2.8c0,0.8,0.6,1.4,1.4,1.4h2.8c0.8,0,1.4-0.6,1.4-1.4v-2.8
			C43.7,13.9,43.1,13.3,42.3,13.3z"/>
		<path class="st0" d="M53.3,13.3h-2.8c-0.8,0-1.4,0.7-1.4,1.4v2.8c0,0.8,0.6,1.4,1.4,1.4h2.8c0.8,0,1.4-0.6,1.4-1.4v-2.8
			C54.7,13.9,54.1,13.3,53.3,13.3z"/>
		<path class="st0" d="M81.2,48.9H88v4.9c0,0.6,0.5,1.2,1.2,1.2h3.2c0.6,0,1.2-0.5,1.2-1.2v-7.7c0-1.5-1.3-2.8-2.8-2.8H78.4
			c-1.5,0-2.8,1.3-2.8,2.8v20.1c0,0.6,0.5,1.2,1.2,1.2H80c0.6,0,1.2-0.5,1.2-1.2V48.9z"/>
		<path class="st0" d="M105.9,30.4h6.7v14.2c0,0.7,0.6,1.2,1.2,1.2h3.1c0.7,0,1.2-0.6,1.2-1.2v-17c0-1.5-1.3-2.8-2.8-2.8h-12.3
			c-1.5,0-2.8,1.3-2.8,2.8v20.1c0,0.7,0.6,1.2,1.2,1.2h3.1c0.7,0,1.2-0.6,1.2-1.2V30.4z"/>
		<path class="st0" d="M130.5,42.6h6.7v7.9c0,0.7,0.6,1.3,1.3,1.3h3.1c0.7,0,1.3-0.6,1.3-1.3V39.9c0-1.5-1.3-2.8-2.8-2.8h-12.3
			c-1.5,0-2.8,1.3-2.8,2.8v7.6c0,0.7,0.6,1.3,1.3,1.3h3.1c0.7,0,1.3-0.6,1.3-1.3V42.6z"/>
		<path class="st0" d="M155.1,24.2h6.7v51.1c0,0.7,0.6,1.2,1.2,1.2h3.1c0.7,0,1.2-0.6,1.2-1.2V21.4c0-1.5-1.3-2.8-2.8-2.8h-12.3
			c-1.5,0-2.8,1.3-2.8,2.8v35.5c0,0.7,0.6,1.2,1.2,1.2h3.1c0.7,0,1.2-0.6,1.2-1.2V24.2z"/>
		<path class="st0" d="M183.2,143.8l-17-17h2.4c6.1,0,11-5,11-11V102c0,0,0,0,0,0V11c0-6-5-11-11-11H25.1c-6.1,0-11,5-11,11v74.8
			v5.6v10.1c-0.1,0.2-0.1,0.5-0.1,0.7V116c0,6.1,5,11,11,11h55.1c-0.7,10.9-5.2,16.4-13.7,16.4H61c-4.6,0-8.3,3.7-8.3,8.3
			c0,4.6,3.7,8.3,8.3,8.3h71.7c4.6,0,8.3-3.7,8.3-8.3c0-4.5-3.7-8.3-8.3-8.3h-5.5c-4.7,0-8.2-1.8-10.5-5.2
			c9.1,0.4,18.4-2.2,26.4-7.8l0.2-0.1l0.2,0.2L170,157c1.8,1.8,4.1,2.7,6.6,2.7s4.8-1,6.6-2.7c1.8-1.8,2.7-4.1,2.7-6.6
			S184.9,145.6,183.2,143.8z M174,115.8c0,3-2.5,5.5-5.5,5.5h-7.8l-4.9-4.9l0.1-0.2c2-3.7,3.5-7.5,4.4-11.4H174V115.8z M66.2,91.4
			c1.5,0,2.8-1.3,2.8-2.8V57.8c0-1.5-1.3-2.8-2.8-2.8H53.8c-1.5,0-2.8,1.3-2.8,2.8v28h-6.7V63.9c0-1.5-1.3-2.7-2.8-2.7H29.2
			c-1.5,0-2.8,1.3-2.8,2.8v21.8h-6.8V11c0-3,2.5-5.5,5.5-5.5h143.4c3,0,5.5,2.5,5.5,5.5v88.3h-12.8c1.4-14.8-5-29.8-17.8-39
			c-17.8-12.8-42.3-10.2-56.9,6.1c-8.4,9.3-12,21.3-10.9,32.9h-56v-7.9H66.2z M32,85.8V66.7h6.7v19.1H32z M56.6,85.8V60.6h6.7v25.2
			H56.6z M19.6,115.9v-11h56.9c1.3,5.8,3.9,11.4,7.7,16.4H83c-0.2,0-0.5,0-0.7,0.1H25.1C22.1,121.4,19.6,118.9,19.6,115.9z
			 M135.5,151.7c0,1.5-1.3,2.8-2.8,2.8H61c-1.5,0-2.8-1.2-2.8-2.8c0-1.5,1.2-2.8,2.8-2.8h4.7c0.2,0.1,0.5,0.1,0.7,0.1h60.7
			c0.2,0,0.5,0,0.7-0.1h4.9C134.2,148.9,135.5,150.1,135.5,151.7z M113.7,143.4H79.9c3.4-3.8,5.4-9.3,5.8-16.4h3.8
			c5.9,5.4,13.1,8.9,20.7,10.4C111,139.7,112.2,141.7,113.7,143.4z M118.5,132.5c-20.5,0-37.2-16.7-37.2-37.2
			c-0.1-20.5,16.6-37.2,37.2-37.2c20.5,0,37.2,16.7,37.2,37.2S139,132.5,118.5,132.5z M180,151.8c-0.6,1.4-1.9,2.3-3.5,2.3
			c-1,0-2-0.4-2.6-1.1l-26.4-26.4l0.2-0.2c1.7-1.6,3.2-3.3,4.6-5.1l0.2-0.3l0.2,0.2l26.5,26.5C180.3,148.8,180.6,150.4,180,151.8z"
			/>
		<path class="st0" d="M118.5,64.8C101.7,64.8,88,78.5,88,95.3s13.7,30.5,30.5,30.5S149,112.2,149,95.3
			C149,78.5,135.3,64.9,118.5,64.8z M118.5,120.3c-13.7,0-24.9-11.2-24.9-24.9c0-13.7,11.2-24.9,24.9-24.9s24.9,11.2,24.9,24.9
			C143.4,109.1,132.2,120.2,118.5,120.3z"/>
		<path class="st0" d="M116.9,77.2c-8.8,0.8-15.8,7.8-16.5,16.5c-0.1,0.7,0.5,1.3,1.2,1.3h3.2c0.6,0,1.1-0.5,1.2-1.1
			c0.7-5.8,5.3-10.5,11.1-11.1c0.6-0.1,1.1-0.6,1.1-1.2v-3.2C118.2,77.7,117.6,77.1,116.9,77.2z"/>
	</g>
</g>
</svg>
