<?xml version="1.0" encoding="utf-8"?>
<!-- Generator: Adobe Illustrator 22.1.0, SVG Export Plug-In . SVG Version: 6.00 Build 0)  -->
<svg version="1.1" id="Слой_1" width="10" xmlns="http://www.w3.org/2000/svg" xmlns:xlink="http://www.w3.org/1999/xlink" x="0px" y="0px"
	 viewBox="0 0 200 160" style="enable-background:new 0 0 200 160;" xml:space="preserve">
<style type="text/css">
	.st0{fill:#000000;}
</style>
<g>
	<g>
		<path class="st0" d="M158.7,28h-28.6V11.8c0-4-3.3-7.3-7.3-7.3h-6.2V0h-7.3c-4,0-7.3,3.3-7.3,7.3s3.3,7.3,7.3,7.3h7.3V10h6.2
			c1,0,1.7,0.8,1.7,1.7V28H76.1V11.8c0-1,0.8-1.7,1.7-1.7H84v4.5h7.3c4,0,7.3-3.3,7.3-7.3S95.3,0,91.3,0H84v4.5h-6.2
			c-4,0-7.3,3.3-7.3,7.3V28H41.3c-5.3,0-9.5,4.3-9.5,9.5v85.8c0,5.3,4.3,9.5,9.5,9.5h44.5c-0.6,8.3-4.2,12.5-10.6,12.5h-4.5
			c-4,0-7.3,3.3-7.3,7.3s3.3,7.3,7.3,7.3h58.7c4,0,7.3-3.3,7.3-7.3s-3.3-7.3-7.3-7.3h-4.5c-6.4,0-10-4.2-10.6-12.5h44.5
			c5.3,0,9.5-4.3,9.5-9.5V37.6C168.2,32.3,164,28,158.7,28z M68.9,152.7c0-1,0.8-1.7,1.7-1.7h58.7c1,0,1.7,0.8,1.7,1.7
			c0,1-0.8,1.7-1.7,1.7H70.7C69.7,154.5,68.9,153.7,68.9,152.7z M87.3,145.4c2.4-3.1,3.8-7.3,4.1-12.5h17.2
			c0.4,5.2,1.7,9.5,4.1,12.5H87.3z M100.3,50.5c1,0,1.7,0.8,1.7,1.7c0,1-0.8,1.7-1.7,1.7c-1,0-1.7-0.8-1.7-1.7
			C98.6,51.3,99.4,50.5,100.3,50.5z M120.2,90h-3.6v-3.5h3.6c-0.1,0.6-0.1,1.2-0.1,1.7C120.1,88.8,120.1,89.4,120.2,90z M125.6,88.3
			c0-5.9,4.8-10.7,10.7-10.7c5.9,0,10.7,4.8,10.7,10.7c0,5.9-4.8,10.7-10.7,10.7C130.4,99,125.6,94.2,125.6,88.3z M100.3,45
			c-2.9,0-5.5,1.7-6.6,4.4c-7.1-0.8-15.6-5.3-17.3-15.8h47.9c-1.7,10.5-10.2,15.1-17.3,15.8C105.8,46.8,103.2,45,100.3,45z M97.6,59
			v9c0,1-0.8,1.7-1.7,1.7H58.7c-5.9,0-10.6,4.8-10.6,10.6s4.8,10.6,10.6,10.6h52.4v4.5h10.7c2.8,5.5,8.4,9,14.5,9
			c9,0,16.3-7.3,16.3-16.3S145.3,72,136.3,72c-6.1,0-11.8,3.5-14.5,9h-10.7v4.5H58.7c-2.8,0-5.1-2.3-5.1-5.1s2.3-5.1,5.1-5.1h37.1
			c4,0,7.3-3.3,7.3-7.3v-9c1.8-0.8,3.3-2.2,4-4c9.8-0.9,21-7.9,22.8-21.3h28.9c2.2,0,4,1.8,4,4v71.7H37.3V37.6c0-2.2,1.8-4,4-4h29.5
			C72.6,47,83.8,54,93.6,54.9C94.3,56.8,95.7,58.2,97.6,59z M162.7,123.4c0,2.2-1.8,4-4,4H41.3c-2.2,0-4-1.8-4-4v-8.5h125.4V123.4z
			 M111.1,5.5V9h-1.7c-1,0-1.7-0.8-1.7-1.7s0.8-1.7,1.7-1.7h1.7V5.5z M89.6,9V5.5h1.7c1,0,1.7,0.8,1.7,1.7S92.3,9,91.3,9H89.6z"/>
		<path class="st0" d="M93.2,123.9h13.5c1.5,0,2.8-1.2,2.8-2.8c0-1.5-1.2-2.8-2.8-2.8H93.2c-1.5,0-2.8,1.2-2.8,2.8
			C90.5,122.6,91.7,123.9,93.2,123.9z"/>
		<path class="st0" d="M136.3,95.6c4,0,7.3-3.3,7.3-7.3s-3.3-7.3-7.3-7.3s-7.3,3.3-7.3,7.3C129.1,92.3,132.3,95.6,136.3,95.6z
			 M134.6,88.3c0-1,0.8-1.7,1.7-1.7s1.7,0.8,1.7,1.7c0,1-0.8,1.7-1.7,1.7S134.6,89.3,134.6,88.3z"/>
		<path class="st0" d="M58.3,21.3h2.3c0.9,0,1.6-0.7,1.6-1.6v-2.3c0-0.9-0.7-1.6-1.6-1.6h-2.3c-0.9,0-1.6,0.7-1.6,1.6v2.3
			C56.7,20.6,57.4,21.3,58.3,21.3z"/>
		<path class="st0" d="M49.3,21.3h2.3c0.9,0,1.6-0.7,1.6-1.6v-2.3c0-0.9-0.7-1.6-1.6-1.6h-2.3c-0.9,0-1.6,0.7-1.6,1.6v2.3
			C47.7,20.6,48.4,21.3,49.3,21.3z"/>
		<path class="st0" d="M40.3,21.3h2.3c0.9,0,1.6-0.7,1.6-1.6v-2.3c0-0.9-0.7-1.6-1.6-1.6h-2.3c-0.9,0-1.6,0.7-1.6,1.6v2.3
			C38.7,20.6,39.4,21.3,40.3,21.3z"/>
		<path class="st0" d="M139.4,21.3h2.3c0.9,0,1.6-0.7,1.6-1.6v-2.3c0-0.9-0.7-1.6-1.6-1.6h-2.3c-0.9,0-1.6,0.7-1.6,1.6v2.3
			C137.8,20.6,138.5,21.3,139.4,21.3z"/>
		<path class="st0" d="M148.4,21.3h2.3c0.9,0,1.6-0.7,1.6-1.6v-2.3c0-0.9-0.7-1.6-1.6-1.6h-2.3c-0.9,0-1.6,0.7-1.6,1.6v2.3
			C146.8,20.6,147.5,21.3,148.4,21.3z"/>
		<path class="st0" d="M157.4,21.3h2.3c0.9,0,1.6-0.7,1.6-1.6v-2.3c0-0.9-0.7-1.6-1.6-1.6h-2.3c-0.9,0-1.6,0.7-1.6,1.6v2.3
			C155.8,20.6,156.5,21.3,157.4,21.3z"/>
	</g>
</g>
</svg>
