<?xml version="1.0" encoding="utf-8"?>
<!-- Generator: Adobe Illustrator 22.1.0, SVG Export Plug-In . SVG Version: 6.00 Build 0)  -->
<svg version="1.1" id="Слой_1" width="10" xmlns="http://www.w3.org/2000/svg" xmlns:xlink="http://www.w3.org/1999/xlink" x="0px" y="0px"
	 viewBox="0 0 200 160" style="enable-background:new 0 0 200 160;" xml:space="preserve">
<style type="text/css">
	.st0{fill:#000000;}
</style>
<g>
	<g>
		<path class="st0" d="M144,18.1C132.3,6.4,116.8,0,100.3,0C84.1,0,68.6,6.4,56.6,18.1c-1.1,1.1-1.1,2.8,0,3.9s2.8,1.1,3.9,0
			C71,11.4,85.2,5.5,100.3,5.5s29.2,5.8,39.8,16.4c1.1,1.1,2.8,1.1,3.9,0C145.1,20.9,145.1,19.2,144,18.1z"/>
		<path class="st0" d="M100,14.8c-12.5,0-24.2,4.9-33,13.7c-1.1,1.1-1.1,2.8,0,3.9c1.1,1.1,2.8,1.1,3.9,0c7.9-7.9,18-12,29.1-12
			c10.9,0,21.5,4.4,29.1,12c0.6,0.6,1.4,0.9,2.3,0.8c0.7,0,1.2-0.3,1.6-0.8l0,0c1.1-1.1,1.1-2.8,0-3.9
			C124.1,19.6,112.4,14.8,100,14.8z"/>
		<path class="st0" d="M122.6,38.8c-12.4-12.4-32.9-12.4-45.6,0c-1.1,1.1-1.1,2.8,0,3.9c1.1,1.1,2.8,1.1,3.9,0
			c5.1-5.1,11.8-7.9,18.9-7.9c0.1,0,0.1,0,0.2,0c7,0.1,13.6,2.9,18.5,7.9c1.4,1.1,3.1,1.1,4.2,0C123.7,41.6,123.7,39.9,122.6,38.8z"
			/>
		<path class="st0" d="M100,45.8c-7.1,0-13.1,6-13.1,13.1c0,7.4,5.8,13.1,13.1,13.1c7.4,0,13.1-5.8,13.1-13.1
			C113.1,51.6,107.3,45.8,100,45.8z M100,66.6c-4.3,0-7.6-3.3-7.6-7.6s3.3-7.6,7.6-7.6c4.1,0,7.6,3.5,7.6,7.6
			C107.5,63.2,104.2,66.6,100,66.6z"/>
		<path class="st0" d="M193.1,144c0.1-0.1,0.3-0.2,0.5-0.3c4.4-3.5,10.2-13,2.9-26l-0.1-0.2l-2.2-14.1c-0.3-1-1-2.1-2-2.1
			c-1.4-0.2-2.7-0.4-4.1-0.5c-5.1-0.5-10.8-1.2-17.8-4.9c-11-6-24.6-13.7-60.2-13.7c-29.4,0-41.1,8.1-50.5,14.1
			c-5.1,3.3-9.5,6.2-14.6,6.9c-44.4,6.2-45,23.4-45,23.7v17.6c0,1.2,1,2.4,2.4,2.6l16.9,2.2l0.1,0.2c3.1,6,8.5,10.4,14.6,10.4
			c6.6,0,12.9-2.9,17.5-9.2l0.2-0.2h86l0.1,0.2c3.7,6,9.4,9.2,15.6,9.2c6.8,0,13.2-5,16.8-12l0.1-0.2h0.3l21.7-3.5
			C192.6,144.3,192.8,144.2,193.1,144z M82.2,106.8c0-1.8,1.5-3.3,3.3-3.3s3.3,1.5,3.3,3.3s-1.5,3.3-3.3,3.3
			C83.7,110.2,82.2,108.7,82.2,106.8z M190.6,139.3l-22.5,3.5c-0.8,0.3-1.6,0.9-2.2,1.7c-2.8,6.3-7.8,10.1-13.2,10.2
			c-0.1,0-0.2,0-0.2,0c-4.7,0-8.9-2.9-11.3-7.8c-0.7-1-1.5-1.6-2.4-1.6h-17.5v-6.1l5.8-4.8l0.3,0.1c1.2,0.6,2.4,0.9,3.5,0.9
			c4.7,0,8.6-3.9,8.6-8.6c0-4.7-3.9-8.6-8.6-8.6c-4.7,0-8.6,3.9-8.6,8.6c0,1.2,0.3,2.4,0.9,3.5l0.2,0.4l-6.3,5.3
			c-0.7,0.7-1.1,1.5-1.1,2.1v7.4H87.8v-30.4l0.3-0.1c3.3-1.2,5.6-4.5,5.6-8c0-4.7-3.9-8.6-8.6-8.6s-8.6,3.9-8.6,8.6
			c0,3.7,2.2,6.7,5.6,8l0.3,0.1v30.4H50.3c-0.8,0-1.8,0.5-2,1.2l-0.1,0.1c-3.4,5.1-7.9,8-12.7,8c-0.5,0-0.9,0-1.4-0.1
			c-4.7-0.5-8.7-3.9-10.4-8.6c-0.6-1.6-1.6-1.7-6-2.2c-2.7-0.3-6.4-0.6-11.8-1.6l-0.4-0.1v-12.6h17l5.8,3.8l-0.2,0.4
			c-0.8,1.6-1.2,3-1.2,4.2c0,5.1,4.1,9.2,9.2,9.2s9.2-4.1,9.2-9.2c0-5.1-4.1-9.2-9.2-9.2c-1.2,0-2.4,0.3-3.6,0.6l-0.2,0.1l-0.2-0.1
			l-7.5-4.7c-0.6-0.3-1.1-0.5-1.6-0.5H6.6l0.3-0.7c3.9-6.5,16.2-11.2,31.2-13.9c6-1.1,11.2-2,13-2.7l0.7-0.3v6.1
			c0,1,0.8,2.1,1.8,2.3l10.1,3.6v4.5l-0.3,0.1c-3.3,1.2-5.6,4.5-5.6,8c0,4.7,3.9,8.6,8.6,8.6s8.6-3.9,8.6-8.6c0-3.7-2.2-6.7-5.6-8
			l-0.3-0.1v-6.3c0-1-0.8-2.1-1.8-2.3l-10.1-3.6V104l0.3-0.1c1.3-0.8,2.7-1.7,4.1-2.6c9.1-6,22.9-15.1,53-13.8h0.5V115l-6.9,4.1
			l-0.3-0.3c-1.5-1.5-3.6-2.4-5.9-2.4c-4.7,0-8.6,3.9-8.6,8.6c0,4.7,3.9,8.6,8.6,8.6s8.6-3.9,8.6-8.6v-1.2l8.4-5.2
			c0.8-0.5,1.3-1.3,1.3-2.1v-29h0.5c8.9-0.3,18.6,1.4,28.8,5.1l0.7,0.2l-6.7,8.1l-0.4-0.2c-1.2-0.6-2.4-0.9-3.5-0.9
			c-4.7,0-8.6,3.9-8.6,8.6s3.9,8.6,8.6,8.6c4.7,0,8.6-3.9,8.6-8.6c0-1.4-0.3-2.6-0.9-3.9l-0.2-0.3l8-9.7l0.3,0.1
			c6.4,2.6,9.9,4.5,12.6,6c5,2.7,7.3,4,21.1,5.6h0.4l1.9,12.6c1.6,2.2,2.5,5.6,2.5,5.6h-26.3c-0.5,0-1.1,0.3-1.7,0.6l-7.7,5.5
			l-0.3-0.2c-1.7-1-3.2-1.5-4.8-1.5c-4.7,0-8.6,3.9-8.6,8.6c0,4.7,3.9,8.6,8.6,8.6c4.7,0,8.6-3.9,8.6-8.6c0-0.4-0.1-0.9-0.2-1.3
			c-0.1-0.5-0.2-1-0.2-1.5v-0.3l6.9-5h26.1v0.5c0,3.5-1.3,6.6-3.9,9.2L190.6,139.3z M128,126.9c0-1.8,1.5-3.3,3.3-3.3
			s3.3,1.5,3.3,3.3s-1.5,3.3-3.3,3.3S128,128.8,128,126.9z M31.9,138.5c0.4-2.2,2.1-4,4-4c2.2,0,4,1.8,4,4s-1.8,4-4,4
			S31.9,140.7,31.9,138.5z M66.4,128c1.8,0,3.3,1.5,3.3,3.3s-1.5,3.3-3.3,3.3s-3.3-1.5-3.3-3.3S64.5,128,66.4,128z M105.2,125.3
			c0,1.8-1.5,3.3-3.3,3.3s-3.3-1.5-3.3-3.3s1.5-3.3,3.3-3.3S105.2,123.5,105.2,125.3z M143.2,108.4c0,1.8-1.5,3.3-3.3,3.3
			s-3.3-1.5-3.3-3.3s1.5-3.3,3.3-3.3C141.4,105,143.2,106.5,143.2,108.4z M156.7,137.6c0,1.8-1.5,3.3-3.3,3.3s-3.3-1.5-3.3-3.3
			s1.5-3.3,3.3-3.3c0.7-0.1,1.4,0.1,2.1,0.6C156.2,135.5,156.7,136.5,156.7,137.6z"/>
	</g>
</g>
</svg>
